<svg width="189" height="189" viewBox="0 0 189 189" fill="none" xmlns="http://www.w3.org/2000/svg">
<rect x="94.5" y="1.93782" width="130.903" height="130.903" transform="rotate(45 94.5 1.93782)" fill="#BAE8E5" stroke="#272727" stroke-width="2.73038"/>
<path d="M40.4622 79.684L44.0921 70.4105H45.8673L49.484 79.684H47.4438L45.5759 74.6896C45.5229 74.5483 45.4566 74.3672 45.3771 74.1464C45.3065 73.9256 45.2314 73.6916 45.1519 73.4443C45.0724 73.197 44.9974 72.9629 44.9267 72.7421C44.8561 72.5125 44.8031 72.3226 44.7677 72.1725L45.1254 72.1592C45.0724 72.3624 45.0106 72.5743 44.94 72.7951C44.8781 73.0071 44.8119 73.2279 44.7412 73.4575C44.6706 73.6783 44.5955 73.8947 44.516 74.1067C44.4365 74.3186 44.3615 74.5262 44.2908 74.7293L42.4229 79.684H40.4622ZM42.1447 77.7366L42.7938 76.1336H47.0464L47.7088 77.7366H42.1447ZM58.6374 79.684V72.199H55.9348V70.4105H63.4066V72.199H60.6245V79.684H58.6374ZM65.7367 79.684V77.9751H67.2867V72.1195H65.7367V70.4105H70.8239V72.1195H69.2739V77.9751H70.8239V79.684H65.7367ZM77.986 79.8165C77.2706 79.8165 76.6127 79.6973 76.0121 79.4588C75.4203 79.2115 74.9081 78.8715 74.4753 78.4387C74.0426 78.006 73.707 77.4981 73.4685 76.9152C73.2389 76.3323 73.124 75.7008 73.124 75.0208C73.124 74.3407 73.2433 73.7136 73.4817 73.1396C73.729 72.5567 74.0735 72.0532 74.5151 71.6293C74.9655 71.1965 75.491 70.8609 76.0916 70.6225C76.6921 70.384 77.3501 70.2648 78.0655 70.2648C78.5601 70.2648 79.0326 70.331 79.483 70.4635C79.9335 70.596 80.3442 70.777 80.7151 71.0067C81.086 71.2363 81.3952 71.5012 81.6424 71.8015L80.4104 73.0998C80.1808 72.879 79.9379 72.6936 79.6818 72.5434C79.4345 72.3844 79.1739 72.2652 78.9001 72.1857C78.6263 72.0974 78.3437 72.0532 78.0523 72.0532C77.6372 72.0532 77.253 72.1283 76.8997 72.2785C76.5553 72.4286 76.2505 72.6361 75.9856 72.9011C75.7206 73.1661 75.5131 73.4796 75.3629 73.8417C75.2216 74.2038 75.151 74.5968 75.151 75.0208C75.151 75.4359 75.226 75.8289 75.3762 76.1998C75.5352 76.5619 75.7471 76.8799 76.0121 77.1537C76.2859 77.4186 76.6038 77.6306 76.9659 77.7896C77.328 77.9397 77.7167 78.0148 78.1318 78.0148C78.4232 78.0148 78.7014 77.9706 78.9664 77.8823C79.2313 77.794 79.461 77.6704 79.6553 77.5114C79.8584 77.3436 80.013 77.1493 80.1189 76.9285C80.2338 76.7077 80.2912 76.4736 80.2912 76.2263V75.9084L80.5561 76.2793H77.9065V74.6233H82.1989C82.2077 74.7205 82.2165 74.8397 82.2254 74.981C82.243 75.1223 82.2518 75.2636 82.2518 75.405C82.2607 75.5374 82.2651 75.6434 82.2651 75.7229C82.2651 76.3235 82.1547 76.8755 81.9339 77.3789C81.7219 77.8823 81.4216 78.3151 81.033 78.6772C80.6533 79.0393 80.2028 79.3219 79.6818 79.5251C79.1607 79.7194 78.5954 79.8165 77.986 79.8165ZM90.7884 79.684V70.4105H92.7756V79.684H90.7884ZM84.946 79.684V70.4105H86.9332V79.684H84.946ZM85.7409 75.9614L85.7542 74.1597H91.8085V75.9614H85.7409ZM98.054 79.684V72.199H95.3514V70.4105H102.823V72.199H100.041V79.684H98.054ZM111.879 76.9417L111.455 75.14L116.144 70.4105H118.555L111.879 76.9417ZM110.381 79.684V70.4105H112.369V79.684H110.381ZM116.396 79.684L112.925 75.0738L114.29 73.8947L118.754 79.684H116.396ZM121.077 79.684V70.4105H122.852L127.979 77.3392H127.608C127.572 77.0654 127.542 76.8004 127.515 76.5443C127.489 76.2793 127.462 76.0144 127.436 75.7494C127.418 75.4756 127.4 75.1974 127.383 74.9148C127.374 74.6233 127.365 74.3186 127.356 74.0007C127.347 73.6739 127.343 73.3206 127.343 72.9409V70.4105H129.29V79.684H127.489L122.256 72.6891L122.759 72.7024C122.803 73.1616 122.839 73.5547 122.865 73.8815C122.9 74.1994 122.927 74.4776 122.945 74.7161C122.962 74.9545 122.975 75.1621 122.984 75.3387C123.002 75.5154 123.011 75.6832 123.011 75.8421C123.02 76.0011 123.024 76.1689 123.024 76.3456V79.684H121.077ZM132.387 79.684V77.9751H133.937V72.1195H132.387V70.4105H137.474V72.1195H135.924V77.9751H137.474V79.684H132.387ZM142.512 79.684V72.199H139.81V70.4105H147.281V72.199H144.499V79.684H142.512ZM39.3413 92.8647C38.6612 92.8647 38.0341 92.7499 37.4601 92.5203C36.8948 92.2818 36.4002 91.9506 35.9763 91.5267C35.5612 91.0939 35.2388 90.5861 35.0092 90.0032C34.7796 89.4114 34.6648 88.7667 34.6648 88.069C34.6648 87.3889 34.784 86.7618 35.0225 86.1878C35.2609 85.6049 35.5965 85.1014 36.0293 84.6775C36.4621 84.2447 36.9699 83.9091 37.5528 83.6707C38.1357 83.4322 38.7672 83.313 39.4473 83.313C39.8889 83.313 40.3216 83.3748 40.7455 83.4984C41.1783 83.6133 41.5713 83.7855 41.9246 84.0151C42.2867 84.2447 42.5958 84.5185 42.852 84.8365L41.6067 86.2143C41.3947 86.0023 41.1739 85.8212 40.9443 85.6711C40.7235 85.5121 40.485 85.3929 40.2289 85.3134C39.9816 85.2251 39.7166 85.1809 39.434 85.1809C39.0542 85.1809 38.6965 85.2516 38.3609 85.3929C38.0341 85.5342 37.7471 85.7329 37.4998 85.9891C37.2525 86.2363 37.0538 86.5411 36.9037 86.9032C36.7623 87.2564 36.6917 87.6495 36.6917 88.0822C36.6917 88.5238 36.7623 88.9257 36.9037 89.2878C37.045 89.6411 37.2437 89.9458 37.4998 90.2019C37.7559 90.4492 38.0606 90.6435 38.4139 90.7848C38.776 90.9173 39.1735 90.9835 39.6062 90.9835C39.8889 90.9835 40.1626 90.9438 40.4276 90.8643C40.6926 90.7848 40.9354 90.6744 41.1562 90.5331C41.3859 90.3918 41.589 90.2284 41.7656 90.0429L42.7327 91.5929C42.5208 91.8314 42.2337 92.0478 41.8716 92.2421C41.5183 92.4364 41.1209 92.5909 40.6793 92.7057C40.2377 92.8117 39.7917 92.8647 39.3413 92.8647ZM49.4422 92.8647C48.7621 92.8647 48.135 92.7455 47.561 92.507C46.9869 92.2686 46.4835 91.9374 46.0507 91.5134C45.6268 91.0807 45.3 90.5728 45.0704 89.9899C44.8407 89.3982 44.7259 88.7579 44.7259 88.069C44.7259 87.3713 44.8407 86.7354 45.0704 86.1613C45.3 85.5784 45.6268 85.0705 46.0507 84.6378C46.4835 84.205 46.9869 83.8694 47.561 83.6309C48.135 83.3925 48.7621 83.2732 49.4422 83.2732C50.1311 83.2732 50.7581 83.3925 51.3234 83.6309C51.8975 83.8694 52.3965 84.205 52.8204 84.6378C53.2532 85.0705 53.5844 85.5784 53.814 86.1613C54.0436 86.7442 54.1584 87.3801 54.1584 88.069C54.1584 88.7579 54.0436 89.3938 53.814 89.9767C53.5844 90.5596 53.2532 91.0674 52.8204 91.5002C52.3965 91.9329 51.8975 92.2686 51.3234 92.507C50.7581 92.7455 50.1311 92.8647 49.4422 92.8647ZM49.4422 90.9835C49.8308 90.9835 50.1885 90.9129 50.5153 90.7715C50.8509 90.6302 51.1379 90.4271 51.3764 90.1621C51.6148 89.8972 51.8003 89.5881 51.9328 89.2348C52.0741 88.8815 52.1447 88.4929 52.1447 88.069C52.1447 87.645 52.0741 87.2564 51.9328 86.9032C51.8003 86.5499 51.6148 86.2452 51.3764 85.9891C51.1379 85.7241 50.8509 85.521 50.5153 85.3797C50.1885 85.2295 49.8308 85.1544 49.4422 85.1544C49.0536 85.1544 48.6959 85.2295 48.3691 85.3797C48.0423 85.521 47.7553 85.7241 47.508 85.9891C47.2607 86.2452 47.0708 86.5499 46.9383 86.9032C46.8147 87.2564 46.7529 87.645 46.7529 88.069C46.7529 88.4929 46.8147 88.8815 46.9383 89.2348C47.0708 89.5881 47.2607 89.8972 47.508 90.1621C47.7553 90.4271 48.0423 90.6302 48.3691 90.7715C48.6959 90.9129 49.0536 90.9835 49.4422 90.9835ZM56.8843 92.7322V83.4587H58.6993L62.0775 88.9566L60.8852 88.9433L64.3031 83.4587H66.0386V92.7322H64.0911V89.5527C64.0911 88.7579 64.1088 88.0425 64.1441 87.4066C64.1883 86.7707 64.259 86.1392 64.3561 85.5121L64.5946 86.1348L61.8787 90.3476H61.0044L58.3416 86.1613L58.5668 85.5121C58.6639 86.1039 58.7302 86.7133 58.7655 87.3403C58.8097 87.9586 58.8317 88.696 58.8317 89.5527V92.7322H56.8843ZM69.3777 92.7322V83.4587H71.1926L74.5709 88.9566L73.3786 88.9433L76.7965 83.4587H78.532V92.7322H76.5845V89.5527C76.5845 88.7579 76.6022 88.0425 76.6375 87.4066C76.6817 86.7707 76.7524 86.1392 76.8495 85.5121L77.088 86.1348L74.3721 90.3476H73.4978L70.835 86.1613L71.0602 85.5121C71.1573 86.1039 71.2236 86.7133 71.2589 87.3403C71.303 87.9586 71.3251 88.696 71.3251 89.5527V92.7322H69.3777ZM85.6865 92.8117C84.9358 92.8117 84.2645 92.6572 83.6728 92.348C83.0899 92.0301 82.6306 91.5973 82.295 91.0498C81.9594 90.4933 81.7916 89.8663 81.7916 89.1686V83.4455H83.792V89.0493C83.792 89.4203 83.8759 89.7559 84.0437 90.0562C84.2115 90.3476 84.4368 90.5817 84.7194 90.7583C85.0108 90.9349 85.3332 91.0233 85.6865 91.0233C86.0486 91.0233 86.3754 90.9349 86.6668 90.7583C86.9671 90.5817 87.2011 90.3476 87.369 90.0562C87.5456 89.7559 87.6339 89.4203 87.6339 89.0493V83.4455H89.5681V89.1686C89.5681 89.8663 89.4003 90.4933 89.0647 91.0498C88.7291 91.5973 88.2654 92.0301 87.6737 92.348C87.0907 92.6572 86.4284 92.8117 85.6865 92.8117ZM92.8249 92.7322V83.4587H94.6001L99.7271 90.3874H99.3561C99.3208 90.1136 99.2899 89.8486 99.2634 89.5925C99.2369 89.3275 99.2104 89.0626 99.1839 88.7976C99.1663 88.5238 99.1486 88.2456 99.1309 87.963C99.1221 87.6715 99.1133 87.3668 99.1044 87.0489C99.0956 86.7221 99.0912 86.3688 99.0912 85.9891V83.4587H101.039V92.7322H99.2369L94.004 85.7373L94.5074 85.7506C94.5516 86.2099 94.5869 86.6029 94.6134 86.9297C94.6487 87.2476 94.6752 87.5258 94.6929 87.7643C94.7105 88.0027 94.7238 88.2103 94.7326 88.3869C94.7503 88.5636 94.7591 88.7314 94.7591 88.8903C94.7679 89.0493 94.7724 89.2171 94.7724 89.3938V92.7322H92.8249ZM104.135 92.7322V91.0233H105.685V85.1677H104.135V83.4587H109.223V85.1677H107.673V91.0233H109.223V92.7322H104.135ZM114.26 92.7322V85.2472H111.558V83.4587H119.03V85.2472H116.248V92.7322H114.26ZM124.152 92.7322V88.1087L124.245 88.7579L120.496 83.4587H122.787L125.649 87.5656L124.748 87.5258L127.331 83.4587H129.544L125.954 88.9036L126.152 88.0027V92.7322H124.152ZM136.398 92.7322V91.0233H137.948V85.1677H136.398V83.4587H141.485V85.1677H139.935V91.0233H141.485V92.7322H136.398ZM144.589 92.7322V83.4587H146.364L151.491 90.3874H151.12C151.084 90.1136 151.053 89.8486 151.027 89.5925C151 89.3275 150.974 89.0626 150.948 88.7976C150.93 88.5238 150.912 88.2456 150.895 87.963C150.886 87.6715 150.877 87.3668 150.868 87.0489C150.859 86.7221 150.855 86.3688 150.855 85.9891V83.4587H152.802V92.7322H151.001L145.768 85.7373L146.271 85.7506C146.315 86.2099 146.35 86.6029 146.377 86.9297C146.412 87.2476 146.439 87.5258 146.456 87.7643C146.474 88.0027 146.487 88.2103 146.496 88.3869C146.514 88.5636 146.523 88.7314 146.523 88.8903C146.532 89.0493 146.536 89.2171 146.536 89.3938V92.7322H144.589ZM42.5192 105.78V98.2954H39.8166V96.5069H47.2884V98.2954H44.5063V105.78H42.5192ZM55.6993 105.78V96.5069H57.6865V105.78H55.6993ZM49.8569 105.78V96.5069H51.8441V105.78H49.8569ZM50.6518 102.058L50.6651 100.256H56.7194V102.058H50.6518ZM61.0307 105.78V96.5069H67.297V98.2556H62.9649V104.032H67.3897V105.78H61.0307ZM61.9581 101.899V100.203H66.6611V101.899H61.9581ZM81.1994 105.78V96.5069H83.1866V105.78H81.1994ZM75.3571 105.78V96.5069H77.3443V105.78H75.3571ZM76.152 102.058L76.1652 100.256H82.2195V102.058H76.152ZM86.5309 105.78V96.5069H92.7971V98.2556H88.4651V104.032H92.8899V105.78H86.5309ZM87.4582 101.899V100.203H92.1612V101.899H87.4582ZM94.768 105.78L98.3979 96.5069H100.173L103.79 105.78H101.75L99.8816 100.786C99.8287 100.645 99.7624 100.464 99.6829 100.243C99.6123 100.022 99.5372 99.788 99.4577 99.5407C99.3782 99.2934 99.3032 99.0593 99.2325 98.8385C99.1618 98.6089 99.1089 98.419 99.0735 98.2689L99.4312 98.2556C99.3782 98.4588 99.3164 98.6707 99.2458 98.8915C99.1839 99.1035 99.1177 99.3243 99.047 99.5539C98.9764 99.7747 98.9013 99.9911 98.8218 100.203C98.7423 100.415 98.6673 100.623 98.5966 100.826L96.7286 105.78H94.768ZM96.4504 103.833L97.0996 102.23H101.352L102.015 103.833H96.4504ZM106.019 105.78V96.5069H110.126C110.7 96.5069 111.221 96.6394 111.689 96.9043C112.157 97.1605 112.524 97.5093 112.789 97.9509C113.063 98.3925 113.2 98.896 113.2 99.4612C113.2 100.018 113.063 100.525 112.789 100.985C112.524 101.435 112.157 101.793 111.689 102.058C111.221 102.323 110.7 102.455 110.126 102.455H107.94V105.78H106.019ZM111.279 105.78L108.921 101.594L110.961 101.263L113.584 105.794L111.279 105.78ZM107.94 100.839H110.033C110.272 100.839 110.479 100.786 110.656 100.68C110.841 100.565 110.983 100.411 111.08 100.216C111.177 100.013 111.226 99.788 111.226 99.5407C111.226 99.2757 111.168 99.0461 111.053 98.8518C110.939 98.6575 110.771 98.5073 110.55 98.4014C110.329 98.2865 110.073 98.2291 109.782 98.2291H107.94V100.839ZM117.898 105.78V98.2954H115.196V96.5069H122.667V98.2954H119.885V105.78H117.898ZM134.333 105.913C133.652 105.913 133.025 105.794 132.451 105.555C131.877 105.317 131.374 104.986 130.941 104.562C130.517 104.129 130.19 103.621 129.961 103.038C129.731 102.446 129.616 101.806 129.616 101.117C129.616 100.419 129.731 99.7836 129.961 99.2095C130.19 98.6266 130.517 98.1187 130.941 97.686C131.374 97.2532 131.877 96.9176 132.451 96.6791C133.025 96.4407 133.652 96.3214 134.333 96.3214C135.021 96.3214 135.648 96.4407 136.214 96.6791C136.788 96.9176 137.287 97.2532 137.711 97.686C138.143 98.1187 138.475 98.6266 138.704 99.2095C138.934 99.7924 139.049 100.428 139.049 101.117C139.049 101.806 138.934 102.442 138.704 103.025C138.475 103.608 138.143 104.116 137.711 104.548C137.287 104.981 136.788 105.317 136.214 105.555C135.648 105.794 135.021 105.913 134.333 105.913ZM134.333 104.032C134.721 104.032 135.079 103.961 135.406 103.82C135.741 103.678 136.028 103.475 136.267 103.21C136.505 102.945 136.691 102.636 136.823 102.283C136.964 101.93 137.035 101.541 137.035 101.117C137.035 100.693 136.964 100.305 136.823 99.9514C136.691 99.5981 136.505 99.2934 136.267 99.0373C136.028 98.7723 135.741 98.5692 135.406 98.4279C135.079 98.2777 134.721 98.2026 134.333 98.2026C133.944 98.2026 133.586 98.2777 133.259 98.4279C132.933 98.5692 132.646 98.7723 132.398 99.0373C132.151 99.2934 131.961 99.5981 131.829 99.9514C131.705 100.305 131.643 100.693 131.643 101.117C131.643 101.541 131.705 101.93 131.829 102.283C131.961 102.636 132.151 102.945 132.398 103.21C132.646 103.475 132.933 103.678 133.259 103.82C133.586 103.961 133.944 104.032 134.333 104.032ZM141.775 105.78V96.5069H143.762V105.78H141.775ZM142.689 102.098V100.389H147.484V102.098H142.689ZM142.689 98.2954V96.5069H148.041V98.2954H142.689ZM56.0413 118.829V109.555H57.8562L61.2345 115.053L60.0422 115.04L63.4601 109.555H65.1956V118.829H63.2481V115.649C63.2481 114.854 63.2658 114.139 63.3011 113.503C63.3453 112.867 63.416 112.236 63.5131 111.609L63.7516 112.231L61.0357 116.444H60.1614L57.4986 112.258L57.7238 111.609C57.8209 112.2 57.8872 112.81 57.9225 113.437C57.9666 114.055 57.9887 114.792 57.9887 115.649V118.829H56.0413ZM72.6415 118.961C71.9615 118.961 71.3344 118.842 70.7603 118.603C70.1863 118.365 69.6828 118.034 69.2501 117.61C68.8261 117.177 68.4994 116.669 68.2697 116.086C68.0401 115.495 67.9253 114.854 67.9253 114.165C67.9253 113.468 68.0401 112.832 68.2697 112.258C68.4994 111.675 68.8261 111.167 69.2501 110.734C69.6828 110.301 70.1863 109.966 70.7603 109.727C71.3344 109.489 71.9615 109.37 72.6415 109.37C73.3304 109.37 73.9575 109.489 74.5227 109.727C75.0968 109.966 75.5958 110.301 76.0197 110.734C76.4525 111.167 76.7837 111.675 77.0133 112.258C77.243 112.841 77.3578 113.476 77.3578 114.165C77.3578 114.854 77.243 115.49 77.0133 116.073C76.7837 116.656 76.4525 117.164 76.0197 117.597C75.5958 118.029 75.0968 118.365 74.5227 118.603C73.9575 118.842 73.3304 118.961 72.6415 118.961ZM72.6415 117.08C73.0301 117.08 73.3878 117.009 73.7146 116.868C74.0502 116.727 74.3373 116.524 74.5757 116.259C74.8142 115.994 74.9997 115.684 75.1321 115.331C75.2734 114.978 75.3441 114.589 75.3441 114.165C75.3441 113.741 75.2734 113.353 75.1321 113C74.9997 112.646 74.8142 112.342 74.5757 112.085C74.3373 111.821 74.0502 111.617 73.7146 111.476C73.3878 111.326 73.0301 111.251 72.6415 111.251C72.2529 111.251 71.8952 111.326 71.5684 111.476C71.2417 111.617 70.9546 111.821 70.7073 112.085C70.46 112.342 70.2702 112.646 70.1377 113C70.014 113.353 69.9522 113.741 69.9522 114.165C69.9522 114.589 70.014 114.978 70.1377 115.331C70.2702 115.684 70.46 115.994 70.7073 116.259C70.9546 116.524 71.2417 116.727 71.5684 116.868C71.8952 117.009 72.2529 117.08 72.6415 117.08ZM80.0836 118.829V109.555H81.8589L86.9858 116.484H86.6149C86.5795 116.21 86.5486 115.945 86.5221 115.689C86.4956 115.424 86.4691 115.159 86.4426 114.894C86.425 114.62 86.4073 114.342 86.3896 114.059C86.3808 113.768 86.372 113.463 86.3632 113.145C86.3543 112.819 86.3499 112.465 86.3499 112.085V109.555H88.2973V118.829H86.4956L81.2627 111.834L81.7661 111.847C81.8103 112.306 81.8456 112.699 81.8721 113.026C81.9074 113.344 81.9339 113.622 81.9516 113.861C81.9693 114.099 81.9825 114.307 81.9913 114.483C82.009 114.66 82.0178 114.828 82.0178 114.987C82.0267 115.146 82.0311 115.314 82.0311 115.49V118.829H80.0836ZM93.5668 118.829V111.344H90.8642V109.555H98.336V111.344H95.554V118.829H93.5668ZM99.1452 118.829L102.775 109.555H104.55L108.167 118.829H106.127L104.259 113.834C104.206 113.693 104.14 113.512 104.06 113.291C103.99 113.07 103.914 112.836 103.835 112.589C103.755 112.342 103.68 112.108 103.61 111.887C103.539 111.657 103.486 111.467 103.451 111.317L103.808 111.304C103.755 111.507 103.694 111.719 103.623 111.94C103.561 112.152 103.495 112.373 103.424 112.602C103.354 112.823 103.279 113.039 103.199 113.251C103.12 113.463 103.044 113.671 102.974 113.874L101.106 118.829H99.1452ZM100.828 116.881L101.477 115.278H105.729L106.392 116.881H100.828ZM110.397 118.829V109.555H112.172L117.299 116.484H116.928C116.892 116.21 116.861 115.945 116.835 115.689C116.808 115.424 116.782 115.159 116.756 114.894C116.738 114.62 116.72 114.342 116.703 114.059C116.694 113.768 116.685 113.463 116.676 113.145C116.667 112.819 116.663 112.465 116.663 112.085V109.555H118.61V118.829H116.808L111.576 111.834L112.079 111.847C112.123 112.306 112.158 112.699 112.185 113.026C112.22 113.344 112.247 113.622 112.264 113.861C112.282 114.099 112.295 114.307 112.304 114.483C112.322 114.66 112.331 114.828 112.331 114.987C112.34 115.146 112.344 115.314 112.344 115.49V118.829H110.397ZM120.846 118.829L124.476 109.555H126.251L129.868 118.829H127.828L125.96 113.834C125.907 113.693 125.84 113.512 125.761 113.291C125.69 113.07 125.615 112.836 125.536 112.589C125.456 112.342 125.381 112.108 125.31 111.887C125.24 111.657 125.187 111.467 125.151 111.317L125.509 111.304C125.456 111.507 125.394 111.719 125.324 111.94C125.262 112.152 125.196 112.373 125.125 112.602C125.054 112.823 124.979 113.039 124.9 113.251C124.82 113.463 124.745 113.671 124.675 113.874L122.807 118.829H120.846ZM122.528 116.881L123.178 115.278H127.43L128.092 116.881H122.528ZM132.534 118.974C132.19 118.974 131.925 118.877 131.739 118.683C131.554 118.489 131.461 118.21 131.461 117.848C131.461 117.522 131.558 117.257 131.753 117.053C131.956 116.841 132.216 116.735 132.534 116.735C132.87 116.735 133.131 116.833 133.316 117.027C133.501 117.221 133.594 117.495 133.594 117.848C133.594 118.184 133.497 118.458 133.303 118.67C133.108 118.873 132.852 118.974 132.534 118.974Z" fill="#272727"/>
</svg>
