<svg preserveAspectRatio="none" width="100%" height="100%" overflow="visible" style="display: block;" viewBox="0 0 146.194 146.194" fill="none" xmlns="http://www.w3.org/2000/svg">
<g id="Frame 1171276828">
<path id="Vector" d="M144.573 1.62069H1.62069V144.573H144.573V1.62069Z" fill="var(--fill-0, #CB5A38)" stroke="var(--stroke-0, #272727)" stroke-width="3.24138" stroke-miterlimit="10"/>
<path id="Vector_2" d="M90.4593 71.5136C90.4593 75.1575 89.2188 78.5106 87.1353 81.1853C86.6313 81.8346 86.0886 82.4354 85.4878 82.9878C85.0807 83.3755 84.6447 83.7437 84.1892 84.0829C81.5435 86.089 78.2486 87.2713 74.6919 87.2713C71.1353 87.2713 67.947 86.118 65.3207 84.1798C64.1675 83.327 63.1402 82.3288 62.268 81.2047C62.113 81.0012 61.9579 80.8073 61.8126 80.5941C60.0004 78.026 58.9247 74.8861 58.9247 71.5136C58.9247 68.1412 60.0585 64.7978 61.987 62.1909C62.0549 62.094 62.1227 62.0067 62.1905 61.9098C63.0918 60.7469 64.1481 59.71 65.3304 58.8378C65.5436 58.6827 65.7568 58.5276 65.9797 58.3823C68.48 56.7154 71.4745 55.7463 74.6919 55.7463C78.3261 55.7463 81.6792 56.9868 84.3442 59.0607C84.4314 59.1285 84.509 59.1866 84.5865 59.2545C85.6913 60.1461 86.6701 61.1927 87.5035 62.3459C89.3545 64.9334 90.4496 68.0927 90.4496 71.5136H90.4593Z" stroke="var(--stroke-0, #272727)" stroke-width="3.24138" stroke-miterlimit="10"/>
<path id="Vector_3" d="M74.6917 78.755C78.6898 78.755 81.9309 75.5139 81.9309 71.5158C81.9309 67.5177 78.6898 64.2765 74.6917 64.2765C70.6936 64.2765 67.4525 67.5177 67.4525 71.5158C67.4525 75.5139 70.6936 78.755 74.6917 78.755Z" fill="var(--fill-0, #FDF3E2)" stroke="var(--stroke-0, #272727)" stroke-width="3.24138" stroke-miterlimit="10"/>
<path id="Vector_4" d="M93.6755 111.868L76.0378 130.64C74.7295 132.025 72.52 132.026 71.2214 130.63L53.167 111.238C52.1979 110.201 52.0041 108.651 52.6921 107.401L64.8059 85.3535C67.4322 87.3014 70.6787 88.4546 74.1868 88.4546C77.4527 88.4546 80.486 87.4564 83.0057 85.7508L94.2182 108.137C94.8384 109.378 94.6155 110.86 93.6755 111.868Z" fill="var(--fill-0, #BAE8E5)" stroke="var(--stroke-0, #272727)" stroke-width="3.24138" stroke-miterlimit="10"/>
<path id="Vector_5" d="M34.3372 90.4972L15.5657 72.8595C14.1799 71.5512 14.1799 69.3416 15.5754 68.043L34.9671 49.9886C36.0041 49.0195 37.5546 48.8257 38.8048 49.5138L60.8519 61.6276C58.904 64.2538 57.7507 67.5003 57.7507 71.0085C57.7507 74.5166 58.7489 77.3077 60.4545 79.8273L38.0683 91.0399C36.8278 91.6601 35.3451 91.4372 34.3372 90.4972Z" fill="var(--fill-0, #BAE8E5)" stroke="var(--stroke-0, #272727)" stroke-width="3.24138" stroke-miterlimit="10"/>
<path id="Vector_6" d="M55.7076 31.1521L73.3452 12.3805C74.6535 10.9947 76.8631 10.9947 78.1617 12.3902L96.2161 31.782C97.1852 32.8189 97.379 34.3695 96.6909 35.6197L84.5771 57.6668C81.9508 55.7189 78.7044 54.5656 75.1962 54.5656C71.9303 54.5656 68.8971 55.5638 66.3774 57.2694L55.1649 34.8831C54.5446 33.6427 54.7675 32.16 55.7076 31.1521Z" fill="var(--fill-0, #BAE8E5)" stroke="var(--stroke-0, #272727)" stroke-width="3.24138" stroke-miterlimit="10"/>
<path id="Vector_7" d="M115.045 52.5185L133.817 70.1562C135.202 71.4645 135.202 73.6741 133.807 74.9727L114.415 93.0271C113.378 93.9962 111.828 94.19 110.577 93.5019L88.5304 81.3881C90.4783 78.7619 91.6315 75.5154 91.6315 72.0072C91.6315 68.7413 90.6333 65.708 88.9277 63.1884L111.314 51.9758C112.554 51.3556 114.037 51.5785 115.045 52.5185Z" fill="var(--fill-0, #BAE8E5)" stroke="var(--stroke-0, #272727)" stroke-width="3.24138" stroke-miterlimit="10"/>
<path id="Vector_8" d="M87.2034 81.3894L108.747 97.4377C109.628 98.0676 110.481 98.8235 111.266 99.686C115.385 104.241 116.151 110.269 112.962 113.147C109.774 116.025 103.862 114.659 99.7339 110.104C98.9684 109.251 98.3093 108.35 97.7763 107.429L83.9376 84.3257L87.2034 81.3894Z" fill="var(--fill-0, #FAC553)" stroke="var(--stroke-0, #272727)" stroke-width="3.24138" stroke-miterlimit="10"/>
<path id="Vector_9" d="M64.8174 84.0261L48.7691 105.569C48.1391 106.451 47.3832 107.304 46.5207 108.089C41.9659 112.208 35.9381 112.973 33.0599 109.785C30.1817 106.596 31.5481 100.685 36.1029 96.5566C36.9557 95.791 37.857 95.132 38.7776 94.599L61.8908 80.7505L64.8271 84.0164L64.8174 84.0261Z" fill="var(--fill-0, #FAC553)" stroke="var(--stroke-0, #272727)" stroke-width="3.24138" stroke-miterlimit="10"/>
<path id="Vector_10" d="M62.1796 61.6303L40.6365 45.582C39.7546 44.9521 38.9017 44.1962 38.1168 43.3337C33.9981 38.7789 33.2325 32.7511 36.4208 29.8728C39.6092 26.9946 45.5207 28.361 49.6491 32.9158C50.4147 33.7686 51.0737 34.6699 51.6067 35.5905L65.4455 58.694L62.1796 61.6303Z" fill="var(--fill-0, #FAC553)" stroke="var(--stroke-0, #272727)" stroke-width="3.24138" stroke-miterlimit="10"/>
<path id="Vector_11" d="M84.5672 59.0027L100.616 37.4595C101.246 36.5777 102.001 35.7248 102.864 34.9399C107.419 30.8212 113.447 30.0556 116.325 33.2439C119.203 36.4323 117.837 42.3438 113.282 46.4722C112.429 47.2378 111.528 47.8968 110.607 48.4298L87.4939 62.2783L84.5575 59.0124L84.5672 59.0027Z" fill="var(--fill-0, #FAC553)" stroke="var(--stroke-0, #272727)" stroke-width="3.24138" stroke-miterlimit="10"/>
</g>
</svg>
