<svg preserveAspectRatio="xMidYMid meet" overflow="hidden" style="display: block;" viewBox="0 0 379.807 379.801" fill="none" xmlns="http://www.w3.org/2000/svg">
<g id="Frame 1171276758">
<path id="Vector" d="M321.554 57.5665H56.9405V322.18H321.554V57.5665Z" fill="var(--fill-0, #BAE8E5)" stroke="var(--stroke-0, #272727)" stroke-width="6" stroke-miterlimit="10"/>
<path id="Vector_2" d="M221.385 186.942C221.385 193.687 219.089 199.893 215.232 204.845C214.3 206.046 213.295 207.159 212.183 208.181C211.429 208.899 210.622 209.58 209.779 210.208C204.882 213.922 198.783 216.11 192.199 216.11C185.616 216.11 179.714 213.975 174.852 210.388C172.718 208.809 170.816 206.961 169.202 204.88C168.915 204.504 168.628 204.145 168.359 203.75C165.004 198.997 163.013 193.184 163.013 186.942C163.013 180.699 165.112 174.51 168.682 169.685C168.807 169.505 168.933 169.344 169.058 169.164C170.727 167.012 172.682 165.092 174.87 163.478C175.265 163.191 175.66 162.904 176.072 162.635C180.7 159.549 186.243 157.755 192.199 157.755C198.926 157.755 205.133 160.052 210.066 163.89C210.228 164.016 210.371 164.124 210.515 164.249C212.56 165.9 214.371 167.837 215.914 169.972C219.34 174.761 221.367 180.609 221.367 186.942H221.385Z" stroke="var(--stroke-0, #272727)" stroke-width="6" stroke-miterlimit="10"/>
<path id="Vector_3" d="M192.199 200.347C199.6 200.347 205.599 194.347 205.599 186.947C205.599 179.546 199.6 173.546 192.199 173.546C184.798 173.546 178.799 179.546 178.799 186.947C178.799 194.347 184.798 200.347 192.199 200.347Z" fill="var(--fill-0, #FFB921)" stroke="var(--stroke-0, #272727)" stroke-width="6" stroke-miterlimit="10"/>
<g id="_x3C_Radial_Repeat_x3E_-17">
<path id="Vector_4" d="M227.339 261.642L194.691 296.389C192.269 298.954 188.179 298.954 185.775 296.371L152.356 260.476C150.562 258.556 150.203 255.686 151.477 253.372L173.9 212.562C178.761 216.167 184.771 218.302 191.265 218.302C197.31 218.302 202.925 216.454 207.589 213.297L228.344 254.735C229.492 257.032 229.079 259.776 227.339 261.642Z" fill="var(--fill-0, #FDF3E2)" stroke="var(--stroke-0, #272727)" stroke-width="6" stroke-miterlimit="10"/>
</g>
<g id="_x3C_Radial_Repeat_x3E_-18">
<path id="Vector_5" d="M117.5 222.083L82.7531 189.435C80.1879 187.013 80.1879 182.923 82.7711 180.519L118.666 147.099C120.586 145.305 123.456 144.947 125.77 146.22L166.581 168.644C162.975 173.505 160.84 179.515 160.84 186.008C160.84 192.502 162.688 197.669 165.845 202.333L124.407 223.088C122.111 224.236 119.366 223.823 117.5 222.083Z" fill="var(--fill-0, #FDF3E2)" stroke="var(--stroke-0, #272727)" stroke-width="6" stroke-miterlimit="10"/>
</g>
<g id="_x3C_Radial_Repeat_x3E_-19">
<path id="Vector_6" d="M157.058 112.232L189.706 77.4845C192.128 74.9192 196.218 74.9192 198.622 77.5024L232.042 113.398C233.836 115.317 234.194 118.187 232.921 120.502L210.497 161.312C205.636 157.706 199.626 155.572 193.133 155.572C187.087 155.572 181.473 157.419 176.808 160.577L156.053 119.138C154.905 116.842 155.318 114.097 157.058 112.232Z" fill="var(--fill-0, #FDF3E2)" stroke="var(--stroke-0, #272727)" stroke-width="6" stroke-miterlimit="10"/>
</g>
<g id="_x3C_Radial_Repeat_x3E_-20">
<path id="Vector_7" d="M266.895 151.782L301.642 184.431C304.207 186.853 304.207 190.943 301.624 193.346L265.729 226.766C263.809 228.56 260.939 228.919 258.625 227.645L217.815 205.222C221.42 200.36 223.555 194.351 223.555 187.857C223.555 181.812 221.707 176.197 218.55 171.533L259.989 150.778C262.285 149.63 265.029 150.042 266.895 151.782Z" fill="var(--fill-0, #FDF3E2)" stroke="var(--stroke-0, #272727)" stroke-width="6" stroke-miterlimit="10"/>
</g>
<g id="_x3C_Radial_Repeat_x3E_-21">
<path id="Vector_8" d="M215.359 205.224L255.237 234.93C256.869 236.096 258.448 237.496 259.901 239.092C267.525 247.523 268.942 258.681 263.04 264.009C257.138 269.337 246.196 266.808 238.554 258.376C237.137 256.798 235.917 255.129 234.93 253.425L209.314 210.659L215.359 205.224Z" fill="var(--fill-0, #256C39)" stroke="var(--stroke-0, #272727)" stroke-width="6" stroke-miterlimit="10"/>
</g>
<g id="_x3C_Radial_Repeat_x3E_-22">
<path id="Vector_9" d="M173.921 210.104L144.214 249.982C143.048 251.614 141.649 253.193 140.053 254.646C131.621 262.27 120.464 263.687 115.136 257.785C109.808 251.883 112.337 240.941 120.769 233.299C122.347 231.882 124.015 230.662 125.72 229.675L168.504 204.041L173.939 210.086L173.921 210.104Z" fill="var(--fill-0, #256C39)" stroke="var(--stroke-0, #272727)" stroke-width="6" stroke-miterlimit="10"/>
</g>
<g id="_x3C_Radial_Repeat_x3E_-23">
<path id="Vector_10" d="M169.039 168.648L129.161 138.942C127.529 137.776 125.95 136.377 124.497 134.78C116.873 126.349 115.456 115.191 121.358 109.863C127.26 104.536 138.202 107.065 145.844 115.496C147.261 117.075 148.481 118.743 149.468 120.447L175.084 163.213L169.039 168.648Z" fill="var(--fill-0, #256C39)" stroke="var(--stroke-0, #272727)" stroke-width="6" stroke-miterlimit="10"/>
</g>
<g id="_x3C_Radial_Repeat_x3E_-24">
<path id="Vector_11" d="M210.479 163.786L240.186 123.908C241.352 122.275 242.751 120.697 244.347 119.244C252.779 111.62 263.936 110.203 269.264 116.104C274.592 122.006 272.063 132.949 263.631 140.591C262.053 142.008 260.385 143.228 258.68 144.214L215.897 169.849L210.461 163.804L210.479 163.786Z" fill="var(--fill-0, #256C39)" stroke="var(--stroke-0, #272727)" stroke-width="6" stroke-miterlimit="10"/>
</g>
<path id="Vector_12" d="M376.789 2.96547H2.98196V376.772H376.789V2.96547Z" stroke="var(--stroke-0, #272727)" stroke-width="5.38158" stroke-miterlimit="10"/>
<path id="Vector_13" d="M57.5335 3H2.98196V57.5516H57.5335V3Z" fill="var(--fill-0, #BAE8E5)" stroke="var(--stroke-0, #272727)" stroke-width="5.38158" stroke-miterlimit="10"/>
<path id="Vector_14" d="M376.789 322.249H322.237V376.801H376.789V322.249Z" fill="var(--fill-0, #BAE8E5)" stroke="var(--stroke-0, #272727)" stroke-width="5.38158" stroke-miterlimit="10"/>
<path id="Vector_15" d="M349.514 366.039C358.634 366.039 366.027 358.646 366.027 349.526C366.027 340.406 358.634 333.013 349.514 333.013C340.394 333.013 333.001 340.406 333.001 349.526C333.001 358.646 340.394 366.039 349.514 366.039Z" fill="var(--fill-0, #FFB921)" stroke="var(--stroke-0, #272727)" stroke-width="6" stroke-miterlimit="10"/>
<path id="Vector_16" d="M57.4624 322.182H2.91081V376.734H57.4624V322.182Z" fill="var(--fill-0, #BAE8E5)" stroke="var(--stroke-0, #272727)" stroke-width="5.38158" stroke-miterlimit="10"/>
<path id="Vector_17" d="M376.789 3H322.237V57.5516H376.789V3Z" fill="var(--fill-0, #BAE8E5)" stroke="var(--stroke-0, #272727)" stroke-width="5.38158" stroke-miterlimit="10"/>
<path id="Vector_18" d="M349.514 46.8044C358.634 46.8044 366.027 39.4114 366.027 30.2918C366.027 21.1721 358.634 13.7792 349.514 13.7792C340.394 13.7792 333.001 21.1721 333.001 30.2918C333.001 39.4114 340.394 46.8044 349.514 46.8044Z" fill="var(--fill-0, #FFB921)" stroke="var(--stroke-0, #272727)" stroke-width="6" stroke-miterlimit="10"/>
<path id="Vector_19" d="M322.218 3H57.5327V57.5516H322.218V3Z" fill="var(--fill-0, #CB5A38)" stroke="var(--stroke-0, #272727)" stroke-width="6" stroke-miterlimit="10"/>
<path id="Vector_20" d="M57.5516 323.172L57.5516 58.4862H3L3 323.172H57.5516Z" fill="var(--fill-0, #CB5A38)" stroke="var(--stroke-0, #272727)" stroke-width="6" stroke-miterlimit="10"/>
<path id="Vector_21" d="M376.807 322.252V57.5665H322.255V322.252H376.807Z" fill="var(--fill-0, #CB5A38)" stroke="var(--stroke-0, #272727)" stroke-width="6" stroke-miterlimit="10"/>
<path id="Vector_22" d="M322.218 322.249H57.5327V376.801H322.218V322.249Z" fill="var(--fill-0, #CB5A38)" stroke="var(--stroke-0, #272727)" stroke-width="6" stroke-miterlimit="10"/>
<path id="Vector_23" d="M30.2755 46.7541C39.3952 46.7541 46.7881 39.3611 46.7881 30.2415C46.7881 21.1218 39.3952 13.7289 30.2755 13.7289C21.1559 13.7289 13.763 21.1218 13.763 30.2415C13.763 39.3611 21.1559 46.7541 30.2755 46.7541Z" fill="var(--fill-0, #FFB921)" stroke="var(--stroke-0, #272727)" stroke-width="6" stroke-miterlimit="10"/>
<path id="Vector_24" d="M30.2599 366.007C39.3795 366.007 46.7724 358.614 46.7724 349.495C46.7724 340.375 39.3795 332.982 30.2599 332.982C21.1402 332.982 13.7473 340.375 13.7473 349.495C13.7473 358.614 21.1402 366.007 30.2599 366.007Z" fill="var(--fill-0, #FFB921)" stroke="var(--stroke-0, #272727)" stroke-width="6" stroke-miterlimit="10"/>
</g>
</svg>
