<svg preserveAspectRatio="xMidYMid meet" width="238" height="80" overflow="hidden" style="display: block;" viewBox="0 0 266.556 89.8203" fill="none" xmlns="http://www.w3.org/2000/svg">
<g id="Vector">
<path d="M63.8325 4.79565L67.5785 0H50.0579L53.8378 4.79565V48.9087L50.0579 53.7044H67.5785L63.8325 48.9087V4.79565Z" fill="var(--fill-0, #272727)"/>
<path d="M255.089 53.288H234.857L263.587 0H224.665C224.514 1.34027 224.054 8.12208 223.667 14.7713L225.477 12.4954C225.477 12.4954 234.389 0.832619 235.483 0.832619H252.795C252.134 2.85192 251.071 4.78918 250.092 6.66985C243.164 19.9841 235.793 33.9555 228.255 46.9068C212.191 74.5057 192.554 90.547 158.71 88.6918C132.179 87.2375 112.8 69.8584 102.594 46.4169C107.282 33.8771 110.907 20.8393 115.863 8.40865C115.97 8.14067 116.102 7.90423 116.241 7.73124V48.9087L112.461 53.7044H129.982L126.236 48.9087V4.79565L129.982 0H112.461L116.196 4.79565L102.199 45.3774L82.3875 0H71.3048L75.0876 8.11763C75.0876 19.6462 75.0965 45.2367 75.0965 45.2367L67.9953 53.7044H83.0128L75.9214 45.2367V9.57512C76.5434 9.59169 76.7136 10.7456 76.9412 11.263C89.1245 38.9318 95.4702 69.5569 126.116 82.9188C146.07 91.6189 174.947 91.865 195.451 84.9437C211.604 79.4909 225.62 68.4247 234.231 53.7048H265.726L266.556 38.7176L255.089 53.288Z" fill="var(--fill-0, #272727)"/>
<path d="M161.021 53.7045H177.29L173.048 48.1547L160.591 23.5387C164.549 21.101 170.684 18.741 171.413 13.4943C172.485 5.77759 166.877 0.000579562 159.561 0.000579562H133.489L137.269 4.79622V48.9089L133.489 53.7045H151.009L147.263 48.9089V37.8718C147.699 34.233 152.045 29.9037 152.045 29.9037L162.924 49.9517C163.765 51.7592 161.684 52.395 161.021 53.7045ZM148.21 32.3632C147.942 32.708 147.816 33.024 147.263 32.8903L147.254 1.45726C150.67 1.24223 161.838 0.867556 161.387 14.3123C161.038 24.7043 153.689 25.313 148.21 32.3632Z" fill="var(--fill-0, #272727)"/>
<path d="M215.865 8.46766L222.956 0H207.939L215.04 8.46766C215.04 8.46766 215.335 31.9128 214.779 37.6223C213.799 47.682 203.886 55.7479 195.542 50.5412C194.35 49.7975 193.191 48.7826 192.093 47.4646C190.599 45.6688 189.281 43.4692 188.717 40.8509C188.154 38.2326 188.143 4.79645 188.143 4.79565L191.889 0H174.369L178.149 4.79565C178.149 4.79565 177.392 35.0537 178.575 39.6036C178.792 40.4346 180.227 46.9751 187.751 51.3807C198.796 57.8477 212.397 52.7214 215.056 39.9807C215.899 35.9405 215.98 31.4548 215.864 26.8811L215.865 8.46766Z" fill="var(--fill-0, #272727)"/>
<path d="M40.8772 27.1749H40.8812V8.46766L47.9726 0H32.9552L40.0563 8.46766C40.0563 8.46766 40.0563 8.49555 40.0563 8.5485L40.047 8.53435V29.9743C39.4827 30.0018 39.0935 29.4408 39.0935 29.4408C39.0931 29.4412 14.3918 0 14.3918 0H1.10423L5.86229 5.59836L5.84935 45.2371L0 53.7044H13.7661C12.8062 52.6216 6.67429 45.2367 6.67429 45.2367V6.66096L39.8574 45.2549C39.0911 46.2472 33.8597 53.0261 33.3723 53.704H47.9726L40.901 45.2363C40.901 39.5264 40.8889 33.342 40.8772 27.1749Z" fill="var(--fill-0, #272727)"/>
</g>
</svg>
