<svg preserveAspectRatio="xMidYMid meet" width="343" height="40" overflow="hidden" style="display: block;" viewBox="0 0 414.019 48.2589" fill="none" xmlns="http://www.w3.org/2000/svg">
<g id="Vector">
<path d="M386.677 9.25866V45.4471C386.677 45.6986 386.472 45.9043 386.22 45.9043H382.151C381.9 45.9043 381.694 45.6986 381.694 45.4471V1.09739C381.694 0.845922 381.9 0.640176 382.151 0.640176H388.209C388.369 0.640176 388.529 0.731619 388.598 0.868783L408.189 36.7829C408.418 37.1944 409.035 37.0344 409.035 36.5543V1.09739C409.035 0.845922 409.241 0.640176 409.492 0.640176H413.562C413.813 0.640176 414.019 0.845922 414.019 1.09739V45.47C414.019 45.7215 413.813 45.9272 413.562 45.9272H408.075C407.915 45.9272 407.755 45.8358 407.686 45.6986L387.523 9.05291C387.295 8.64142 386.677 8.80144 386.677 9.28152V9.25866Z" fill="var(--fill-0, black)"/>
<path d="M370.514 1.02852C370.514 0.822771 370.674 0.662746 370.88 0.662746H375.361C375.567 0.662746 375.727 0.822771 375.727 1.02852V45.5611C375.727 45.7669 375.567 45.9269 375.361 45.9269H370.88C370.674 45.9269 370.514 45.7669 370.514 45.5611V1.02852Z" fill="var(--fill-0, black)"/>
<path d="M364.182 45.904H359.702C359.496 45.904 359.336 45.744 359.336 45.5383V25.398C359.336 25.1923 359.176 25.0322 358.97 25.0322H339.15C338.944 25.0322 338.784 25.1923 338.784 25.398V45.5383C338.784 45.744 338.624 45.904 338.418 45.904H333.915C333.709 45.904 333.549 45.744 333.549 45.5383V1.02852C333.549 0.822771 333.709 0.662746 333.915 0.662746H338.418C338.624 0.662746 338.784 0.822771 338.784 1.02852V20.2772C338.784 20.483 338.944 20.643 339.15 20.643H358.97C359.176 20.643 359.336 20.483 359.336 20.2772V1.02852C359.336 0.822771 359.496 0.662746 359.702 0.662746H364.182C364.388 0.662746 364.548 0.822771 364.548 1.02852V45.5611C364.548 45.7669 364.388 45.9269 364.182 45.9269V45.904Z" fill="var(--fill-0, black)"/>
<path d="M298.572 0.640176H329.342C329.548 0.640176 329.708 0.800201 329.708 1.00595V4.73224C329.708 4.93798 329.548 5.09801 329.342 5.09801H316.952C316.746 5.09801 316.586 5.25803 316.586 5.46378V45.5157C316.586 45.7214 316.426 45.8815 316.22 45.8815H311.717C311.511 45.8815 311.351 45.7214 311.351 45.5157V5.48664C311.351 5.2809 311.191 5.12087 310.985 5.12087H298.595C298.389 5.12087 298.229 4.96085 298.229 4.7551V1.02881C298.229 0.823062 298.389 0.663037 298.595 0.663037L298.572 0.640176Z" fill="var(--fill-0, black)"/>
<path d="M288.491 1.02852C288.491 0.822771 288.651 0.662746 288.857 0.662746H293.337C293.543 0.662746 293.703 0.822771 293.703 1.02852V45.5611C293.703 45.7669 293.543 45.9269 293.337 45.9269H288.857C288.651 45.9269 288.491 45.7669 288.491 45.5611V1.02852Z" fill="var(--fill-0, black)"/>
<path d="M253.171 0.640176H258.794C259.023 0.640176 259.229 0.800201 259.274 1.00595L269.539 38.7261C269.676 39.229 270.408 39.229 270.545 38.7261L279.46 1.02881C279.506 0.800201 279.712 0.640176 279.941 0.640176H284.147C284.467 0.640176 284.718 0.937365 284.627 1.25741L273.7 45.47C273.631 45.7214 273.402 45.9043 273.128 45.9043H267.299C267.047 45.9043 266.819 45.7214 266.75 45.47L256.44 7.93273C256.303 7.4298 255.594 7.4298 255.457 7.93273L245.329 45.4471C245.261 45.6986 245.032 45.8815 244.781 45.8815H239.02C238.746 45.8815 238.517 45.6986 238.448 45.4471L227.338 1.28028C227.27 0.960226 227.498 0.663037 227.818 0.663037H232.345C232.573 0.663037 232.779 0.823062 232.825 1.05167L241.557 38.7032C241.672 39.229 242.403 39.229 242.563 38.7032L252.691 1.00595C252.759 0.77734 252.942 0.640176 253.171 0.640176Z" fill="var(--fill-0, black)"/>
<path d="M212.799 23.2722C212.799 36.7142 204.455 45.9042 189.573 45.9042H174.439C174.279 45.9042 174.142 45.7671 174.142 45.607V0.960131C174.142 0.800106 174.279 0.662942 174.439 0.662942H189.573C204.455 0.662942 212.799 9.85294 212.799 23.295V23.2722ZM207.541 23.2722C207.541 11.0417 200.432 4.96075 188.658 4.96075H179.674C179.514 4.96075 179.377 5.09791 179.377 5.25794V41.2407C179.377 41.4007 179.514 41.5378 179.674 41.5378H188.658C200.432 41.5378 207.541 35.4569 207.541 23.2264V23.2722Z" fill="var(--fill-0, black)"/>
<path d="M169.981 45.9042H145.2C145.063 45.9042 144.949 45.7899 144.949 45.6528V0.914409C144.949 0.777245 145.063 0.662942 145.2 0.662942H149.932C150.07 0.662942 150.184 0.777245 150.184 0.914409V41.1949C150.184 41.3321 150.298 41.4464 150.435 41.4464H169.958C170.096 41.4464 170.21 41.5607 170.21 41.6979V45.6528C170.21 45.7899 170.096 45.9042 169.958 45.9042H169.981Z" fill="var(--fill-0, black)"/>
<path d="M136.033 45.7902L124.351 26.2672C124.351 26.2672 124.214 26.13 124.123 26.13H114.933C114.773 26.13 114.658 26.2443 114.658 26.4044V45.6302C114.658 45.7902 114.544 45.9045 114.384 45.9045H109.697C109.537 45.9045 109.423 45.7902 109.423 45.6302V0.9147C109.423 0.754675 109.537 0.640372 109.697 0.640372H124.603C134.181 0.640372 139.736 5.55542 139.736 13.1909C139.736 17.5116 137.542 23.4096 129.701 25.3985C129.518 25.4442 129.426 25.65 129.518 25.81L141.725 45.5159C141.84 45.6988 141.725 45.9503 141.497 45.9503H136.262C136.262 45.9503 136.079 45.9045 136.033 45.8131V45.7902ZM134.501 13.3966C134.501 7.77291 130.364 5.12107 124.351 5.12107H114.933C114.773 5.12107 114.658 5.23537 114.658 5.39539V21.3979C114.658 21.5579 114.773 21.6722 114.933 21.6722H124.351C130.364 21.6722 134.501 18.7689 134.501 13.3966Z" fill="var(--fill-0, black)"/>
<path d="M25.8676 0.640372H31.4914C31.72 0.640372 31.9257 0.800397 31.9714 1.00614L42.2359 38.7263C42.373 39.2292 43.1046 39.2292 43.2418 38.7263L52.1574 1.029C52.2031 0.800397 52.4089 0.640372 52.6375 0.640372H56.8439C57.1639 0.640372 57.4154 0.937561 57.3239 1.25761L46.3965 45.4702C46.3279 45.7216 46.0993 45.9045 45.825 45.9045H39.9955C39.7441 45.9045 39.5155 45.7216 39.4469 45.4702L29.1367 7.95579C28.9996 7.45286 28.2909 7.45286 28.1537 7.95579L18.0264 45.4702C17.9578 45.7216 17.7292 45.9045 17.4778 45.9045H11.7169C11.4425 45.9045 11.2139 45.7216 11.1454 45.4702L0.0122066 1.28047C-0.0563754 0.960421 0.172231 0.663232 0.492281 0.663232H5.0187C5.2473 0.663232 5.45305 0.823257 5.49877 1.05186L14.2316 38.7034C14.3459 39.2292 15.0774 39.2292 15.2374 38.7034L25.3876 1.00614C25.4561 0.777536 25.639 0.640372 25.8676 0.640372Z" fill="var(--fill-0, black)"/>
<path d="M81.1675 48.2589C67.8626 48.2589 57.0266 37.4458 57.0266 24.1409C57.0266 10.836 67.8626 0 81.1675 0C94.4724 0 105.308 10.8131 105.308 24.1409C105.308 37.4687 94.4724 48.2589 81.1675 48.2589ZM81.1675 4.00062C70.0801 4.00062 61.0501 13.0306 61.0501 24.118C61.0501 35.2055 70.0801 44.2354 81.1675 44.2354C92.2549 44.2354 101.285 35.2055 101.285 24.118C101.285 13.0306 92.2549 4.00062 81.1675 4.00062Z" fill="var(--fill-0, black)"/>
<path d="M81.1679 42.2467C71.1777 42.2467 63.0393 34.1311 63.0393 24.141C63.0393 14.1509 71.1777 6.0125 81.1679 6.0125C91.158 6.0125 99.2964 14.1509 99.2964 24.141C99.2964 34.1311 91.158 42.2467 81.1679 42.2467ZM81.1679 10.0131C73.3952 10.0131 67.0628 16.3455 67.0628 24.1182C67.0628 31.8908 73.3952 38.2232 81.1679 38.2232C88.9405 38.2232 95.2729 31.8908 95.2729 24.1182C95.2729 16.3455 88.9405 10.0131 81.1679 10.0131Z" fill="var(--fill-0, black)"/>
</g>
</svg>
