<svg preserveAspectRatio="xMidYMid meet" width="24" height="24" overflow="visible" style="display: block;" viewBox="0 0 24 24" fill="none" xmlns="http://www.w3.org/2000/svg">
<g id="lsicon:measure-outline">
<path id="Vector" d="M6.85241 13.4333L9.36954 15.9505M9.36954 10.9162L11.8867 13.4333M14.4038 5.88197L16.9209 8.3991M11.8867 8.3991L14.4038 10.9162M18.3104 3.10139L21.8696 6.6606C22.0269 6.81795 22.1152 7.03132 22.1152 7.25381C22.1152 7.47629 22.0269 7.68966 21.8696 7.84701L8.81745 20.8991C8.66011 21.0564 8.44673 21.1448 8.22425 21.1448C8.00176 21.1448 7.78839 21.0564 7.63104 20.8991L4.07183 17.3399C3.91454 17.1826 3.82617 16.9692 3.82617 16.7467C3.82617 16.5242 3.91454 16.3109 4.07183 16.1535L17.124 3.10139C17.2813 2.94409 17.4947 2.85573 17.7172 2.85573C17.9396 2.85573 18.153 2.94409 18.3104 3.10139Z" stroke="var(--stroke-0, black)" stroke-width="1.67808"/>
</g>
</svg>
