<svg preserveAspectRatio="xMidYMid meet" width="17.7767" height="19.3894" overflow="visible" style="display: block;" viewBox="0 0 17.7767 19.3894" fill="none" xmlns="http://www.w3.org/2000/svg">
<g id="Group">
<g id="Vector">
</g>
<path id="Vector_2" d="M8.88835 0C13.7974 0 17.7767 3.97931 17.7767 8.88835C17.7767 13.7974 13.7974 17.7767 8.88835 17.7767C3.97931 17.7767 0 13.7974 0 8.88835C0 3.97931 3.97931 0 8.88835 0ZM8.88835 3.55534C8.65261 3.55534 8.42653 3.64898 8.25985 3.81567C8.09316 3.98236 7.99951 4.20844 7.99951 4.44417V8.88835C7.99956 9.12406 8.09324 9.3501 8.25994 9.51675L10.9264 12.1833C11.0941 12.3452 11.3186 12.4348 11.5517 12.4327C11.7847 12.4307 12.0076 12.3372 12.1724 12.1724C12.3372 12.0076 12.4307 11.7847 12.4327 11.5517C12.4348 11.3186 12.3452 11.0941 12.1833 10.9264L9.77718 8.52037V4.44417C9.77718 4.20844 9.68354 3.98236 9.51685 3.81567C9.35016 3.64898 9.12408 3.55534 8.88835 3.55534Z" fill="var(--fill-0, black)"/>
</g>
</svg>
