<svg preserveAspectRatio="xMidYMid meet" width="588.824" height="588.751" overflow="hidden" style="display: block;" viewBox="0 0 588.824 588.751" fill="none" xmlns="http://www.w3.org/2000/svg">
<path id="Union" d="M432.439 166.987L432.438 166.988C432.438 166.988 432.44 166.987 432.442 166.986L432.439 166.987ZM432.439 166.987L426.472 168.929L428.752 163.039C428.757 163.026 428.762 163.013 428.767 163.001C429.934 159.991 430.887 156.849 431.556 153.646L431.562 153.613L431.57 153.58C432.522 149.492 433.022 145.199 433.129 140.805L433.144 139.999C433.239 131.276 431.609 122.937 428.547 115.265L428.542 115.252C419.298 91.787 396.898 74.8308 370.199 73.6221L367.259 73.4893L367.336 70.5459C367.563 61.9605 363.892 53.4434 357.872 45.3359C351.863 37.2422 343.687 29.7969 335.361 23.4365C327.052 17.0887 318.695 11.8975 312.404 8.29004C309.263 6.48848 306.645 5.08675 304.818 4.1377C304.174 3.80308 303.628 3.52507 303.192 3.30566C298.951 5.17672 284.491 11.8377 269.979 21.792C261.343 27.7161 252.804 34.7295 246.393 42.499C239.97 50.2816 235.87 58.5921 235.652 67.1699L235.578 70.0938H232.653C232.355 70.0937 232.078 70.0812 231.873 70.0723C231.651 70.0626 231.5 70.0566 231.353 70.0566H231.312L231.273 70.0557C197.645 69.167 169.274 93.6597 164.476 126.077L164.474 126.09L164.472 126.102C164.012 129.039 163.763 132.055 163.728 135.15V135.159C163.628 142.082 164.651 148.786 166.622 155.098L167.029 156.354L167.035 156.374C167.213 156.917 167.398 157.458 167.59 157.996L169.815 164.249L163.651 161.788C156.568 158.961 148.886 157.33 140.85 157.155L140.011 157.143C104.552 156.812 75.2112 184.666 73.6592 220.081L73.5332 222.949H70.5869L70.5488 222.948C61.9628 222.73 53.4449 226.408 45.3369 232.433C37.2427 238.447 29.797 246.627 23.4365 254.955C17.0887 263.267 11.8975 271.625 8.29004 277.916C6.48838 281.058 5.08678 283.676 4.1377 285.503C3.80356 286.146 3.5259 286.692 3.30664 287.127C4.06458 288.845 5.60782 292.243 7.84082 296.644C11.1268 303.119 15.8846 311.73 21.7969 320.349C27.7207 328.984 34.7333 337.521 42.502 343.931C50.2837 350.351 58.5931 354.451 67.1699 354.669L70.0938 354.743V357.668C70.0937 357.966 70.0812 358.243 70.0723 358.448C70.0626 358.671 70.0566 358.821 70.0566 358.969V359.008L70.0557 359.047C69.0959 395.734 98.3533 426.167 135.151 426.594H135.152C142.262 426.679 149.135 425.615 155.596 423.574L161.298 421.773L159.332 427.421C157.096 433.847 155.816 440.731 155.66 447.9C154.878 483.843 182.889 513.527 218.585 515.092L221.454 515.218V518.164L221.453 518.202C221.235 526.788 224.912 535.306 230.938 543.414C236.952 551.508 245.132 558.954 253.46 565.314C261.771 571.662 270.13 576.853 276.421 580.461C279.563 582.263 282.181 583.664 284.008 584.613C284.651 584.948 285.198 585.225 285.633 585.444C286.084 585.245 286.652 584.993 287.322 584.688C289.202 583.83 291.892 582.562 295.125 580.922C301.598 577.638 310.211 572.881 318.833 566.968C327.471 561.043 336.013 554.03 342.428 546.259C348.853 538.474 352.956 530.161 353.174 521.581L353.248 518.657H356.173C356.471 518.657 356.748 518.67 356.953 518.679C357.176 518.688 357.326 518.694 357.474 518.694H357.513L357.552 518.695C394.239 519.655 424.672 490.397 425.099 453.599V453.598C425.187 446.225 424.038 439.107 421.848 432.439L419.854 426.368L425.799 428.712C428.825 429.905 431.96 430.855 435.203 431.561L437.565 432.074V432.078C440.934 432.696 444.386 433.042 447.945 433.129H447.944C456.909 433.305 465.467 431.703 473.271 428.617L473.285 428.612L474.387 428.171C497.428 418.699 514.01 396.511 515.165 370.167L515.294 367.221L518.241 367.299C526.827 367.525 535.344 363.855 543.451 357.835C551.545 351.825 558.99 343.65 565.351 335.324C571.698 327.015 576.89 318.657 580.497 312.367C582.299 309.226 583.7 306.608 584.649 304.781C584.994 304.118 585.278 303.558 585.5 303.116C583.603 298.82 576.944 284.385 567.011 269.906C561.09 261.276 554.084 252.746 546.324 246.343C538.559 239.934 530.27 235.842 521.717 235.617H518.471L518.742 232.368C518.767 232.065 518.769 231.777 518.769 231.315V231.276L518.77 231.236C519.622 198.748 496.766 171.122 465.872 164.972V164.971C461.912 164.186 457.825 163.726 453.683 163.69H453.679C446.312 163.619 439.17 164.758 432.535 166.958L432.526 166.961L432.519 166.963C432.495 166.97 432.476 166.977 432.463 166.981C432.457 166.983 432.452 166.984 432.447 166.985C432.445 166.986 432.444 166.987 432.442 166.987H432.439ZM434.267 165.395C434.266 165.396 434.266 165.397 434.266 165.398C434.256 165.419 434.248 165.435 434.243 165.444C434.241 165.449 434.238 165.453 434.237 165.455L434.236 165.456C434.237 165.455 434.238 165.455 434.238 165.454C434.24 165.451 434.242 165.447 434.244 165.441C434.249 165.431 434.257 165.415 434.267 165.395Z" fill="var(--fill-0, #FFB921)" stroke="var(--stroke-0, #272727)" stroke-width="6"/>
</svg>
