<svg preserveAspectRatio="xMidYMid meet" width="310.664" height="94.7787" overflow="hidden" style="display: block;" viewBox="0 0 310.664 94.7787" fill="none" xmlns="http://www.w3.org/2000/svg">
<g id="Layer_1" clip-path="url(#clip0_0_9)">
<path id="Vector" d="M104.371 2.87066H98.1692C97.3694 2.87066 96.7297 3.51202 96.7297 4.31372V26.3694C78.3895 21.8442 75.0129 5.36484 74.6397 3.12008C74.6219 2.97756 74.4798 2.87066 74.3376 2.87066H66.3049C65.5051 2.87066 64.8654 3.51202 64.8654 4.31372V41.3522C64.8654 42.1539 65.5051 42.7953 66.3049 42.7953H72.5071C73.3068 42.7953 73.9466 42.1539 73.9466 41.3522V22.3252C78.7271 28.1687 85.9601 33.8163 96.7297 36.2036V42.2252C96.7297 42.5459 96.9785 42.7953 97.2984 42.7953H104.371C105.171 42.7953 105.811 42.1539 105.811 41.3522V4.31372C105.811 3.51202 105.171 2.87066 104.371 2.87066Z" fill="var(--fill-0, #272727)"/>
<path id="Vector_2" d="M264.902 54.178H258.7C257.9 54.178 257.26 54.8193 257.26 55.621V77.6767C238.92 73.1515 235.543 56.6722 235.17 54.4274C235.152 54.2849 235.01 54.178 234.868 54.178H226.835C226.036 54.178 225.396 54.8193 225.396 55.621V92.6596C225.396 93.4613 226.036 94.1026 226.835 94.1026H233.038C233.837 94.1026 234.477 93.4613 234.477 92.6596V73.6326C239.258 79.4761 246.491 85.1236 257.26 87.5109V93.5325C257.26 93.8532 257.509 94.1026 257.829 94.1026H264.902C265.702 94.1026 266.341 93.4613 266.341 92.6596V55.621C266.341 54.8193 265.702 54.178 264.902 54.178Z" fill="var(--fill-0, #272727)"/>
<path id="Vector_3" d="M171.976 22.9663C173.362 25.8346 174.571 29.558 174.571 29.558H174.962C174.962 29.558 176.152 25.8346 177.556 22.9663L186.78 3.72549C187.171 2.92379 187.384 2.85252 188.166 2.85252H196.128C196.518 2.85252 196.661 3.0485 196.661 3.24447C196.661 3.44044 196.465 3.8502 196.27 4.24214L178.036 42.4565C177.947 42.6525 177.734 42.7772 177.521 42.7772H171.994C171.781 42.7772 171.567 42.6525 171.478 42.4565L153.245 4.24214C153.049 3.8502 152.854 3.44044 152.854 3.24447C152.854 3.0485 152.978 2.85252 153.387 2.85252H161.349C162.148 2.85252 162.344 2.92379 162.735 3.72549L171.958 22.9663H171.976Z" fill="var(--fill-0, #272727)"/>
<path id="Vector_4" d="M42.9539 76.1454C42.9539 86.3893 35.7209 94.7804 21.9658 94.7804C9.95227 94.7804 -0.0175447 86.7991 -0.0175447 74.15C-0.0175447 61.501 9.54352 53.5196 21.9658 53.5196C35.7032 53.5196 41.4789 61.9642 41.6211 67.8968C41.6211 68.2887 41.3545 68.7697 40.5548 68.7697H33.7128C33.3218 68.7697 32.842 68.645 32.7176 68.1106C31.9889 64.9216 28.8611 61.1269 21.9658 61.1269C15.0705 61.1269 9.01038 66.525 9.01038 74.1678C9.01038 82.6124 15.1238 87.2088 21.9658 87.2088C28.8078 87.2088 32.9308 84.0198 33.6239 80.4389C33.695 80.0826 33.4106 79.7619 33.0552 79.7619H19.6022C18.7847 79.7619 18.0916 79.0849 18.0916 78.2476V74.346C18.0916 73.5265 18.7669 72.8317 19.6022 72.8317H42.3675C42.6874 72.8317 42.9362 73.0811 42.9362 73.4018V76.1632L42.9539 76.1454Z" fill="var(--fill-0, #272727)"/>
<path id="Vector_5" d="M121.451 80.1352C126.747 78.2646 130.408 74.2205 130.408 68.1632C130.408 59.4336 123.495 54.178 113.81 54.178H95.9138C95.1674 54.178 94.5454 54.8015 94.5454 55.5498V92.7486C94.5454 93.4969 95.1674 94.1204 95.9138 94.1204H102.205C102.969 94.1204 103.573 93.5147 103.573 92.7486V82.184C103.573 81.8633 103.84 81.5961 104.16 81.5961H108.656C114.396 87.9206 121.611 92.0538 130.124 93.8888C130.87 94.0492 131.617 93.5503 131.759 92.7843L133.003 86.1034C133.145 85.373 132.665 84.6782 131.937 84.5178C128.062 83.6627 124.561 82.184 121.451 80.1352ZM103.573 73.8285V62.3375C103.573 62.0168 103.822 61.7674 104.142 61.7674H113.205C118.181 61.7674 121.38 64.2259 121.38 68.1632C121.38 72.1004 118.181 74.4164 113.205 74.4164H104.16C103.84 74.4164 103.573 74.1492 103.573 73.8285Z" fill="var(--fill-0, #272727)"/>
<path id="Vector_6" d="M139.205 94.1208C138.459 94.1208 137.837 93.4972 137.837 92.749V55.5679C137.837 54.8197 138.459 54.1961 139.205 54.1961H155.431C168.048 54.1961 177.467 61.9815 177.467 74.1673C177.467 86.3532 169.506 94.1386 155.555 94.1386H139.205V94.1208ZM146.865 62.3378V85.9434C146.865 86.2641 147.114 86.5135 147.433 86.5135H155.555C162.273 86.5135 166.467 83.4671 167.888 78.3896C170.234 70.0163 163.694 61.7499 155.004 61.7499H147.433C147.114 61.7499 146.865 61.9993 146.865 62.32V62.3378Z" fill="var(--fill-0, #272727)"/>
<path id="Vector_7" d="M193.888 78.0515V85.9616C193.888 86.2822 194.137 86.5317 194.457 86.5317H216.689C217.507 86.5317 218.2 87.2086 218.2 88.046V92.6246C218.2 93.4441 217.525 94.1389 216.689 94.1389H186.229C185.483 94.1389 184.861 93.5153 184.861 92.7671V55.5861C184.861 54.8378 185.483 54.2143 186.229 54.2143H216.281C217.098 54.2143 217.791 54.8912 217.791 55.7286V60.3072C217.791 61.1267 217.116 61.8215 216.281 61.8215H194.457C194.137 61.8215 193.888 62.0709 193.888 62.3916V69.3575C193.888 69.6781 194.137 69.9276 194.457 69.9276H214.29C215.108 69.9276 215.801 70.6046 215.801 71.4419V76.0205C215.801 76.84 215.125 77.5348 214.29 77.5348H194.457C194.137 77.5348 193.888 77.7842 193.888 78.1049V78.0515Z" fill="var(--fill-0, #272727)"/>
<path id="Vector_8" d="M281.251 80.6702C282.051 80.6702 282.442 81.0087 282.584 81.6679C283.242 85.0706 286.103 87.1907 292.412 87.1907C298.721 87.1907 301.635 84.8034 301.635 81.9351C301.635 80.0645 300.302 78.4076 296.321 78.0691L285.961 77.1962C277.857 76.537 273.538 72.7957 273.538 66.8097C273.538 59.8795 279.581 53.5015 291.328 53.5015C303.075 53.5015 308.797 59.1668 308.797 65.5448C308.797 66.1505 308.335 66.685 307.535 66.685H300.96C300.302 66.685 299.894 66.489 299.769 65.6873C299.378 63.3535 297.121 61.0909 291.274 61.0909C285.428 61.0909 282.584 63.3535 282.584 66.2752C282.584 68.0746 283.775 69.4108 287.436 69.678L297.725 70.551C307.02 71.3527 310.681 76.0025 310.681 81.5253C310.681 87.7786 305.296 94.7623 292.43 94.7623C280.274 94.7623 273.574 88.9722 273.574 82.3805V81.846C273.574 81.1868 274.107 80.6524 274.836 80.6524H281.269L281.251 80.6702Z" fill="var(--fill-0, #272727)"/>
<path id="Vector_9" d="M132.114 0.0549127C129.91 0.910059 114.129 7.28802 111.907 16.0176C111.907 16.0711 111.89 16.1424 111.89 16.2136V42.0818C111.89 42.4737 112.21 42.7944 112.601 42.7944H119.336C119.727 42.7944 120.047 42.4737 120.047 42.0818V28.6132C120.047 28.2213 120.367 27.9006 120.758 27.9006H143.612C144.003 27.9006 144.323 28.2213 144.323 28.6132V42.0818C144.323 42.4737 144.643 42.7944 145.034 42.7944H152.089C152.48 42.7944 152.8 42.4737 152.8 42.0818V16.2136C152.8 16.2136 152.8 16.0889 152.782 16.0176C150.632 7.27021 134.85 0.910059 132.629 0.0549127C132.469 -0.0163495 132.274 -0.0163495 132.114 0.0549127ZM120.242 18.975C122.162 13.185 132.22 9.12303 132.22 9.12303C132.22 9.12303 142.279 13.1672 144.181 18.975H120.242Z" fill="var(--fill-0, #272727)"/>
<path id="Vector_10" d="M216.901 0.0549127C214.698 0.910059 198.916 7.28802 196.695 16.0176C196.695 16.0711 196.677 16.1424 196.677 16.2136V42.0818C196.677 42.4737 196.997 42.7944 197.388 42.7944H204.123C204.514 42.7944 204.834 42.4737 204.834 42.0818V28.6132C204.834 28.2213 205.154 27.9006 205.545 27.9006H228.399C228.79 27.9006 229.11 28.2213 229.11 28.6132V42.0818C229.11 42.4737 229.43 42.7944 229.821 42.7944H236.876C237.267 42.7944 237.587 42.4737 237.587 42.0818V16.2136C237.587 16.2136 237.587 16.0889 237.569 16.0176C235.366 7.28802 219.585 0.910059 217.363 0.0549127C217.203 -0.0163495 217.008 -0.0163495 216.848 0.0549127H216.901ZM205.03 18.975C206.949 13.185 217.008 9.12303 217.008 9.12303C217.008 9.12303 227.066 13.1672 228.968 18.975H205.03Z" fill="var(--fill-0, #272727)"/>
<path id="Vector_11" d="M68.493 51.3622C66.2894 52.2174 50.5083 58.5953 48.2868 67.325C48.2868 67.3784 48.2691 67.4497 48.2691 67.5209V93.3891C48.2691 93.781 48.5889 94.1017 48.9799 94.1017H55.7153C56.1063 94.1017 56.4262 93.781 56.4262 93.3891V79.9205C56.4262 79.5286 56.7461 79.2079 57.137 79.2079H79.9912C80.3821 79.2079 80.702 79.5286 80.702 79.9205V93.3891C80.702 93.781 81.0219 94.1017 81.4129 94.1017H88.4682C88.8591 94.1017 89.179 93.781 89.179 93.3891V67.5209C89.179 67.5209 89.179 67.3962 89.1613 67.325C86.9576 58.5953 71.1765 52.2174 68.9551 51.3622C68.7951 51.291 68.5996 51.291 68.4397 51.3622H68.493ZM56.6217 70.3001C58.541 64.5101 68.5996 60.4482 68.5996 60.4482C68.5996 60.4482 78.6583 64.4923 80.5599 70.3001H56.6217Z" fill="var(--fill-0, #272727)"/>
</g>
<defs>
<clipPath id="clip0_0_9">
<rect width="310.664" height="94.7787" fill="white"/>
</clipPath>
</defs>
</svg>
