<svg width="141" height="190" viewBox="0 0 141 190" fill="none" xmlns="http://www.w3.org/2000/svg">
<rect x="1.25326" y="1.25326" width="138.461" height="48.5522" stroke="#FDF3E2" stroke-width="2.5" stroke-miterlimit="10"/>
<path d="M52.9652 9.00881H50.6462C50.3472 9.00881 50.108 9.24802 50.108 9.54703V17.7731C43.2508 16.0853 41.9883 9.93906 41.8487 9.10184C41.8421 9.04868 41.7889 9.00881 41.7358 9.00881H38.7324C38.4334 9.00881 38.1942 9.24802 38.1942 9.54703V23.3612C38.1942 23.6602 38.4334 23.8994 38.7324 23.8994H41.0514C41.3504 23.8994 41.5896 23.6602 41.5896 23.3612V16.2647C43.377 18.4442 46.0814 20.5505 50.108 21.4409V23.6868C50.108 23.8064 50.201 23.8994 50.3206 23.8994H52.9652C53.2642 23.8994 53.5034 23.6602 53.5034 23.3612V9.54703C53.5034 9.24802 53.2642 9.00881 52.9652 9.00881Z" fill="#FDF3E2"/>
<path d="M78.2488 16.5018C78.7671 17.5716 79.219 18.9603 79.219 18.9603H79.3651C79.3651 18.9603 79.8103 17.5716 80.3353 16.5018L83.7838 9.32559C83.93 9.02658 84.0097 9 84.3021 9H87.2789C87.4251 9 87.4782 9.07309 87.4782 9.14618C87.4782 9.21927 87.4051 9.3721 87.332 9.51828L80.5146 23.771C80.4814 23.8441 80.4017 23.8906 80.3219 23.8906H78.2555C78.1757 23.8906 78.096 23.8441 78.0628 23.771L71.2454 9.51828C71.1723 9.3721 71.0992 9.21927 71.0992 9.14618C71.0992 9.07309 71.1457 9 71.2985 9H74.2754C74.5744 9 74.6474 9.02658 74.7936 9.32559L78.2422 16.5018H78.2488Z" fill="#FDF3E2"/>
<path d="M63.3445 7.9576C62.5206 8.27654 56.6202 10.6553 55.7896 13.9112C55.7896 13.9311 55.783 13.9577 55.783 13.9843V23.6323C55.783 23.7784 55.9026 23.898 56.0488 23.898H58.5671C58.7132 23.898 58.8329 23.7784 58.8329 23.6323V18.6089C58.8329 18.4627 58.9524 18.3431 59.0986 18.3431H67.6436C67.7898 18.3431 67.9094 18.4627 67.9094 18.6089V23.6323C67.9094 23.7784 68.029 23.898 68.1752 23.898H70.8131C70.9593 23.898 71.0789 23.7784 71.0789 23.6323V13.9843C71.0789 13.9843 71.0789 13.9378 71.0722 13.9112C70.2483 10.6553 64.3479 8.27654 63.5173 7.9576C63.4575 7.93102 63.3844 7.93102 63.3246 7.9576H63.3445ZM58.9059 15.0208C59.6236 12.8613 63.3844 11.3464 63.3844 11.3464C63.3844 11.3464 67.1452 12.8547 67.8562 15.0208H58.9059Z" fill="#FDF3E2"/>
<path d="M95.0384 7.9576C94.2145 8.27654 88.3141 10.6553 87.4835 13.9112C87.4835 13.9311 87.4768 13.9577 87.4768 13.9843V23.6323C87.4768 23.7784 87.5964 23.898 87.7426 23.898H90.2609C90.4071 23.898 90.5267 23.7784 90.5267 23.6323V18.6089C90.5267 18.4627 90.6463 18.3431 90.7925 18.3431H99.3375C99.4836 18.3431 99.6033 18.4627 99.6033 18.6089V23.6323C99.6033 23.7784 99.7228 23.898 99.869 23.898H102.507C102.653 23.898 102.773 23.7784 102.773 23.6323V13.9843C102.773 13.9843 102.773 13.9378 102.766 13.9112C101.942 10.6553 96.0417 8.27654 95.2112 7.9576C95.1514 7.93102 95.0783 7.93102 95.0185 7.9576H95.0384ZM90.6064 15.0208C91.324 12.8613 95.0849 11.3464 95.0849 11.3464C95.0849 11.3464 98.8458 12.8547 99.5567 15.0208H90.6064Z" fill="#FDF3E2"/>
<path d="M111.45 27.9772H109.132C108.833 27.9772 108.593 28.2164 108.593 28.5154V36.7414C101.736 35.0537 100.474 28.9074 100.334 28.0702C100.327 28.017 100.274 27.9772 100.221 27.9772H97.2177C96.9187 27.9772 96.6795 28.2164 96.6795 28.5154V42.3295C96.6795 42.6285 96.9187 42.8677 97.2177 42.8677H99.5367C99.8357 42.8677 100.075 42.6285 100.075 42.3295V35.2331C101.862 37.4125 104.567 39.5189 108.593 40.4092V42.6551C108.593 42.7747 108.686 42.8677 108.806 42.8677H111.45C111.749 42.8677 111.989 42.6285 111.989 42.3295V28.5154C111.989 28.2164 111.749 27.9772 111.45 27.9772Z" fill="#FDF3E2"/>
<path d="M28.4662 36.1701C28.4662 39.9907 25.7618 43.1203 20.6189 43.1203C16.1271 43.1203 12.3995 40.1435 12.3995 35.4259C12.3995 30.7082 15.9743 27.7314 20.6189 27.7314C25.7552 27.7314 27.9147 30.8809 27.9678 33.0936C27.9678 33.2398 27.8681 33.4192 27.5691 33.4192H25.011C24.8648 33.4192 24.6854 33.3727 24.6389 33.1733C24.3664 31.984 23.197 30.5686 20.6189 30.5686C18.0408 30.5686 15.7749 32.582 15.7749 35.4325C15.7749 38.5821 18.0607 40.2964 20.6189 40.2964C23.177 40.2964 24.7186 39.107 24.9777 37.7714C25.0043 37.6385 24.898 37.5189 24.7651 37.5189H19.7351C19.4295 37.5189 19.1703 37.2664 19.1703 36.9541V35.499C19.1703 35.1933 19.4228 34.9342 19.7351 34.9342H28.2469C28.3665 34.9342 28.4595 35.0272 28.4595 35.1468V36.1767L28.4662 36.1701Z" fill="#FDF3E2"/>
<path d="M57.8093 37.6584C59.7894 36.9607 61.1582 35.4523 61.1582 33.1932C61.1582 29.9373 58.5734 27.9772 54.9521 27.9772H48.261C47.9819 27.9772 47.7493 28.2097 47.7493 28.4888V42.3628C47.7493 42.6418 47.9819 42.8744 48.261 42.8744H50.6132C50.8989 42.8744 51.1248 42.6485 51.1248 42.3628V38.4225C51.1248 38.3029 51.2245 38.2032 51.3441 38.2032H53.0252C55.1714 40.5621 57.8691 42.1036 61.0519 42.788C61.331 42.8478 61.61 42.6618 61.6632 42.376L62.1283 39.8843C62.1815 39.6119 62.0021 39.3527 61.7296 39.2929C60.2811 38.974 58.9721 38.4225 57.8093 37.6584ZM51.1248 35.3062V31.0204C51.1248 30.9008 51.2179 30.8078 51.3375 30.8078H54.7262C56.5867 30.8078 57.7827 31.7247 57.7827 33.1932C57.7827 34.6616 56.5867 35.5254 54.7262 35.5254H51.3441C51.2245 35.5254 51.1248 35.4258 51.1248 35.3062Z" fill="#FDF3E2"/>
<path d="M64.4536 42.8736C64.1745 42.8736 63.9419 42.6411 63.9419 42.362V28.4947C63.9419 28.2156 64.1745 27.983 64.4536 27.983H70.5201C75.2378 27.983 78.7594 30.8867 78.7594 35.4316C78.7594 39.9766 75.7826 42.8803 70.5666 42.8803H64.4536V42.8736ZM67.3174 31.0196V39.8237C67.3174 39.9433 67.4104 40.0364 67.53 40.0364H70.5666C73.0783 40.0364 74.6464 38.9001 75.178 37.0064C76.0551 33.8835 73.6098 30.8003 70.3606 30.8003H67.53C67.4104 30.8003 67.3174 30.8934 67.3174 31.013V31.0196Z" fill="#FDF3E2"/>
<path d="M84.8924 36.8804V39.8306C84.8924 39.9502 84.9855 40.0432 85.1051 40.0432H93.4175C93.7232 40.0432 93.9823 40.2957 93.9823 40.608V42.3157C93.9823 42.6213 93.7298 42.8805 93.4175 42.8805H82.0286C81.7495 42.8805 81.517 42.6479 81.517 42.3688V28.5015C81.517 28.2224 81.7495 27.9899 82.0286 27.9899H93.2647C93.5703 27.9899 93.8295 28.2424 93.8295 28.5547V30.2623C93.8295 30.568 93.5769 30.8271 93.2647 30.8271H85.1051C84.9855 30.8271 84.8924 30.9202 84.8924 31.0398V33.6378C84.8924 33.7574 84.9855 33.8504 85.1051 33.8504H92.5205C92.8261 33.8504 93.0853 34.1029 93.0853 34.4152V36.1229C93.0853 36.4285 92.8328 36.6877 92.5205 36.6877H85.1051C84.9855 36.6877 84.8924 36.7807 84.8924 36.9003V36.8804Z" fill="#FDF3E2"/>
<path d="M117.564 37.8586C117.863 37.8586 118.009 37.9848 118.063 38.2307C118.308 39.4998 119.378 40.2905 121.737 40.2905C124.096 40.2905 125.186 39.4001 125.186 38.3303C125.186 37.6326 124.687 37.0147 123.199 36.8885L119.325 36.5629C116.295 36.317 114.68 34.9216 114.68 32.6891C114.68 30.1043 116.94 27.7255 121.332 27.7255C125.724 27.7255 127.863 29.8385 127.863 32.2173C127.863 32.4432 127.691 32.6425 127.392 32.6425H124.933C124.687 32.6425 124.534 32.5694 124.488 32.2704C124.342 31.4 123.498 30.5561 121.312 30.5561C119.126 30.5561 118.063 31.4 118.063 32.4897C118.063 33.1608 118.508 33.6592 119.877 33.7588L123.724 34.0844C127.199 34.3834 128.568 36.1177 128.568 38.1775C128.568 40.5098 126.554 43.1145 121.744 43.1145C117.199 43.1145 114.694 40.955 114.694 38.4964V38.2971C114.694 38.0513 114.893 37.8519 115.166 37.8519H117.571L117.564 37.8586Z" fill="#FDF3E2"/>
<path d="M38.0139 26.9269C37.19 27.2459 31.2896 29.6246 30.459 32.8805C30.459 32.9004 30.4523 32.927 30.4523 32.9536V42.6016C30.4523 42.7478 30.5719 42.8674 30.7181 42.8674H33.2364C33.3826 42.8674 33.5022 42.7478 33.5022 42.6016V37.5782C33.5022 37.4321 33.6218 37.3125 33.768 37.3125H42.313C42.4592 37.3125 42.5788 37.4321 42.5788 37.5782V42.6016C42.5788 42.7478 42.6984 42.8674 42.8446 42.8674H45.4825C45.6287 42.8674 45.7482 42.7478 45.7482 42.6016V32.9536C45.7482 32.9536 45.7483 32.9071 45.7416 32.8805C44.9177 29.6246 39.0173 27.2459 38.1867 26.9269C38.1269 26.9003 38.0538 26.9003 37.994 26.9269H38.0139ZM33.5753 33.9901C34.2929 31.8306 38.0538 30.3157 38.0538 30.3157C38.0538 30.3157 41.8146 31.824 42.5256 33.9901H33.5753Z" fill="#FDF3E2"/>
<rect x="1.25326" y="49.8055" width="138.493" height="138.493" stroke="#FDF3E2" stroke-width="2.5"/>
<path d="M85.6618 119.052C85.6618 122.556 84.469 125.78 82.4655 128.352C81.9809 128.976 81.4591 129.554 80.8813 130.085C80.4899 130.458 80.0706 130.812 79.6326 131.138C77.0886 133.067 73.9203 134.204 70.5003 134.204C67.0804 134.204 64.0146 133.095 61.4892 131.232C60.3803 130.411 59.3925 129.452 58.5539 128.371C58.4048 128.175 58.2557 127.989 58.1159 127.784C56.3733 125.314 55.3389 122.295 55.3389 119.052C55.3389 115.809 56.4292 112.594 58.2836 110.088C58.3489 109.994 58.4141 109.911 58.4793 109.817C59.3459 108.699 60.3617 107.702 61.4986 106.863C61.7036 106.714 61.9086 106.565 62.1229 106.425C64.5271 104.823 67.4066 103.891 70.5003 103.891C73.9948 103.891 77.2191 105.083 79.7817 107.078C79.8656 107.143 79.9401 107.199 80.0147 107.264C81.077 108.121 82.0182 109.128 82.8196 110.237C84.5994 112.725 85.6524 115.763 85.6524 119.052H85.6618Z" stroke="#FDF3E2" stroke-width="2.78831" stroke-miterlimit="10"/>
<path d="M70.499 126.013C74.3435 126.013 77.4601 122.896 77.4601 119.052C77.4601 115.207 74.3435 112.091 70.499 112.091C66.6546 112.091 63.538 115.207 63.538 119.052C63.538 122.896 66.6546 126.013 70.499 126.013Z" fill="#FDF3E2" stroke="#FDF3E2" stroke-width="2.78831" stroke-miterlimit="10"/>
<path d="M88.7556 157.864L71.7957 175.914C70.5377 177.247 68.413 177.247 67.1643 175.905L49.8037 157.258C48.8719 156.261 48.6855 154.77 49.3471 153.568L60.9954 132.368C63.5208 134.241 66.6425 135.35 70.0158 135.35C73.1562 135.35 76.073 134.39 78.4958 132.75L89.2775 154.276C89.8738 155.469 89.6595 156.895 88.7556 157.864Z" fill="#FDF3E2" stroke="#FDF3E2" stroke-width="2.78831" stroke-miterlimit="10"/>
<path d="M31.6986 137.308L13.6484 120.348C12.3158 119.09 12.3158 116.965 13.6577 115.717L32.3043 98.356C33.3014 97.4241 34.7924 97.2377 35.9945 97.8993L57.1943 109.548C55.3213 112.073 54.2124 115.195 54.2124 118.568C54.2124 121.941 55.1722 124.625 56.8123 127.048L35.2863 137.83C34.0935 138.426 32.6677 138.212 31.6986 137.308Z" fill="#FDF3E2" stroke="#FDF3E2" stroke-width="2.78831" stroke-miterlimit="10"/>
<path d="M52.2449 80.2488L69.2048 62.1987C70.4628 60.8661 72.5875 60.8661 73.8362 62.208L91.1968 80.8546C92.1286 81.8516 92.315 83.3426 91.6534 84.5447L80.0051 105.745C77.4798 103.872 74.358 102.763 70.9847 102.763C67.8443 102.763 64.9276 103.722 62.5047 105.363L51.7231 83.8365C51.1267 82.6437 51.341 81.218 52.2449 80.2488Z" fill="#FDF3E2" stroke="#FDF3E2" stroke-width="2.78831" stroke-miterlimit="10"/>
<path d="M109.312 100.797L127.362 117.757C128.694 119.015 128.694 121.14 127.353 122.388L108.706 139.749C107.709 140.681 106.218 140.867 105.016 140.206L83.8159 128.557C85.689 126.032 86.7979 122.91 86.7979 119.537C86.7979 116.397 85.8381 113.48 84.198 111.057L105.724 100.275C106.917 99.6789 108.343 99.8932 109.312 100.797Z" fill="#FDF3E2" stroke="#FDF3E2" stroke-width="2.78831" stroke-miterlimit="10"/>
<path d="M82.5288 128.557L103.244 143.989C104.092 144.595 104.912 145.322 105.667 146.151C109.627 150.531 110.364 156.327 107.298 159.095C104.232 161.862 98.5475 160.548 94.5777 156.169C93.8416 155.348 93.2079 154.482 92.6954 153.597L79.3884 131.381" stroke="#FDF3E2" stroke-width="2.78831" stroke-miterlimit="10"/>
<path d="M61.0049 131.083L45.5733 151.799C44.9676 152.647 44.2407 153.467 43.4114 154.222C39.0316 158.182 33.2354 158.918 30.4678 155.852C27.7002 152.787 29.0141 147.102 33.3938 143.132C34.2139 142.396 35.0805 141.763 35.9658 141.25L58.1907 127.934" stroke="#FDF3E2" stroke-width="2.78831" stroke-miterlimit="10"/>
<path d="M58.4693 109.557L37.7539 94.1255C36.9059 93.5198 36.0859 92.7929 35.3311 91.9636C31.3707 87.5838 30.6345 81.7876 33.7003 79.02C36.7662 76.2524 42.4505 77.5663 46.4203 81.9461C47.1564 82.7661 47.7901 83.6327 48.3026 84.518L61.6096 106.734" stroke="#FDF3E2" stroke-width="2.78831" stroke-miterlimit="10"/>
<path d="M80.0062 107.021L95.4378 86.3062C96.0436 85.4582 96.7704 84.6381 97.5998 83.8833C101.98 79.9229 107.776 79.1867 110.543 82.2526C113.311 85.3184 111.997 91.0027 107.617 94.9725C106.797 95.7087 105.931 96.3423 105.045 96.8548L82.8204 110.171" stroke="#FDF3E2" stroke-width="2.78831" stroke-miterlimit="10"/>
</svg>
