<svg preserveAspectRatio="xMidYMid meet" width="140.346" height="50.9463" overflow="visible" style="display: block;" viewBox="0 0 140.346 50.9463" fill="none" xmlns="http://www.w3.org/2000/svg">
<g id="Vector">
<path d="M52.7004 8.99609H50.3875C50.0893 8.99609 49.8507 9.23468 49.8507 9.53291V17.7375C43.0113 16.0542 41.7521 9.92392 41.6129 9.08888C41.6063 9.03586 41.5533 8.99609 41.5003 8.99609H38.5047C38.2065 8.99609 37.9679 9.23468 37.9679 9.53291V23.3111C37.9679 23.6093 38.2065 23.8479 38.5047 23.8479H40.8176C41.1159 23.8479 41.3545 23.6093 41.3545 23.3111V16.2331C43.1372 18.4069 45.8346 20.5077 49.8507 21.3958V23.6358C49.8507 23.7551 49.9435 23.8479 50.0628 23.8479H52.7004C52.9987 23.8479 53.2373 23.6093 53.2373 23.3111V9.53291C53.2373 9.23468 52.9987 8.99609 52.7004 8.99609Z" fill="var(--fill-0, #272727)"/>
<path d="M77.9182 16.4695C78.4352 17.5365 78.8858 18.9216 78.8858 18.9216H79.0316C79.0316 18.9216 79.4757 17.5365 79.9992 16.4695L83.4388 9.31204C83.5846 9.01381 83.6641 8.9873 83.9557 8.9873H86.9248C87.0706 8.9873 87.1236 9.0602 87.1236 9.13311C87.1236 9.20601 87.0507 9.35843 86.9778 9.50423L80.1781 23.7198C80.145 23.7927 80.0655 23.8391 79.986 23.8391H77.9249C77.8454 23.8391 77.7658 23.7927 77.7327 23.7198L70.9331 9.50423C70.8602 9.35843 70.7872 9.20601 70.7872 9.13311C70.7872 9.0602 70.8336 8.9873 70.9861 8.9873H73.9551C74.2534 8.9873 74.3262 9.01381 74.472 9.31204L77.9116 16.4695H77.9182Z" fill="var(--fill-0, #272727)"/>
<path d="M63.0528 7.94762C62.231 8.26573 56.3459 10.6383 55.5175 13.8857C55.5175 13.9056 55.5109 13.9321 55.5109 13.9586V23.5815C55.5109 23.7273 55.6302 23.8465 55.776 23.8465H58.2877C58.4335 23.8465 58.5528 23.7273 58.5528 23.5815V18.5712C58.5528 18.4254 58.6721 18.3061 58.8179 18.3061H67.3406C67.4864 18.3061 67.6057 18.4254 67.6057 18.5712V23.5815C67.6057 23.7273 67.725 23.8465 67.8708 23.8465H70.5019C70.6477 23.8465 70.767 23.7273 70.767 23.5815V13.9586C70.767 13.9586 70.767 13.9122 70.7603 13.8857C69.9386 10.6383 64.0535 8.26573 63.2251 7.94762C63.1654 7.92111 63.0925 7.92111 63.0329 7.94762H63.0528ZM58.6257 14.9925C59.3415 12.8386 63.0925 11.3275 63.0925 11.3275C63.0925 11.3275 66.8436 12.8319 67.5527 14.9925H58.6257Z" fill="var(--fill-0, #272727)"/>
<path d="M94.6641 7.94762C93.8423 8.26573 87.9573 10.6383 87.1288 13.8857C87.1288 13.9056 87.1222 13.9321 87.1222 13.9586V23.5815C87.1222 23.7273 87.2415 23.8465 87.3873 23.8465H89.8991C90.0449 23.8465 90.1641 23.7273 90.1641 23.5815V18.5712C90.1641 18.4254 90.2834 18.3061 90.4292 18.3061H98.952C99.0978 18.3061 99.2171 18.4254 99.2171 18.5712V23.5815C99.2171 23.7273 99.3363 23.8465 99.4821 23.8465H102.113C102.259 23.8465 102.378 23.7273 102.378 23.5815V13.9586C102.378 13.9586 102.378 13.9122 102.372 13.8857C101.55 10.6383 95.6648 8.26573 94.8364 7.94762C94.7768 7.92111 94.7038 7.92111 94.6442 7.94762H94.6641ZM90.2437 14.9925C90.9594 12.8386 94.7105 11.3275 94.7105 11.3275C94.7105 11.3275 98.4615 12.8319 99.1707 14.9925H90.2437Z" fill="var(--fill-0, #272727)"/>
<path d="M111.033 27.9153H108.72C108.422 27.9153 108.184 28.1539 108.184 28.4521V36.6567C101.344 34.9734 100.085 28.8431 99.9458 28.0081C99.9392 27.955 99.8862 27.9153 99.8332 27.9153H96.8376C96.5394 27.9153 96.3008 28.1539 96.3008 28.4521V42.2303C96.3008 42.5285 96.5394 42.7671 96.8376 42.7671H99.1505C99.4487 42.7671 99.6873 42.5285 99.6873 42.2303V35.1523C101.47 37.3261 104.167 39.4269 108.184 40.315V42.555C108.184 42.6743 108.276 42.7671 108.396 42.7671H111.033C111.332 42.7671 111.57 42.5285 111.57 42.2303V28.4521C111.57 28.1539 111.332 27.9153 111.033 27.9153Z" fill="var(--fill-0, #272727)"/>
<path d="M28.2651 36.0869C28.2651 39.8976 25.5678 43.019 20.4382 43.019C15.9582 43.019 12.2402 40.05 12.2402 35.3446C12.2402 30.6392 15.8057 27.6702 20.4382 27.6702C25.5611 27.6702 27.715 30.8115 27.768 33.0184C27.768 33.1642 27.6686 33.3431 27.3704 33.3431H24.8189C24.6731 33.3431 24.4941 33.2968 24.4478 33.0979C24.176 31.9116 23.0096 30.5 20.4382 30.5C17.8668 30.5 15.6069 32.5081 15.6069 35.3512C15.6069 38.4926 17.8867 40.2024 20.4382 40.2024C22.9897 40.2024 24.5273 39.0161 24.7857 37.684C24.8122 37.5515 24.7062 37.4322 24.5737 37.4322H19.5568C19.2519 37.4322 18.9935 37.1804 18.9935 36.8689V35.4175C18.9935 35.1126 19.2453 34.8542 19.5568 34.8542H28.0464C28.1657 34.8542 28.2585 34.947 28.2585 35.0663V36.0935L28.2651 36.0869Z" fill="var(--fill-0, #272727)"/>
<path d="M57.5318 37.5713C59.5068 36.8754 60.872 35.371 60.872 33.1177C60.872 29.8703 58.294 27.9153 54.6821 27.9153H48.0084C47.73 27.9153 47.498 28.1472 47.498 28.4256V42.2634C47.498 42.5418 47.73 42.7737 48.0084 42.7737H50.3544C50.6394 42.7737 50.8647 42.5484 50.8647 42.2634V38.3334C50.8647 38.2141 50.9642 38.1147 51.0834 38.1147H52.7601C54.9008 40.4674 57.5915 42.005 60.7659 42.6876C61.0443 42.7472 61.3226 42.5617 61.3756 42.2767L61.8396 39.7914C61.8926 39.5197 61.7137 39.2612 61.4419 39.2016C59.9972 38.8835 58.6916 38.3334 57.5318 37.5713ZM50.8647 35.2252V30.9506C50.8647 30.8313 50.9575 30.7385 51.0768 30.7385H54.4567C56.3124 30.7385 57.5053 31.6531 57.5053 33.1177C57.5053 34.5824 56.3124 35.4439 54.4567 35.4439H51.0834C50.9642 35.4439 50.8647 35.3445 50.8647 35.2252Z" fill="var(--fill-0, #272727)"/>
<path d="M64.1588 42.773C63.8804 42.773 63.6484 42.541 63.6484 42.2627V28.4314C63.6484 28.1531 63.8804 27.9211 64.1588 27.9211H70.2095C74.9149 27.9211 78.4274 30.8173 78.4274 35.3504C78.4274 39.8835 75.4583 42.7796 70.2559 42.7796H64.1588V42.773ZM67.0151 39.731C67.0151 39.8503 67.1079 39.9431 67.2272 39.9431H70.2559C72.761 39.9431 74.3251 38.8098 74.8552 36.921C75.7301 33.8062 73.2912 30.7311 70.0504 30.7311H67.2272C67.1079 30.7311 67.0151 30.8239 67.0151 30.9432V39.731Z" fill="var(--fill-0, #272727)"/>
<path d="M84.5444 36.7953V39.7379C84.5444 39.8571 84.6372 39.9499 84.7565 39.9499H93.0473C93.3521 39.9499 93.6106 40.2018 93.6106 40.5133V42.2165C93.6106 42.5213 93.3588 42.7798 93.0473 42.7798H81.688C81.4097 42.7798 81.1777 42.5478 81.1777 42.2695V28.4383C81.1777 28.1599 81.4097 27.928 81.688 27.928H92.8948C93.1997 27.928 93.4582 28.1798 93.4582 28.4913V30.1945C93.4582 30.4994 93.2063 30.7578 92.8948 30.7578H84.7565C84.6372 30.7578 84.5444 30.8506 84.5444 30.9699V33.5612C84.5444 33.6805 84.6372 33.7733 84.7565 33.7733H92.1526C92.4574 33.7733 92.7159 34.0251 92.7159 34.3366V36.0398C92.7159 36.3447 92.464 36.6031 92.1526 36.6031H84.7565C84.6372 36.6031 84.5444 36.6959 84.5444 36.8152V36.7953Z" fill="var(--fill-0, #272727)"/>
<path d="M117.131 37.771C117.429 37.771 117.575 37.8969 117.628 38.1421C117.873 39.4079 118.94 40.1966 121.293 40.1966C123.646 40.1966 124.733 39.3085 124.733 38.2415C124.733 37.5456 124.236 36.9293 122.751 36.8034L118.887 36.4786C115.865 36.2334 114.255 34.8417 114.255 32.6149C114.255 30.0369 116.508 27.6643 120.889 27.6643C125.269 27.6643 127.403 29.7718 127.403 32.1444C127.403 32.3697 127.231 32.5685 126.933 32.5685H124.481C124.236 32.5685 124.083 32.4956 124.037 32.1974C123.891 31.3292 123.049 30.4875 120.869 30.4875C118.689 30.4875 117.628 31.3292 117.628 32.4161C117.628 33.0855 118.072 33.5825 119.437 33.6819L123.275 34.0066C126.741 34.3049 128.106 36.0346 128.106 38.0891C128.106 40.4153 126.098 43.0132 121.3 43.0132C116.767 43.0132 114.268 40.8593 114.268 38.4072V38.2084C114.268 37.9632 114.467 37.7643 114.739 37.7643H117.138L117.131 37.771Z" fill="var(--fill-0, #272727)"/>
<path d="M37.788 26.8678C36.9662 27.1859 31.0811 29.5585 30.2527 32.8059C30.2527 32.8257 30.2461 32.8523 30.2461 32.8788V42.5016C30.2461 42.6474 30.3654 42.7667 30.5112 42.7667H33.0229C33.1687 42.7667 33.288 42.6474 33.288 42.5016V37.4914C33.288 37.3456 33.4073 37.2263 33.5531 37.2263H42.0758C42.2216 37.2263 42.3409 37.3456 42.3409 37.4914V42.5016C42.3409 42.6474 42.4602 42.7667 42.606 42.7667H45.2371C45.3829 42.7667 45.5021 42.6474 45.5021 42.5016V32.8788C45.5021 32.8788 45.5022 32.8324 45.4955 32.8059C44.6738 29.5585 38.7887 27.1859 37.9603 26.8678C37.9006 26.8413 37.8277 26.8413 37.7681 26.8678H37.788ZM33.3609 33.9126C34.0767 31.7587 37.8277 30.2477 37.8277 30.2477C37.8277 30.2477 41.5788 31.7521 42.2879 33.9126H33.3609Z" fill="var(--fill-0, #272727)"/>
<path fill-rule="evenodd" clip-rule="evenodd" d="M140.346 50.9463H0V0H140.346V50.9463ZM2.5 48.4463H137.846V2.5H2.5V48.4463Z" fill="var(--fill-0, #272727)"/>
</g>
</svg>
