<svg width="1370" height="190" viewBox="0 0 1370 190" fill="none" xmlns="http://www.w3.org/2000/svg">
<rect x="1.25023" y="1.25023" width="138.125" height="48.4346" stroke="#272727" stroke-width="2.5" stroke-miterlimit="10"/>
<path d="M52.8369 8.98699H50.5236C50.2253 8.98699 49.9867 9.22562 49.9867 9.52391V17.73C43.146 16.0464 41.8866 9.91499 41.7474 9.07979C41.7408 9.02677 41.6877 8.98699 41.6347 8.98699H38.6386C38.3403 8.98699 38.1017 9.22562 38.1017 9.52391V23.3046C38.1017 23.6029 38.3403 23.8415 38.6386 23.8415H40.952C41.2502 23.8415 41.4889 23.6029 41.4889 23.3046V16.2253C43.272 18.3995 45.9698 20.5007 49.9867 21.389V23.6294C49.9867 23.7487 50.0795 23.8415 50.1988 23.8415H52.8369C53.1352 23.8415 53.3738 23.6029 53.3738 23.3046V9.52391C53.3738 9.22562 53.1352 8.98699 52.8369 8.98699Z" fill="#272727"/>
<path d="M78.0593 16.4618C78.5764 17.529 79.0271 18.9144 79.0271 18.9144H79.1729C79.1729 18.9144 79.617 17.529 80.1407 16.4618L83.5809 9.303C83.7267 9.00472 83.8063 8.9782 84.0979 8.9782H87.0675C87.2133 8.9782 87.2664 9.05112 87.2664 9.12403C87.2664 9.19694 87.1934 9.3494 87.1205 9.49523L80.3196 23.7134C80.2865 23.7863 80.207 23.8327 80.1274 23.8327H78.066C77.9864 23.8327 77.9069 23.7863 77.8738 23.7134L71.0729 9.49523C71 9.3494 70.927 9.19694 70.927 9.12403C70.927 9.05112 70.9734 8.9782 71.1259 8.9782H74.0955C74.3938 8.9782 74.4667 9.00472 74.6125 9.303L78.0527 16.4618H78.0593Z" fill="#272727"/>
<path d="M63.1911 7.93833C62.3692 8.25649 56.4831 10.6295 55.6545 13.8775C55.6545 13.8974 55.6479 13.9239 55.6479 13.9504V23.575C55.6479 23.7208 55.7672 23.8402 55.913 23.8402H58.4252C58.5711 23.8402 58.6904 23.7208 58.6904 23.575V18.5639C58.6904 18.418 58.8097 18.2987 58.9555 18.2987H67.4798C67.6256 18.2987 67.7449 18.418 67.7449 18.5639V23.575C67.7449 23.7208 67.8643 23.8402 68.0101 23.8402H70.6416C70.7874 23.8402 70.9067 23.7208 70.9067 23.575V13.9504C70.9067 13.9504 70.9067 13.904 70.9001 13.8775C70.0782 10.6295 64.192 8.25649 63.3635 7.93833C63.3038 7.91181 63.2309 7.91181 63.1712 7.93833H63.1911ZM58.7633 14.9844C59.4792 12.8302 63.2309 11.3189 63.2309 11.3189C63.2309 11.3189 66.9826 12.8235 67.6919 14.9844H58.7633Z" fill="#272727"/>
<path d="M94.8082 7.93833C93.9863 8.25649 88.1002 10.6295 87.2716 13.8775C87.2716 13.8974 87.265 13.9239 87.265 13.9504V23.575C87.265 23.7208 87.3843 23.8402 87.5301 23.8402H90.0423C90.1882 23.8402 90.3074 23.7208 90.3074 23.575V18.5639C90.3074 18.418 90.4268 18.2987 90.5726 18.2987H99.0969C99.2427 18.2987 99.362 18.418 99.362 18.5639V23.575C99.362 23.7208 99.4813 23.8402 99.6272 23.8402H102.259C102.405 23.8402 102.524 23.7208 102.524 23.575V13.9504C102.524 13.9504 102.524 13.904 102.517 13.8775C101.695 10.6295 95.8092 8.25649 94.9806 7.93833C94.9209 7.91181 94.848 7.91181 94.7883 7.93833H94.8082ZM90.387 14.9844C91.1029 12.8302 94.8546 11.3189 94.8546 11.3189C94.8546 11.3189 98.6064 12.8235 99.3156 14.9844H90.387Z" fill="#272727"/>
<path d="M111.181 27.9094H108.867C108.569 27.9094 108.33 28.148 108.33 28.4463V36.6524C101.49 34.9688 100.23 28.8374 100.091 28.0022C100.084 27.9492 100.031 27.9094 99.9784 27.9094H96.9823C96.684 27.9094 96.4454 28.148 96.4454 28.4463V42.227C96.4454 42.5253 96.684 42.7639 96.9823 42.7639H99.2956C99.5939 42.7639 99.8325 42.5253 99.8325 42.227V35.1477C101.616 37.3219 104.313 39.4231 108.33 40.3114V42.5518C108.33 42.6711 108.423 42.7639 108.542 42.7639H111.181C111.479 42.7639 111.717 42.5253 111.717 42.227V28.4463C111.717 28.148 111.479 27.9094 111.181 27.9094Z" fill="#272727"/>
<path d="M28.3972 36.0825C28.3972 39.8939 25.6994 43.0159 20.5689 43.0159C16.088 43.0159 12.3694 40.0463 12.3694 35.3401C12.3694 30.6338 15.9356 27.6642 20.5689 27.6642C25.6928 27.6642 27.8471 30.8062 27.9001 33.0135C27.9001 33.1593 27.8006 33.3383 27.5024 33.3383H24.9504C24.8046 33.3383 24.6256 33.2919 24.5792 33.093C24.3074 31.9065 23.1408 30.4946 20.5689 30.4946C17.9971 30.4946 15.7367 32.5031 15.7367 35.3467C15.7367 38.4886 18.0169 40.1988 20.5689 40.1988C23.1209 40.1988 24.6587 39.0123 24.9172 37.6799C24.9438 37.5474 24.8377 37.4281 24.7051 37.4281H19.6873C19.3824 37.4281 19.1239 37.1762 19.1239 36.8646V35.413C19.1239 35.1081 19.3758 34.8496 19.6873 34.8496H28.1785C28.2978 34.8496 28.3906 34.9424 28.3906 35.0617V36.0891L28.3972 36.0825Z" fill="#272727"/>
<path d="M57.6693 37.5672C59.6446 36.8712 61.0101 35.3665 61.0101 33.1128C61.0101 29.8648 58.4316 27.9094 54.819 27.9094H48.1441C47.8657 27.9094 47.6337 28.1414 47.6337 28.4198V42.2602C47.6337 42.5386 47.8657 42.7706 48.1441 42.7706H50.4906C50.7756 42.7706 51.001 42.5452 51.001 42.2602V38.3294C51.001 38.2101 51.1005 38.1107 51.2198 38.1107H52.8968C55.0378 40.4638 57.729 42.0016 60.904 42.6844C61.1824 42.744 61.4608 42.5584 61.5138 42.2734L61.9778 39.7877C62.0309 39.5159 61.8519 39.2574 61.5802 39.1978C60.1351 38.8796 58.8293 38.3294 57.6693 37.5672ZM51.001 35.2207V30.9453C51.001 30.8259 51.0938 30.7332 51.2131 30.7332H54.5937C56.4496 30.7332 57.6428 31.6479 57.6428 33.1128C57.6428 34.5777 56.4496 35.4394 54.5937 35.4394H51.2198C51.1005 35.4394 51.001 35.34 51.001 35.2207Z" fill="#272727"/>
<path d="M64.2975 42.7698C64.0191 42.7698 63.7871 42.5378 63.7871 42.2594V28.4257C63.7871 28.1473 64.0191 27.9153 64.2975 27.9153H70.3493C75.0556 27.9153 78.5687 30.8119 78.5687 35.3458C78.5687 39.8798 75.5991 42.7764 70.3957 42.7764H64.2975V42.7698ZM67.1544 30.9445V39.7273C67.1544 39.8466 67.2472 39.9394 67.3665 39.9394H70.3957C72.9013 39.9394 74.4656 38.8059 74.9959 36.9168C75.8709 33.8014 73.4316 30.7258 70.1902 30.7258H67.3665C67.2472 30.7258 67.1544 30.8186 67.1544 30.9379V30.9445Z" fill="#272727"/>
<path d="M84.6869 36.7911V39.7341C84.6869 39.8534 84.7797 39.9462 84.899 39.9462H93.1913C93.4962 39.9462 93.7547 40.1981 93.7547 40.5097V42.2132C93.7547 42.5181 93.5028 42.7766 93.1913 42.7766H81.83C81.5516 42.7766 81.3196 42.5446 81.3196 42.2662V28.4325C81.3196 28.1541 81.5516 27.9221 81.83 27.9221H93.0388C93.3437 27.9221 93.6022 28.174 93.6022 28.4855V30.1891C93.6022 30.494 93.3503 30.7525 93.0388 30.7525H84.899C84.7797 30.7525 84.6869 30.8453 84.6869 30.9646V33.5563C84.6869 33.6757 84.7797 33.7685 84.899 33.7685H92.2964C92.6013 33.7685 92.8598 34.0203 92.8598 34.3319V36.0354C92.8598 36.3403 92.6079 36.5988 92.2964 36.5988H84.899C84.7797 36.5988 84.6869 36.6916 84.6869 36.811V36.7911Z" fill="#272727"/>
<path d="M117.28 37.7669C117.578 37.7669 117.724 37.8928 117.777 38.1381C118.022 39.4041 119.089 40.1929 121.442 40.1929C123.795 40.1929 124.882 39.3047 124.882 38.2375C124.882 37.5415 124.385 36.9251 122.901 36.7991L119.036 36.4743C116.013 36.2291 114.403 34.8371 114.403 32.6099C114.403 30.0314 116.656 27.6584 121.038 27.6584C125.419 27.6584 127.554 29.7663 127.554 32.1393C127.554 32.3646 127.381 32.5635 127.083 32.5635H124.631C124.385 32.5635 124.233 32.4906 124.186 32.1923C124.041 31.324 123.199 30.4821 121.018 30.4821C118.837 30.4821 117.777 31.324 117.777 32.411C117.777 33.0805 118.221 33.5777 119.586 33.6771L123.424 34.0019C126.891 34.3002 128.256 36.0302 128.256 38.085C128.256 40.4117 126.248 43.01 121.449 43.01C116.915 43.01 114.416 40.8558 114.416 38.4032V38.2044C114.416 37.9591 114.615 37.7603 114.887 37.7603H117.286L117.28 37.7669Z" fill="#272727"/>
<path d="M37.9218 26.8617C37.0999 27.1799 31.2138 29.5529 30.3852 32.8009C30.3852 32.8208 30.3786 32.8473 30.3786 32.8738V42.4984C30.3786 42.6442 30.4979 42.7635 30.6437 42.7635H33.156C33.3018 42.7635 33.4211 42.6442 33.4211 42.4984V37.4872C33.4211 37.3414 33.5404 37.2221 33.6862 37.2221H42.2105C42.3563 37.2221 42.4757 37.3414 42.4757 37.4872V42.4984C42.4757 42.6442 42.595 42.7635 42.7408 42.7635H45.3723C45.5182 42.7635 45.6374 42.6442 45.6374 42.4984V32.8738C45.6374 32.8738 45.6375 32.8274 45.6308 32.8009C44.8089 29.5529 38.9228 27.1799 38.0942 26.8617C38.0345 26.8352 37.9616 26.8352 37.902 26.8617H37.9218ZM33.494 33.9078C34.2099 31.7536 37.9616 30.2423 37.9616 30.2423C37.9616 30.2423 41.7134 31.7469 42.4226 33.9078H33.494Z" fill="#272727"/>
<rect x="1.25023" y="49.6849" width="138.158" height="138.158" stroke="#272727" stroke-width="2.5"/>
<path d="M85.4543 118.764C85.4543 122.259 84.2644 125.476 82.2658 128.041C81.7824 128.664 81.2618 129.24 80.6854 129.77C80.295 130.142 79.8767 130.495 79.4398 130.821C76.9019 132.745 73.7413 133.879 70.3296 133.879C66.918 133.879 63.8596 132.773 61.3403 130.914C60.2341 130.096 59.2487 129.138 58.4121 128.06C58.2633 127.865 58.1146 127.679 57.9751 127.474C56.2368 125.011 55.2049 121.999 55.2049 118.764C55.2049 115.529 56.2926 112.322 58.1425 109.821C58.2075 109.728 58.2726 109.644 58.3377 109.551C59.2022 108.436 60.2155 107.441 61.3496 106.605C61.5541 106.456 61.7586 106.307 61.9725 106.168C64.3708 104.569 67.2433 103.639 70.3296 103.639C73.8156 103.639 77.0321 104.829 79.5885 106.818C79.6722 106.883 79.7465 106.939 79.8209 107.004C80.8806 107.859 81.8195 108.863 82.619 109.97C84.3946 112.452 85.445 115.482 85.445 118.764H85.4543Z" stroke="#272727" stroke-width="2.78831" stroke-miterlimit="10"/>
<path d="M70.3283 125.708C74.1635 125.708 77.2725 122.599 77.2725 118.763C77.2725 114.928 74.1635 111.819 70.3283 111.819C66.4932 111.819 63.3841 114.928 63.3841 118.763C63.3841 122.599 66.4932 125.708 70.3283 125.708Z" fill="#272727" stroke="#272727" stroke-width="2.78831" stroke-miterlimit="10"/>
<path d="M88.5407 157.482L71.6218 175.488C70.3669 176.817 68.2474 176.817 67.0017 175.479L49.6831 156.877C48.7535 155.883 48.5676 154.395 49.2276 153.196L60.8477 132.048C63.3669 133.916 66.4811 135.022 69.8463 135.022C72.9791 135.022 75.8887 134.065 78.3057 132.429L89.0612 153.903C89.6562 155.093 89.4424 156.515 88.5407 157.482Z" fill="#272727" stroke="#272727" stroke-width="2.78831" stroke-miterlimit="10"/>
<path d="M31.6218 136.975L13.6153 120.056C12.286 118.801 12.286 116.682 13.6246 115.436L32.2261 98.1178C33.2207 97.1882 34.7081 97.0022 35.9073 97.6623L57.0558 109.282C55.1873 111.802 54.0811 114.916 54.0811 118.281C54.0811 121.646 55.0386 124.323 56.6747 126.74L35.2008 137.496C34.0109 138.091 32.5886 137.877 31.6218 136.975Z" fill="#272727" stroke="#272727" stroke-width="2.78831" stroke-miterlimit="10"/>
<path d="M52.1184 80.0545L69.0372 62.048C70.2922 60.7187 72.4117 60.7187 73.6574 62.0573L90.9759 80.6587C91.9055 81.6534 92.0914 83.1408 91.4314 84.34L79.8114 105.489C77.2921 103.62 74.1779 102.514 70.8128 102.514C67.68 102.514 64.7703 103.471 62.3533 105.107L51.5978 83.6335C51.0029 82.4436 51.2167 81.0213 52.1184 80.0545Z" fill="#272727" stroke="#272727" stroke-width="2.78831" stroke-miterlimit="10"/>
<path d="M109.047 100.553L127.053 117.472C128.383 118.727 128.383 120.846 127.044 122.092L108.443 139.411C107.448 140.34 105.961 140.526 104.761 139.866L83.6129 128.246C85.4815 125.727 86.5877 122.613 86.5877 119.247C86.5877 116.115 85.6302 113.205 83.9941 110.788L105.468 100.032C106.658 99.4375 108.08 99.6513 109.047 100.553Z" fill="#272727" stroke="#272727" stroke-width="2.78831" stroke-miterlimit="10"/>
<path d="M82.3289 128.246L102.994 143.64C103.84 144.245 104.658 144.97 105.411 145.797C109.362 150.166 110.096 155.948 107.038 158.709C103.979 161.47 98.3088 160.159 94.3487 155.79C93.6143 154.972 92.9822 154.108 92.4709 153.225L79.1961 131.063" stroke="#272727" stroke-width="2.78831" stroke-miterlimit="10"/>
<path d="M60.8572 130.766L45.4629 151.431C44.8587 152.277 44.1336 153.095 43.3062 153.848C38.9371 157.799 33.1549 158.533 30.394 155.475C27.6331 152.417 28.9438 146.746 33.313 142.786C34.131 142.051 34.9956 141.419 35.8787 140.908L58.0498 127.624" stroke="#272727" stroke-width="2.78831" stroke-miterlimit="10"/>
<path d="M58.3277 109.292L37.6625 93.8976C36.8166 93.2933 35.9985 92.5682 35.2455 91.7409C31.2947 87.3717 30.5603 81.5896 33.6187 78.8286C36.6771 76.0677 42.3477 77.3785 46.3078 81.7476C47.0422 82.5657 47.6744 83.4302 48.1857 84.3133L61.4604 106.475" stroke="#272727" stroke-width="2.78831" stroke-miterlimit="10"/>
<path d="M79.8124 106.762L95.2067 86.0971C95.811 85.2512 96.5361 84.4331 97.3634 83.6802C101.733 79.7293 107.515 78.995 110.276 82.0534C113.037 85.1118 111.726 90.7824 107.357 94.7425C106.539 95.4769 105.674 96.109 104.791 96.6203L82.6199 109.904" stroke="#272727" stroke-width="2.78831" stroke-miterlimit="10"/>
<rect x="1275.35" y="1.25023" width="94.1542" height="26.1417" fill="#FDF3E2"/>
<rect x="1275.35" y="1.25023" width="94.1542" height="26.1417" stroke="#272727"/>
<path d="M1281.76 20.3221V9.12003H1284.19L1288.27 15.7612L1286.52 15.7452L1290.65 9.12003H1292.99V20.3221H1290.35V16.8334C1290.35 15.8733 1290.37 15.0091 1290.41 14.241C1290.47 13.4728 1290.55 12.71 1290.67 11.9525L1290.97 12.7847L1287.87 17.6016H1286.81L1283.77 12.8167L1284.08 11.9525C1284.19 12.6673 1284.27 13.4035 1284.32 14.1609C1284.37 14.9078 1284.4 15.7986 1284.4 16.8334V20.3221H1281.76ZM1295.8 20.3221V9.12003H1303.61V11.4405H1298.45V18.0017H1303.77V20.3221H1295.8ZM1297.08 15.7292V13.5208H1302.89V15.7292H1297.08ZM1306.12 20.3221V9.12003H1308.55L1314.42 17.1215L1313.9 17.0415C1313.84 16.6894 1313.8 16.3533 1313.77 16.0333C1313.74 15.7132 1313.7 15.3985 1313.67 15.0891C1313.65 14.7797 1313.63 14.465 1313.61 14.1449C1313.6 13.8249 1313.59 13.4782 1313.58 13.1048C1313.58 12.7314 1313.58 12.3259 1313.58 11.8885V9.12003H1316.22V20.3221H1313.75L1307.62 12.0646L1308.44 12.1766C1308.49 12.6887 1308.54 13.1261 1308.57 13.4888C1308.61 13.8409 1308.64 14.1556 1308.66 14.433C1308.7 14.7104 1308.72 14.9611 1308.73 15.1851C1308.74 15.4092 1308.74 15.6332 1308.74 15.8573C1308.75 16.0706 1308.76 16.3107 1308.76 16.5774V20.3221H1306.12ZM1323.75 20.4181C1322.82 20.4181 1321.99 20.2314 1321.27 19.858C1320.54 19.4739 1319.97 18.9512 1319.56 18.2897C1319.15 17.6282 1318.95 16.8708 1318.95 16.0173V9.12003H1321.7V15.8733C1321.7 16.2787 1321.79 16.6467 1321.97 16.9775C1322.15 17.2975 1322.4 17.5536 1322.71 17.7456C1323.02 17.927 1323.36 18.0177 1323.75 18.0177C1324.15 18.0177 1324.51 17.927 1324.82 17.7456C1325.14 17.5536 1325.4 17.2975 1325.59 16.9775C1325.78 16.6467 1325.88 16.2787 1325.88 15.8733V9.12003H1328.53V16.0173C1328.53 16.8708 1328.33 17.6282 1327.91 18.2897C1327.5 18.9512 1326.94 19.4739 1326.21 19.858C1325.49 20.2314 1324.67 20.4181 1323.75 20.4181Z" fill="#272727"/>
<path d="M1369.5 27.392V1.25023L1343.36 1.25023V27.392H1369.5Z" fill="#FDF3E2" stroke="#272727" stroke-width="0.929314"/>
<path d="M1368.86 14.3249L1356.48 27.2821L1344.09 14.3249H1368.86Z" fill="#5F3207" stroke="#272727" stroke-width="0.929314"/>
<path d="M1344.09 14.3243L1356.47 1.48074L1368.86 14.3243H1344.09Z" fill="#BAE8E5" stroke="#272727" stroke-width="0.929314"/>
</svg>
