<svg xmlns="http://www.w3.org/2000/svg" viewBox="0 0 700 500" width="700" height="500" fill="none">
  <path transform="translate(700,0) rotate(90) scale(0.7249)" d="M355.106 0C355.106 0 434.797 53.4757 433.622 115.854C466.308 117.927 493.728 147.012 505.044 187.256C508.917 200.853 510.919 215.671 510.658 231.158V231.097C510.528 238.597 509.918 245.975 508.743 253.048C507.916 258.597 506.742 264.024 505.306 269.207C505.303 269.216 505.3 269.225 505.298 269.233C505.315 269.226 505.332 269.218 505.349 269.21C513.487 265.43 522.236 263.479 531.245 263.601C536.337 263.662 541.343 264.454 546.174 265.796C583.995 276.345 611.981 323.723 610.937 379.454C610.937 380.186 610.936 380.856 610.893 381.588H610.937C655.383 383.173 689.401 497.269 689.452 497.441H689.408C689.359 497.585 651.21 609.086 606.715 607.441C605.278 653.356 584.343 691.892 555.444 707.685C545.869 712.989 535.38 715.734 524.412 715.429C519.059 715.246 513.88 714.392 508.831 712.807V712.746C504.85 711.534 500.998 709.899 497.275 707.843C499.958 719.283 501.364 731.498 501.256 744.142C500.734 807.251 463.477 857.434 418.562 855.788C418.039 855.788 417.56 855.727 417.038 855.727C415.908 918.045 334.499 965.696 334.344 965.787C334.16 965.663 254.654 912.24 255.784 849.935V849.873C212.087 847.19 177.791 796.276 178.748 734.63C178.939 722.348 180.504 710.543 183.243 699.519C175.33 703.02 166.911 704.847 158.207 704.7C113.16 703.968 77.3405 651.773 78.5156 588.847C78.5156 588.115 78.5596 587.444 78.5596 586.713C34.0353 585.128 0 470.859 0 470.859C0.0670878 470.663 38.2092 359.215 82.6943 360.799H82.7373C84.6524 299.58 121.126 251.531 164.997 252.872C174.835 253.172 184.243 255.97 192.918 260.82C192.684 259.901 192.459 258.976 192.242 258.048C189.5 246.585 188.064 234.328 188.194 221.646C188.238 216.341 188.543 211.158 189.108 206.097C194.984 150.487 229.716 108.476 270.889 110C271.411 110 271.89 110.061 272.412 110.061C273.544 47.7023 355.056 0.0296713 355.106 0Z" fill="white"/>
</svg>