<svg preserveAspectRatio="xMidYMid meet" width="689.452" height="965.787" overflow="visible" style="display: block;" viewBox="0 0 689.452 965.787" fill="none" xmlns="http://www.w3.org/2000/svg">
<g id="Intersect">
<mask id="path-1-inside-1_0_13" fill="white">
<path d="M355.106 0C355.106 0 434.797 53.4757 433.622 115.854C466.308 117.927 493.728 147.012 505.044 187.256C508.917 200.853 510.919 215.671 510.658 231.158V231.097C510.528 238.597 509.918 245.975 508.743 253.048C507.916 258.597 506.742 264.024 505.306 269.207C505.303 269.216 505.3 269.225 505.298 269.233C505.315 269.226 505.332 269.218 505.349 269.21C513.487 265.43 522.236 263.479 531.245 263.601C536.337 263.662 541.343 264.454 546.174 265.796C583.995 276.345 611.981 323.723 610.937 379.454C610.937 380.186 610.936 380.856 610.893 381.588H610.937C655.383 383.173 689.401 497.269 689.452 497.441H689.408C689.359 497.585 651.21 609.086 606.715 607.441C605.278 653.356 584.343 691.892 555.444 707.685C545.869 712.989 535.38 715.734 524.412 715.429C519.059 715.246 513.88 714.392 508.831 712.807V712.746C504.85 711.534 500.998 709.899 497.275 707.843C499.958 719.283 501.364 731.498 501.256 744.142C500.734 807.251 463.477 857.434 418.562 855.788C418.039 855.788 417.56 855.727 417.038 855.727C415.908 918.045 334.499 965.696 334.344 965.787C334.16 965.663 254.654 912.24 255.784 849.935V849.873C212.087 847.19 177.791 796.276 178.748 734.63C178.939 722.348 180.504 710.543 183.243 699.519C175.33 703.02 166.911 704.847 158.207 704.7C113.16 703.968 77.3405 651.773 78.5156 588.847C78.5156 588.115 78.5596 587.444 78.5596 586.713C34.0353 585.128 0 470.859 0 470.859C0.0670878 470.663 38.2092 359.215 82.6943 360.799H82.7373C84.6524 299.58 121.126 251.531 164.997 252.872C174.835 253.172 184.243 255.97 192.918 260.82C192.684 259.901 192.459 258.976 192.242 258.048C189.5 246.585 188.064 234.328 188.194 221.646C188.238 216.341 188.543 211.158 189.108 206.097C194.984 150.487 229.716 108.476 270.889 110C271.411 110 271.89 110.061 272.412 110.061C273.544 47.7023 355.056 0.0296713 355.106 0Z"/>
</mask>
<path d="M355.106 0C355.106 0 434.797 53.4757 433.622 115.854C466.308 117.927 493.728 147.012 505.044 187.256C508.917 200.853 510.919 215.671 510.658 231.158V231.097C510.528 238.597 509.918 245.975 508.743 253.048C507.916 258.597 506.742 264.024 505.306 269.207C505.303 269.216 505.3 269.225 505.298 269.233C505.315 269.226 505.332 269.218 505.349 269.21C513.487 265.43 522.236 263.479 531.245 263.601C536.337 263.662 541.343 264.454 546.174 265.796C583.995 276.345 611.981 323.723 610.937 379.454C610.937 380.186 610.936 380.856 610.893 381.588H610.937C655.383 383.173 689.401 497.269 689.452 497.441H689.408C689.359 497.585 651.21 609.086 606.715 607.441C605.278 653.356 584.343 691.892 555.444 707.685C545.869 712.989 535.38 715.734 524.412 715.429C519.059 715.246 513.88 714.392 508.831 712.807V712.746C504.85 711.534 500.998 709.899 497.275 707.843C499.958 719.283 501.364 731.498 501.256 744.142C500.734 807.251 463.477 857.434 418.562 855.788C418.039 855.788 417.56 855.727 417.038 855.727C415.908 918.045 334.499 965.696 334.344 965.787C334.16 965.663 254.654 912.24 255.784 849.935V849.873C212.087 847.19 177.791 796.276 178.748 734.63C178.939 722.348 180.504 710.543 183.243 699.519C175.33 703.02 166.911 704.847 158.207 704.7C113.16 703.968 77.3405 651.773 78.5156 588.847C78.5156 588.115 78.5596 587.444 78.5596 586.713C34.0353 585.128 0 470.859 0 470.859C0.0670878 470.663 38.2092 359.215 82.6943 360.799H82.7373C84.6524 299.58 121.126 251.531 164.997 252.872C174.835 253.172 184.243 255.97 192.918 260.82C192.684 259.901 192.459 258.976 192.242 258.048C189.5 246.585 188.064 234.328 188.194 221.646C188.238 216.341 188.543 211.158 189.108 206.097C194.984 150.487 229.716 108.476 270.889 110C271.411 110 271.89 110.061 272.412 110.061C273.544 47.7023 355.056 0.0296713 355.106 0Z" fill="var(--fill-0, #256C39)"/>
<path d="M355.106 0L356.778 -2.49111L355.216 -3.53931L353.592 -2.58976L355.106 0ZM433.622 115.854L430.623 115.797L430.569 118.666L433.432 118.847L433.622 115.854ZM505.044 187.256L502.156 188.068L502.159 188.078L505.044 187.256ZM510.658 231.158H507.658L513.658 231.209L510.658 231.158ZM510.658 231.097H513.658L507.659 231.044L510.658 231.097ZM508.743 253.048L505.784 252.556L505.78 252.581L505.776 252.606L508.743 253.048ZM505.306 269.207L508.196 270.009L508.197 270.008L505.306 269.207ZM505.298 269.233L502.408 268.428L500.678 274.639L506.543 271.963L505.298 269.233ZM505.349 269.21L506.591 271.941L506.602 271.936L506.612 271.931L505.349 269.21ZM531.245 263.601L531.205 266.6L531.209 266.6L531.245 263.601ZM546.174 265.796L546.98 262.906L546.977 262.905L546.174 265.796ZM610.937 379.454L607.937 379.398L607.937 379.426V379.454H610.937ZM610.893 381.588L607.898 381.41L607.709 384.588H610.893V381.588ZM610.937 381.588L611.043 378.59L610.99 378.588H610.937V381.588ZM689.452 497.441V500.441H693.477L692.327 496.585L689.452 497.441ZM689.408 497.441V494.441H687.264L686.57 496.471L689.408 497.441ZM606.715 607.441L606.826 604.443L603.811 604.332L603.716 607.348L606.715 607.441ZM555.444 707.685L554.006 705.052L553.998 705.056L553.99 705.06L555.444 707.685ZM524.412 715.429L524.31 718.427L524.319 718.427L524.329 718.428L524.412 715.429ZM508.831 712.807H505.831V715.009L507.932 715.669L508.831 712.807ZM508.831 712.746H511.831V710.524L509.705 709.876L508.831 712.746ZM497.275 707.843L498.726 705.217L492.812 701.951L494.355 708.528L497.275 707.843ZM501.256 744.142L498.256 744.116L498.256 744.117L501.256 744.142ZM418.562 855.788L418.671 852.79L418.616 852.788H418.562V855.788ZM417.038 855.727L417.038 852.727H414.092L414.039 855.672L417.038 855.727ZM334.344 965.787L332.671 968.278L334.234 969.327L335.859 968.377L334.344 965.787ZM255.784 849.935L258.784 849.989L258.784 849.962V849.935H255.784ZM255.784 849.873H258.784V847.052L255.968 846.879L255.784 849.873ZM178.748 734.63L175.748 734.583V734.583L178.748 734.63ZM183.243 699.519L186.155 700.242L187.632 694.296L182.029 696.775L183.243 699.519ZM158.207 704.7L158.258 701.701L158.256 701.701L158.207 704.7ZM78.5156 588.847L81.5151 588.903L81.5156 588.875V588.847L78.5156 588.847ZM78.5596 586.713H81.5596L81.5596 583.818L78.6663 583.715L78.5596 586.713ZM0 470.859L-2.83853 469.888L-3.14906 470.796L-2.87517 471.716L0 470.859ZM82.6943 360.799L82.5876 363.797L82.6409 363.799H82.6943V360.799ZM82.7373 360.799V363.799H85.6449L85.7358 360.893L82.7373 360.799ZM164.997 252.872L164.905 255.871L164.906 255.871L164.997 252.872ZM192.918 260.82L191.454 263.439L197.543 266.844L195.826 260.082L192.918 260.82ZM192.242 258.048L195.163 257.365L195.162 257.357L195.16 257.35L192.242 258.048ZM188.194 221.646L191.194 221.676L191.194 221.67L188.194 221.646ZM189.108 206.097L192.09 206.43L192.091 206.421L192.092 206.412L189.108 206.097ZM270.889 110L270.778 112.998L270.833 113H270.889V110ZM272.412 110.061L272.412 113.061L275.358 113.061L275.412 110.115L272.412 110.061ZM355.106 0C353.435 2.49111 353.434 2.49087 353.434 2.49083C353.435 2.49108 353.435 2.49125 353.436 2.49176C353.437 2.49279 353.44 2.49463 353.444 2.49728C353.452 2.50258 353.464 2.51111 353.482 2.52285C353.516 2.54634 353.57 2.58266 353.642 2.63167C353.785 2.72968 354.001 2.87837 354.285 3.0764C354.853 3.47246 355.692 4.06573 356.763 4.84531C358.906 6.4047 361.976 8.70824 365.661 11.6689C373.035 17.594 382.847 26.1311 392.613 36.5832C412.265 57.6171 431.187 85.8311 430.623 115.797L433.622 115.854L436.622 115.91C437.232 83.4982 416.896 53.7854 396.997 32.487C386.987 21.7729 376.95 13.0424 369.419 6.9916C365.651 3.96422 362.504 1.60265 360.294 -0.00607584C359.188 -0.810551 358.316 -1.42709 357.717 -1.84482C357.418 -2.0537 357.187 -2.21289 357.028 -2.32105C356.949 -2.37514 356.889 -2.41646 356.847 -2.44486C356.826 -2.45906 356.809 -2.47003 356.798 -2.47774C356.792 -2.4816 356.788 -2.48464 356.784 -2.48687C356.783 -2.48799 356.781 -2.48905 356.78 -2.4896C356.779 -2.49046 356.778 -2.49111 355.106 0ZM433.622 115.854L433.432 118.847C464.336 120.808 491.022 148.472 502.156 188.068L505.044 187.256L507.932 186.444C496.434 145.552 468.28 115.046 433.812 112.86L433.622 115.854ZM505.044 187.256L502.159 188.078C505.95 201.386 507.915 215.909 507.659 231.108L510.658 231.158L513.658 231.209C513.924 215.432 511.885 200.32 507.929 186.434L505.044 187.256ZM510.658 231.158H513.658V231.097H510.658H507.658V231.158H510.658ZM510.658 231.097L507.659 231.044C507.53 238.418 506.931 245.648 505.784 252.556L508.743 253.048L511.703 253.54C512.905 246.301 513.525 238.775 513.658 231.149L510.658 231.097ZM508.743 253.048L505.776 252.606C504.968 258.028 503.82 263.336 502.415 268.406L505.306 269.207L508.197 270.008C509.664 264.713 510.865 259.165 511.71 253.49L508.743 253.048ZM505.306 269.207L502.415 268.405C502.421 268.383 502.426 268.366 502.429 268.356C502.43 268.351 502.432 268.347 502.432 268.346C502.433 268.344 502.433 268.343 502.433 268.344C502.432 268.345 502.431 268.348 502.43 268.351C502.429 268.355 502.427 268.361 502.425 268.368C502.421 268.381 502.415 268.402 502.408 268.428L505.298 269.233L508.188 270.039C508.182 270.06 508.177 270.077 508.174 270.086C508.173 270.09 508.172 270.094 508.171 270.096C508.171 270.097 508.17 270.098 508.171 270.096C508.171 270.095 508.172 270.092 508.173 270.088C508.175 270.084 508.176 270.078 508.179 270.071C508.183 270.057 508.189 270.036 508.196 270.009L505.306 269.207ZM505.298 269.233L506.543 271.963C506.563 271.954 506.581 271.945 506.587 271.942C506.597 271.938 506.595 271.939 506.591 271.941L505.349 269.21L504.106 266.479C504.085 266.489 504.067 266.497 504.059 266.501C504.049 266.506 504.05 266.505 504.053 266.504L505.298 269.233ZM505.349 269.21L506.612 271.931C514.359 268.333 522.663 266.485 531.205 266.6L531.245 263.601L531.286 260.601C521.809 260.473 512.616 262.526 504.085 266.489L505.349 269.21ZM531.245 263.601L531.209 266.6C536.013 266.658 540.76 267.406 545.371 268.687L546.174 265.796L546.977 262.905C541.925 261.503 536.661 260.665 531.281 260.601L531.245 263.601ZM546.174 265.796L545.368 268.686C581.345 278.72 608.968 324.396 607.937 379.398L610.937 379.454L613.936 379.51C614.994 323.05 586.646 273.97 546.98 262.906L546.174 265.796ZM610.937 379.454H607.937C607.937 380.195 607.935 380.78 607.898 381.41L610.893 381.588L613.887 381.766C613.937 380.933 613.937 380.177 613.937 379.454H610.937ZM610.893 381.588V384.588H610.937V381.588V378.588H610.893V381.588ZM610.937 381.588L610.83 384.586C620.67 384.937 630.409 391.571 639.679 402.296C648.876 412.937 657.164 427.092 664.148 441.363C678.104 469.881 686.566 498.26 686.577 498.298L689.452 497.441L692.327 496.585C692.287 496.45 683.714 467.694 669.537 438.726C662.455 424.253 653.901 409.576 644.218 398.373C634.607 387.253 623.427 379.031 611.043 378.59L610.937 381.588ZM689.452 497.441V494.441H689.408V497.441V500.441H689.452V497.441ZM689.408 497.441L686.57 496.471C686.571 496.466 684.198 503.404 679.948 513.784C675.695 524.168 669.578 537.96 662.095 551.675C654.598 565.418 645.806 578.942 636.238 588.888C626.601 598.907 616.656 604.807 606.826 604.443L606.715 607.441L606.604 610.439C619.021 610.898 630.531 603.477 640.562 593.048C650.664 582.546 659.755 568.493 667.362 554.549C682.591 526.635 692.206 498.532 692.247 498.412L689.408 497.441ZM606.715 607.441L603.716 607.348C602.302 652.547 581.702 689.917 554.006 705.052L555.444 707.685L556.883 710.317C586.985 693.867 608.255 654.164 609.713 607.535L606.715 607.441ZM555.444 707.685L553.99 705.06C544.854 710.122 534.892 712.719 524.495 712.43L524.412 715.429L524.329 718.428C535.867 718.748 546.884 715.857 556.898 710.309L555.444 707.685ZM524.412 715.429L524.515 712.43C519.418 712.256 514.508 711.445 509.73 709.944L508.831 712.807L507.932 715.669C513.252 717.339 518.7 718.235 524.31 718.427L524.412 715.429ZM508.831 712.807H511.831V712.746H508.831H505.831V712.807H508.831ZM508.831 712.746L509.705 709.876C505.929 708.726 502.27 707.174 498.726 705.217L497.275 707.843L495.825 710.469C499.727 712.624 503.772 714.341 507.957 715.616L508.831 712.746ZM497.275 707.843L494.355 708.528C496.982 719.734 498.362 731.71 498.256 744.116L501.256 744.142L504.256 744.167C504.366 731.285 502.933 718.832 500.196 707.158L497.275 707.843ZM501.256 744.142L498.256 744.117C497.999 775.115 488.718 802.802 474.146 822.462C459.573 842.124 439.888 853.568 418.671 852.79L418.562 855.788L418.452 858.786C442.151 859.655 463.552 846.83 478.966 826.035C494.382 805.237 503.99 776.278 504.256 744.166L501.256 744.142ZM418.562 855.788V852.788C418.407 852.788 418.247 852.779 417.984 852.763C417.746 852.748 417.406 852.727 417.038 852.727L417.038 855.727L417.038 858.727C417.193 858.727 417.353 858.736 417.616 858.752C417.854 858.766 418.194 858.788 418.562 858.788V855.788ZM417.038 855.727L414.039 855.672C413.496 885.589 393.615 912.354 373.247 931.929C352.979 951.407 332.818 963.204 332.829 963.198L334.344 965.787L335.859 968.377C336.026 968.279 356.646 956.205 377.404 936.255C398.062 916.402 419.45 888.183 420.038 855.781L417.038 855.727ZM334.344 965.787L336.016 963.297C336.024 963.302 331.093 959.991 323.712 954.057C316.328 948.12 306.521 939.58 296.764 929.132C277.13 908.105 258.241 879.921 258.784 849.989L255.784 849.935L252.785 849.88C252.198 882.254 272.497 911.934 292.378 933.226C312.361 954.626 332.496 968.16 332.671 968.278L334.344 965.787ZM255.784 849.935H258.784V849.873H255.784H252.784V849.935H255.784ZM255.784 849.873L255.968 846.879C235.298 845.61 216.562 832.914 203.013 812.693C189.471 792.482 181.277 764.954 181.748 734.676L178.748 734.63L175.748 734.583C175.261 765.951 183.737 794.704 198.028 816.032C212.312 837.35 232.573 851.454 255.6 852.867L255.784 849.873ZM178.748 734.63L181.748 734.676C181.935 722.619 183.472 711.041 186.155 700.242L183.243 699.519L180.332 698.795C177.537 710.046 175.943 722.078 175.748 734.583L178.748 734.63ZM183.243 699.519L182.029 696.775C174.489 700.112 166.5 701.839 158.258 701.701L158.207 704.7L158.157 707.7C167.323 707.854 176.171 705.928 184.457 702.262L183.243 699.519ZM158.207 704.7L158.256 701.701C136.962 701.355 117.555 688.843 103.5 668.397C89.4525 647.96 80.938 619.808 81.5151 588.903L78.5156 588.847L75.5162 588.791C74.9182 620.812 83.7261 650.221 98.5559 671.796C113.38 693.362 134.406 707.314 158.158 707.7L158.207 704.7ZM78.5156 588.847L81.5156 588.847C81.5156 588.535 81.5249 588.231 81.5361 587.874C81.5469 587.529 81.5596 587.133 81.5596 586.713H78.5596H75.5596C75.5596 587.024 75.5503 587.329 75.5391 587.686C75.5283 588.03 75.5156 588.427 75.5156 588.847L78.5156 588.847ZM78.5596 586.713L78.6663 583.715C68.8069 583.364 59.0518 576.718 49.7706 565.98C40.5617 555.326 32.2658 541.155 25.2779 526.873C18.3033 512.618 12.6985 498.392 8.8346 487.717C6.90401 482.384 5.41118 477.945 4.40221 474.844C3.89779 473.294 3.51447 472.078 3.25801 471.253C3.12978 470.84 3.03329 470.525 2.96924 470.314C2.93721 470.209 2.9133 470.13 2.89759 470.078C2.88974 470.052 2.88394 470.032 2.8802 470.02C2.87833 470.014 2.87697 470.009 2.87613 470.006C2.87571 470.005 2.87547 470.004 2.87526 470.003C2.87515 470.003 2.87517 470.003 0 470.859C-2.87517 471.716 -2.87489 471.717 -2.87449 471.718C-2.87418 471.719 -2.87364 471.721 -2.87302 471.723C-2.87178 471.727 -2.87003 471.733 -2.86775 471.741C-2.86321 471.756 -2.85659 471.778 -2.84792 471.807C-2.83057 471.864 -2.80498 471.949 -2.77125 472.06C-2.70379 472.282 -2.60373 472.609 -2.4718 473.033C-2.20796 473.882 -1.81657 475.123 -1.30338 476.701C-0.277126 479.855 1.2369 484.356 3.1928 489.76C7.10193 500.56 12.7887 515 19.8884 529.51C26.9749 543.993 35.5361 558.687 45.2313 569.904C54.8541 581.037 66.0501 589.269 78.4528 589.711L78.5596 586.713ZM0 470.859L2.83853 471.83C2.85563 471.78 12.3429 444.061 27.324 416.598C34.8213 402.855 43.6125 389.33 53.1784 379.379C62.8141 369.355 72.7578 363.447 82.5876 363.797L82.6943 360.799L82.8011 357.801C70.3883 357.359 58.8823 364.787 48.8528 375.221C38.7536 385.727 29.664 399.78 22.0568 413.725C6.82882 441.64 -2.78854 469.742 -2.83853 469.888L0 470.859ZM82.6943 360.799V363.799H82.7373V360.799V357.799H82.6943V360.799ZM82.7373 360.799L85.7358 360.893C86.6764 330.827 96.103 304.132 110.521 285.192C124.938 266.253 144.179 255.237 164.905 255.871L164.997 252.872L165.089 249.873C141.944 249.166 121.012 261.504 105.746 281.558C90.4809 301.612 80.7133 329.551 79.7388 360.705L82.7373 360.799ZM164.997 252.872L164.906 255.871C174.221 256.155 183.162 258.803 191.454 263.439L192.918 260.82L194.382 258.202C185.324 253.137 175.449 250.189 165.089 249.873L164.997 252.872ZM192.918 260.82L195.826 260.082C195.597 259.182 195.376 258.275 195.163 257.365L192.242 258.048L189.321 258.731C189.542 259.677 189.772 260.62 190.01 261.559L192.918 260.82ZM192.242 258.048L195.16 257.35C192.475 246.125 191.066 234.114 191.194 221.676L188.194 221.646L185.194 221.615C185.061 234.543 186.525 247.044 189.324 258.746L192.242 258.048ZM188.194 221.646L191.194 221.67C191.237 216.464 191.536 211.384 192.09 206.43L189.108 206.097L186.127 205.763C185.549 210.931 185.239 216.217 185.194 221.621L188.194 221.646ZM189.108 206.097L192.092 206.412C194.976 179.117 204.931 155.3 219.055 138.558C233.173 121.824 251.321 112.278 270.778 112.998L270.889 110L271 107.002C249.283 106.198 229.48 116.896 214.469 134.689C199.466 152.473 189.117 177.467 186.125 205.781L189.108 206.097ZM270.889 110V113C271.045 113 271.207 113.009 271.469 113.025C271.707 113.039 272.046 113.061 272.412 113.061L272.412 110.061L272.412 107.061C272.256 107.061 272.094 107.052 271.831 107.036C271.594 107.021 271.255 107 270.889 107V110ZM272.412 110.061L275.412 110.115C275.955 80.1789 295.862 53.3984 316.243 33.8206C336.523 14.3396 356.685 2.55243 356.621 2.58976L355.106 0L353.592 -2.58976C353.478 -2.52276 332.857 9.54119 312.086 29.4935C291.416 49.3489 270.001 77.5839 269.413 110.006L272.412 110.061Z" fill="var(--stroke-0, #272727)" mask="url(#path-1-inside-1_0_13)"/>
</g>
</svg>
