<svg preserveAspectRatio="xMidYMid meet" width="689.448" height="965.788" overflow="visible" style="display: block;" viewBox="0 0 689.448 965.788" fill="none" xmlns="http://www.w3.org/2000/svg">
<g id="Intersect">
<mask id="path-1-inside-1_0_4" fill="white">
<path d="M355.104 0C355.151 0.0309258 434.795 53.4937 433.62 115.854C466.306 117.927 493.725 147.012 505.041 187.256C508.915 200.853 510.917 215.671 510.656 231.158V231.098C510.526 238.598 509.916 245.976 508.741 253.049C507.914 258.597 506.739 264.024 505.303 269.207C505.3 269.217 505.297 269.227 505.294 269.236C505.311 269.228 505.329 269.221 505.346 269.213C513.484 265.432 522.233 263.481 531.242 263.603C536.334 263.664 541.34 264.456 546.171 265.798C583.992 276.347 611.977 323.726 610.933 379.457C610.933 380.189 610.933 380.859 610.89 381.591H610.933C655.361 383.174 689.368 497.175 689.448 497.444H689.404C689.404 497.444 651.235 609.091 606.711 607.444C605.275 653.359 584.34 691.896 555.44 707.688C545.866 712.993 535.377 715.737 524.409 715.433C519.056 715.25 513.877 714.396 508.828 712.811V712.75C504.848 711.538 500.997 709.903 497.274 707.848C499.956 719.286 501.361 731.5 501.253 744.142C500.73 807.251 463.475 857.434 418.56 855.788C418.037 855.788 417.558 855.727 417.036 855.727C415.906 918.04 334.512 965.689 334.343 965.788C334.251 965.726 254.652 912.276 255.783 849.934V849.873C212.086 847.19 177.79 796.275 178.747 734.629C178.938 722.349 180.503 710.547 183.241 699.523C175.328 703.024 166.91 704.852 158.206 704.705C113.16 703.973 77.3405 651.777 78.5156 588.851C78.5156 588.119 78.5586 587.448 78.5586 586.717C34.0735 585.132 0.0592201 471.062 0 470.863C0.0604386 470.687 38.2048 359.218 82.6934 360.802H82.7373C84.6525 299.582 121.125 251.534 164.996 252.875C174.834 253.175 184.243 255.973 192.918 260.823C192.684 259.903 192.458 258.978 192.241 258.049C189.499 246.585 188.063 234.329 188.193 221.646C188.237 216.342 188.542 211.159 189.107 206.098C194.983 150.488 229.715 108.476 270.888 110C271.41 110 271.889 110.061 272.411 110.061C273.543 47.6828 355.104 0 355.104 0Z"/>
</mask>
<path d="M355.104 0L356.776 -2.49098L355.214 -3.5393L353.59 -2.58988L355.104 0ZM433.62 115.854L430.621 115.797L430.567 118.666L433.43 118.847L433.62 115.854ZM505.041 187.256L502.153 188.068L502.156 188.078L505.041 187.256ZM510.656 231.158H507.656L513.656 231.209L510.656 231.158ZM510.656 231.098H513.656L507.657 231.045L510.656 231.098ZM508.741 253.049L505.782 252.557L505.778 252.582L505.774 252.607L508.741 253.049ZM505.303 269.207L508.193 270.009L508.194 270.008L505.303 269.207ZM505.294 269.236L502.404 268.431L500.673 274.641L506.539 271.966L505.294 269.236ZM505.346 269.213L506.588 271.943L506.599 271.939L506.61 271.934L505.346 269.213ZM531.242 263.603L531.202 266.602L531.206 266.602L531.242 263.603ZM546.171 265.798L546.977 262.908L546.974 262.907L546.171 265.798ZM610.933 379.457L607.933 379.401L607.933 379.429V379.457H610.933ZM610.89 381.591L607.895 381.413L607.706 384.591H610.89V381.591ZM610.933 381.591L611.039 378.593L610.986 378.591H610.933V381.591ZM689.448 497.444V500.444H693.473L692.323 496.587L689.448 497.444ZM689.404 497.444V494.444H687.259L686.566 496.474L689.404 497.444ZM606.711 607.444L606.822 604.446L603.807 604.335L603.712 607.351L606.711 607.444ZM555.44 707.688L554.002 705.056L553.994 705.06L553.987 705.064L555.44 707.688ZM524.409 715.433L524.307 718.431L524.316 718.431L524.326 718.431L524.409 715.433ZM508.828 712.811H505.828V715.013L507.929 715.673L508.828 712.811ZM508.828 712.75H511.828V710.528L509.702 709.88L508.828 712.75ZM497.274 707.848L498.725 705.222L492.812 701.956L494.354 708.532L497.274 707.848ZM501.253 744.142L498.253 744.116L498.253 744.117L501.253 744.142ZM418.56 855.788L418.669 852.79L418.615 852.788H418.56V855.788ZM417.036 855.727L417.036 852.727L414.09 852.727L414.037 855.672L417.036 855.727ZM334.343 965.788L332.671 968.279L334.233 969.328L335.858 968.378L334.343 965.788ZM255.783 849.934L258.783 849.988L258.783 849.961V849.934H255.783ZM255.783 849.873H258.783V847.052L255.967 846.879L255.783 849.873ZM178.747 734.629L175.747 734.582V734.582L178.747 734.629ZM183.241 699.523L186.153 700.247L187.629 694.301L182.027 696.78L183.241 699.523ZM158.206 704.705L158.257 701.706L158.255 701.705L158.206 704.705ZM78.5156 588.851L81.5151 588.907L81.5156 588.879V588.851L78.5156 588.851ZM78.5586 586.717H81.5586L81.5586 583.822L78.6654 583.719L78.5586 586.717ZM0 470.863L-2.83855 469.892L-3.14913 470.8L-2.87504 471.72L0 470.863ZM82.6934 360.802L82.5867 363.8L82.64 363.802H82.6934V360.802ZM82.7373 360.802V363.802H85.6449L85.7358 360.896L82.7373 360.802ZM164.996 252.875L164.904 255.874L164.905 255.874L164.996 252.875ZM192.918 260.823L191.454 263.442L197.544 266.847L195.826 260.085L192.918 260.823ZM192.241 258.049L195.162 257.366L195.161 257.358L195.159 257.351L192.241 258.049ZM188.193 221.646L191.193 221.677L191.193 221.671L188.193 221.646ZM189.107 206.098L192.089 206.431L192.09 206.422L192.091 206.413L189.107 206.098ZM270.888 110L270.777 112.998L270.832 113H270.888L270.888 110ZM272.411 110.061V113.061H275.357L275.411 110.115L272.411 110.061ZM355.104 0L353.433 2.49098C353.372 2.45045 373.082 15.6768 392.628 36.6013C412.274 57.6334 431.185 85.8398 430.621 115.797L433.62 115.854L436.62 115.91C437.23 83.5074 416.906 53.8025 397.012 32.5055C377.018 11.1009 356.883 -2.41953 356.776 -2.49098L355.104 0ZM433.62 115.854L433.43 118.847C464.334 120.808 491.019 148.473 502.153 188.068L505.041 187.256L507.929 186.444C496.431 145.552 468.277 115.046 433.81 112.86L433.62 115.854ZM505.041 187.256L502.156 188.078C505.947 201.386 507.913 215.91 507.657 231.108L510.656 231.158L513.656 231.209C513.922 215.432 511.882 200.32 507.926 186.434L505.041 187.256ZM510.656 231.158H513.656V231.098H510.656H507.656V231.158H510.656ZM510.656 231.098L507.657 231.045C507.528 238.419 506.929 245.649 505.782 252.557L508.741 253.049L511.701 253.54C512.903 246.302 513.523 238.776 513.656 231.15L510.656 231.098ZM508.741 253.049L505.774 252.607C504.966 258.028 503.817 263.335 502.412 268.406L505.303 269.207L508.194 270.008C509.661 264.713 510.863 259.166 511.708 253.491L508.741 253.049ZM505.303 269.207L502.412 268.405C502.419 268.378 502.426 268.357 502.429 268.346C502.431 268.34 502.432 268.336 502.433 268.333C502.433 268.332 502.434 268.33 502.433 268.332C502.433 268.332 502.432 268.336 502.431 268.34C502.429 268.344 502.427 268.351 502.425 268.359C502.42 268.375 502.413 268.4 502.404 268.431L505.294 269.236L508.184 270.042C508.176 270.068 508.17 270.088 508.167 270.099C508.165 270.104 508.164 270.109 508.164 270.111C508.163 270.112 508.163 270.114 508.163 270.112C508.164 270.111 508.165 270.107 508.166 270.103C508.168 270.098 508.17 270.091 508.172 270.083C508.177 270.067 508.185 270.041 508.193 270.009L505.303 269.207ZM505.294 269.236L506.539 271.966C506.59 271.943 506.513 271.978 506.588 271.943L505.346 269.213L504.103 266.482C504.1 266.484 504.095 266.486 504.085 266.49C504.077 266.494 504.064 266.5 504.049 266.507L505.294 269.236ZM505.346 269.213L506.61 271.934C514.356 268.336 522.66 266.487 531.202 266.602L531.242 263.603L531.283 260.603C521.806 260.475 512.613 262.529 504.082 266.492L505.346 269.213ZM531.242 263.603L531.206 266.602C536.01 266.66 540.758 267.408 545.368 268.688L546.171 265.798L546.974 262.907C541.922 261.505 536.658 260.667 531.278 260.603L531.242 263.603ZM546.171 265.798L545.365 268.688C581.341 278.722 608.964 324.399 607.933 379.401L610.933 379.457L613.932 379.513C614.99 323.053 586.643 273.972 546.977 262.908L546.171 265.798ZM610.933 379.457H607.933C607.933 380.202 607.932 380.784 607.895 381.413L610.89 381.591L613.884 381.769C613.934 380.934 613.933 380.175 613.933 379.457H610.933ZM610.89 381.591V384.591H610.933V381.591V378.591H610.89V381.591ZM610.933 381.591L610.826 384.589C620.661 384.939 630.397 391.568 639.663 402.285C648.857 412.918 657.143 427.064 664.126 441.329C678.081 469.836 686.547 498.215 686.573 498.301L689.448 497.444L692.323 496.587C692.269 496.404 683.691 467.648 669.515 438.691C662.433 424.225 653.882 409.557 644.202 398.361C634.594 387.249 623.418 379.034 611.039 378.593L610.933 381.591ZM689.448 497.444V494.444H689.404V497.444V500.444H689.448V497.444ZM689.404 497.444C686.566 496.474 686.566 496.474 686.565 496.474C686.565 496.475 686.565 496.476 686.565 496.477C686.564 496.48 686.562 496.484 686.56 496.49C686.556 496.502 686.549 496.521 686.541 496.547C686.523 496.598 686.496 496.675 686.46 496.778C686.389 496.983 686.281 497.291 686.138 497.693C685.852 498.499 685.425 499.684 684.864 501.196C683.744 504.218 682.091 508.542 679.968 513.727C675.72 524.105 669.604 537.901 662.12 551.625C654.621 565.378 645.825 578.915 636.253 588.872C626.61 598.903 616.659 604.81 606.822 604.446L606.711 607.444L606.6 610.442C619.025 610.902 630.542 603.471 640.578 593.03C650.685 582.517 659.779 568.452 667.388 554.498C675.012 540.516 681.221 526.504 685.521 516C687.672 510.744 689.35 506.358 690.49 503.281C691.06 501.743 691.497 500.532 691.792 499.702C691.939 499.288 692.051 498.968 692.126 498.752C692.164 498.643 692.193 498.56 692.212 498.504C692.222 498.476 692.229 498.454 692.235 498.439C692.237 498.432 692.239 498.426 692.241 498.422C692.241 498.42 692.242 498.418 692.242 498.417C692.243 498.416 692.243 498.415 689.404 497.444ZM606.711 607.444L603.712 607.351C602.299 652.55 581.698 689.921 554.002 705.056L555.44 707.688L556.879 710.321C586.981 693.871 608.251 654.167 609.709 607.538L606.711 607.444ZM555.44 707.688L553.987 705.064C544.85 710.126 534.889 712.723 524.493 712.434L524.409 715.433L524.326 718.431C535.864 718.752 546.88 715.861 556.894 710.313L555.44 707.688ZM524.409 715.433L524.512 712.434C519.415 712.26 514.505 711.449 509.727 709.948L508.828 712.811L507.929 715.673C513.249 717.343 518.697 718.239 524.307 718.431L524.409 715.433ZM508.828 712.811H511.828V712.75H508.828H505.828V712.811H508.828ZM508.828 712.75L509.702 709.88C505.927 708.73 502.268 707.178 498.725 705.222L497.274 707.848L495.824 710.474C499.725 712.628 503.769 714.345 507.954 715.62L508.828 712.75ZM497.274 707.848L494.354 708.532C496.98 719.737 498.359 731.712 498.253 744.116L501.253 744.142L504.253 744.167C504.363 731.287 502.932 718.836 500.195 707.163L497.274 707.848ZM501.253 744.142L498.253 744.117C497.996 775.115 488.715 802.802 474.144 822.462C459.57 842.124 439.886 853.568 418.669 852.79L418.56 855.788L418.45 858.786C442.149 859.655 463.55 846.83 478.964 826.035C494.379 805.237 503.987 776.278 504.253 744.166L501.253 744.142ZM418.56 855.788V852.788C418.405 852.788 418.245 852.779 417.982 852.763C417.744 852.748 417.404 852.727 417.036 852.727L417.036 855.727L417.036 858.727C417.191 858.727 417.351 858.736 417.614 858.752C417.852 858.766 418.192 858.788 418.56 858.788V855.788ZM417.036 855.727L414.037 855.672C413.494 885.586 393.616 912.35 373.25 931.925C352.984 951.403 332.823 963.201 332.828 963.199L334.343 965.788L335.858 968.378C336.031 968.276 356.652 956.2 377.408 936.251C398.064 916.398 419.448 888.18 420.036 855.781L417.036 855.727ZM334.343 965.788L336.015 963.297C336.052 963.322 316.342 950.091 296.797 929.168C277.151 908.137 258.239 879.938 258.783 849.988L255.783 849.934L252.784 849.879C252.196 882.272 272.519 911.968 292.412 933.264C312.406 954.667 332.541 968.192 332.671 968.279L334.343 965.788ZM255.783 849.934H258.783V849.873H255.783H252.783V849.934H255.783ZM255.783 849.873L255.967 846.879C235.297 845.61 216.561 832.914 203.012 812.692C189.47 792.481 181.276 764.954 181.747 734.675L178.747 734.629L175.747 734.582C175.26 765.951 183.736 794.703 198.027 816.032C212.311 837.35 232.572 851.454 255.599 852.867L255.783 849.873ZM178.747 734.629L181.747 734.675C181.934 722.62 183.471 711.044 186.153 700.247L183.241 699.523L180.33 698.8C177.536 710.049 175.942 722.079 175.747 734.582L178.747 734.629ZM183.241 699.523L182.027 696.78C174.487 700.116 166.499 701.844 158.257 701.706L158.206 704.705L158.156 707.705C167.321 707.859 176.17 705.933 184.455 702.267L183.241 699.523ZM158.206 704.705L158.255 701.705C136.961 701.36 117.554 688.848 103.5 668.402C89.4523 647.964 80.938 619.812 81.5151 588.907L78.5156 588.851L75.5162 588.795C74.9182 620.816 83.7259 650.225 98.5555 671.8C113.379 693.366 134.405 707.319 158.157 707.705L158.206 704.705ZM78.5156 588.851L81.5156 588.851C81.5156 588.538 81.5248 588.232 81.5357 587.876C81.5463 587.531 81.5586 587.136 81.5586 586.717H78.5586H75.5586C75.5586 587.029 75.5495 587.335 75.5385 587.692C75.528 588.036 75.5156 588.432 75.5156 588.851L78.5156 588.851ZM78.5586 586.717L78.6654 583.719C68.8148 583.368 59.0682 576.734 49.794 566.011C40.5918 555.373 32.3005 541.221 25.314 526.951C11.3527 498.436 2.89026 470.058 2.87504 470.006L0 470.863L-2.87504 471.72C-2.83104 471.868 5.74326 500.624 19.9252 529.589C27.0104 544.06 35.5673 558.735 45.256 569.937C54.8728 581.055 66.0599 589.273 78.4518 589.715L78.5586 586.717ZM0 470.863L2.83855 471.834C2.85233 471.794 12.3385 444.074 27.3198 416.609C34.8172 402.864 43.6087 389.338 53.1753 379.385C62.8116 369.359 72.7561 363.45 82.5867 363.8L82.6934 360.802L82.8001 357.804C70.3863 357.362 58.8796 364.792 48.8495 375.227C38.7497 385.735 29.6598 399.789 22.0525 413.736C6.82435 441.653 -2.79189 469.756 -2.83855 469.892L0 470.863ZM82.6934 360.802V363.802H82.7373V360.802V357.802H82.6934V360.802ZM82.7373 360.802L85.7358 360.896C86.6764 330.83 96.1028 304.135 110.52 285.195C124.937 266.255 144.178 255.24 164.904 255.874L164.996 252.875L165.088 249.876C141.943 249.169 121.012 261.507 105.746 281.561C90.4808 301.615 80.7134 329.554 79.7388 360.708L82.7373 360.802ZM164.996 252.875L164.905 255.874C174.221 256.158 183.162 258.805 191.454 263.442L192.918 260.823L194.382 258.205C185.324 253.14 175.448 250.192 165.088 249.876L164.996 252.875ZM192.918 260.823L195.826 260.085C195.596 259.183 195.375 258.276 195.162 257.366L192.241 258.049L189.32 258.732C189.542 259.68 189.772 260.623 190.01 261.562L192.918 260.823ZM192.241 258.049L195.159 257.351C192.474 246.126 191.065 234.115 191.193 221.677L188.193 221.646L185.194 221.616C185.06 234.544 186.525 247.045 189.324 258.747L192.241 258.049ZM188.193 221.646L191.193 221.671C191.236 216.465 191.535 211.385 192.089 206.431L189.107 206.098L186.126 205.764C185.548 210.932 185.238 216.218 185.193 221.622L188.193 221.646ZM189.107 206.098L192.091 206.413C194.975 179.118 204.93 155.301 219.054 138.558C233.172 121.824 251.321 112.278 270.777 112.998L270.888 110L270.999 107.002C249.282 106.198 229.479 116.896 214.468 134.689C199.465 152.474 189.116 177.468 186.124 205.782L189.107 206.098ZM270.888 110L270.888 113C271.044 113 271.206 113.009 271.468 113.025C271.706 113.039 272.045 113.061 272.411 113.061V110.061V107.061C272.255 107.061 272.093 107.052 271.83 107.036C271.593 107.021 271.254 107 270.888 107L270.888 110ZM272.411 110.061L275.411 110.115C275.954 80.1695 295.873 53.3817 316.26 33.8024C326.392 24.0721 336.501 16.2556 344.08 10.8707C347.867 8.18017 351.016 6.10145 353.212 4.6991C354.31 3.99803 355.169 3.46632 355.75 3.11203C356.041 2.93489 356.262 2.80213 356.408 2.71477C356.481 2.67108 356.536 2.63875 356.571 2.61789C356.589 2.60746 356.602 2.5999 356.609 2.59523C356.613 2.59289 356.616 2.59128 356.618 2.59038C356.618 2.58994 356.619 2.58981 356.619 2.58959C356.619 2.58964 356.619 2.58988 355.104 0C353.59 -2.58988 353.589 -2.58928 353.588 -2.5885C353.587 -2.58799 353.586 -2.58703 353.584 -2.58602C353.58 -2.58401 353.576 -2.58127 353.57 -2.5778C353.558 -2.57086 353.541 -2.56102 353.52 -2.5483C353.477 -2.52284 353.414 -2.48583 353.333 -2.43739C353.171 -2.34051 352.933 -2.1979 352.626 -2.01057C352.012 -1.63592 351.118 -1.08228 349.983 -0.357692C347.714 1.09127 344.482 3.2251 340.605 5.97946C332.857 11.4845 322.504 19.4873 312.104 29.4749C291.428 49.3314 270 77.5738 269.412 110.006L272.411 110.061Z" fill="var(--stroke-0, #272727)" mask="url(#path-1-inside-1_0_4)"/>
</g>
</svg>
