<svg preserveAspectRatio="xMidYMid meet" width="238.723" height="238.723" overflow="visible" style="display: block;" viewBox="0 0 238.723 238.723" fill="none" xmlns="http://www.w3.org/2000/svg">
<g id="Group 110">
<path id="Vector" d="M144.978 119.361C144.978 125.281 142.962 130.729 139.577 135.074C138.758 136.129 137.877 137.105 136.901 138.003C136.239 138.632 135.531 139.231 134.791 139.782C130.492 143.041 125.139 144.962 119.361 144.962C113.582 144.962 108.402 143.088 104.136 139.939C102.262 138.554 100.593 136.932 99.1759 135.106C98.924 134.775 98.6721 134.46 98.4359 134.114C95.4916 129.941 93.7439 124.84 93.7439 119.361C93.7439 113.882 95.5861 108.45 98.7193 104.214C98.8295 104.057 98.9397 103.915 99.0499 103.758C100.514 101.868 102.23 100.184 104.151 98.7665C104.498 98.5146 104.844 98.2627 105.206 98.0265C109.268 95.3184 114.133 93.7439 119.361 93.7439C125.265 93.7439 130.713 95.7593 135.043 99.1287C135.184 99.2389 135.31 99.3333 135.436 99.4436C137.231 100.892 138.821 102.593 140.175 104.466C143.183 108.67 144.962 113.803 144.962 119.361H144.978Z" stroke="var(--stroke-0, #FDF3E2)" stroke-width="4.72346" stroke-miterlimit="10"/>
<path id="Vector_2" d="M119.359 131.123C125.855 131.123 131.12 125.857 131.12 119.362C131.12 112.866 125.855 107.6 119.359 107.6C112.863 107.6 107.598 112.866 107.598 119.362C107.598 125.857 112.863 131.123 119.359 131.123Z" fill="var(--fill-0, #FDF3E2)" stroke="var(--stroke-0, #FDF3E2)" stroke-width="4.72346" stroke-miterlimit="10"/>
<g id="_x3C_Radial_Repeat_x3E_-9">
<path id="Vector_3" d="M150.205 184.936L121.549 215.434C119.423 217.685 115.834 217.685 113.724 215.418L84.3911 183.912C82.8166 182.228 82.5017 179.708 83.6196 177.677L103.301 141.858C107.568 145.023 112.842 146.896 118.542 146.896C123.848 146.896 128.776 145.274 132.869 142.503L151.086 178.874C152.094 180.889 151.732 183.298 150.205 184.936Z" fill="var(--fill-0, #FDF3E2)" stroke="var(--stroke-0, #FDF3E2)" stroke-width="4.72346" stroke-miterlimit="10"/>
</g>
<g id="_x3C_Radial_Repeat_x3E_-10">
<path id="Vector_4" d="M53.8 150.207L23.3023 121.551C21.0507 119.426 21.0507 115.836 23.318 113.726L54.8234 84.3933C56.5081 82.8188 59.0273 82.5039 61.0584 83.6218L96.8779 103.303C93.7132 107.57 91.8396 112.844 91.8396 118.544C91.8396 124.244 93.4613 128.778 96.2324 132.872L59.8618 151.088C57.8465 152.096 55.4375 151.734 53.8 150.207Z" fill="var(--fill-0, #FDF3E2)" stroke="var(--stroke-0, #FDF3E2)" stroke-width="4.72346" stroke-miterlimit="10"/>
</g>
<g id="_x3C_Radial_Repeat_x3E_-11">
<path id="Vector_5" d="M88.5155 53.7998L117.171 23.3021C119.297 21.0505 122.887 21.0505 124.996 23.3178L154.329 54.8233C155.903 56.508 156.218 59.0271 155.101 61.0582L135.419 96.8777C131.153 93.713 125.878 91.8394 120.178 91.8394C114.872 91.8394 109.944 93.4611 105.851 96.2322L87.6338 59.8616C86.6261 57.8463 86.9883 55.4373 88.5155 53.7998Z" fill="var(--fill-0, #FDF3E2)" stroke="var(--stroke-0, #FDF3E2)" stroke-width="4.72346" stroke-miterlimit="10"/>
</g>
<g id="_x3C_Radial_Repeat_x3E_-12">
<path id="Vector_6" d="M184.937 88.5185L215.435 117.174C217.686 119.3 217.686 122.89 215.419 124.999L183.913 154.332C182.229 155.906 179.709 156.221 177.678 155.103L141.859 135.422C145.024 131.156 146.897 125.881 146.897 120.181C146.897 114.875 145.275 109.947 142.504 105.854L178.875 87.6368C180.89 86.6291 183.299 86.9912 184.937 88.5185Z" fill="var(--fill-0, #FDF3E2)" stroke="var(--stroke-0, #FDF3E2)" stroke-width="4.72346" stroke-miterlimit="10"/>
</g>
<g id="_x3C_Radial_Repeat_x3E_-13">
<path id="Vector_7" d="M139.685 135.423L174.686 161.497C176.118 162.52 177.504 163.748 178.779 165.149C185.471 172.549 186.715 182.343 181.535 187.019C176.355 191.695 166.75 189.475 160.043 182.075C158.799 180.689 157.728 179.225 156.862 177.729L134.379 140.194" stroke="var(--stroke-0, #FDF3E2)" stroke-width="4.72346" stroke-miterlimit="10"/>
</g>
<g id="_x3C_Radial_Repeat_x3E_-14">
<path id="Vector_8" d="M103.317 139.688L77.2434 174.689C76.22 176.122 74.9919 177.507 73.5906 178.783C66.1905 185.474 56.3972 186.718 51.721 181.538C47.0448 176.358 49.2648 166.754 56.6649 160.046C58.0505 158.803 59.5147 157.732 61.0105 156.866L98.562 134.367" stroke="var(--stroke-0, #FDF3E2)" stroke-width="4.72346" stroke-miterlimit="10"/>
</g>
<g id="_x3C_Radial_Repeat_x3E_-15">
<path id="Vector_9" d="M99.0328 103.318L64.032 77.244C62.5992 76.2206 61.2137 74.9925 59.9383 73.5912C53.2468 66.1912 52.0029 56.3978 57.183 51.7216C62.3631 47.0454 71.9674 49.2654 78.6747 56.6655C79.9186 58.0511 80.9892 59.5153 81.8552 61.0111L104.339 98.5468" stroke="var(--stroke-0, #FDF3E2)" stroke-width="4.72346" stroke-miterlimit="10"/>
</g>
<g id="_x3C_Radial_Repeat_x3E_-16">
<path id="Vector_10" d="M135.421 99.035L161.495 64.0342C162.518 62.6014 163.746 61.2159 165.148 59.9405C172.548 53.249 182.341 52.0051 187.017 57.1852C191.694 62.3652 189.474 71.9696 182.073 78.6769C180.688 79.9208 179.224 80.9914 177.728 81.8574L140.176 104.357" stroke="var(--stroke-0, #FDF3E2)" stroke-width="4.72346" stroke-miterlimit="10"/>
</g>
<path id="Vector_11" d="M236.362 2.36173H2.36173V236.362H236.362V2.36173Z" stroke="var(--stroke-0, #FDF3E2)" stroke-width="4.72346" stroke-miterlimit="10"/>
</g>
</svg>
