<svg preserveAspectRatio="xMidYMid meet" width="152.864" height="131.023" overflow="visible" style="display: block;" viewBox="0 0 152.864 131.023" fill="none" xmlns="http://www.w3.org/2000/svg">
<g id="Vector">
<path d="M58.0251 64.9111C56.656 63.138 56.0625 60.0793 57.4513 58.1572C58.6001 56.5735 59.5417 56.631 60.4308 54.357C62.4065 49.2975 59.7048 47.0432 55.8865 44.3881C55.6169 44.2031 55.219 44.3749 55.7156 43.9545C65.8375 43.3914 78.5067 42.2276 88.0848 46.1807C90.3461 47.1125 91.8451 47.5148 92.6224 49.9535C94.4148 55.5641 92.1915 59.0025 91.1283 64.1483C90.5096 67.145 90.5555 72.0746 95.0434 70.9646C99.7988 69.7907 100.68 64.3086 100.099 60.1962L99.1997 55.61C100.909 57.8426 104.32 65.1588 103.357 67.8294C103.181 68.3195 101.778 71.4685 101.535 71.8033C98.4332 76.1407 90.1541 76.9593 85.6702 74.5977C84.7814 74.1291 83.4639 72.8288 82.7361 72.6097C82.3542 72.4929 81.9952 72.82 81.7826 72.7723C81.3572 72.677 81.0509 71.9325 80.3126 72.3196C78.2354 73.4093 80.4166 77.8521 81.4921 79.1839C83.6359 81.8331 86.5537 83.4927 89.9184 83.9197C89.5251 87.9492 92.0163 90.4336 95.7902 91.259C100.126 92.209 103.6 89.9082 105.684 86.1698C108.967 88.9746 121.041 88.3644 123.351 85.0418C124.74 83.0475 121.292 83.3781 120.426 83.2884C114.555 82.6757 108.804 80.407 106.091 74.7678C105.845 74.2509 105.315 72.8596 105.267 72.3398C105.154 71.1089 106.24 68.5325 106.064 67.0631C108.274 70.7447 109.382 74.8805 112.845 77.7293C114.922 79.44 119.687 81.1711 120.58 77.414C121.928 71.7567 110.568 64.3005 107.039 60.7622C103.744 57.4594 101.019 52.8594 97.7666 49.6217C96.8154 48.6765 95.2834 47.675 94.2381 46.7655L100.983 47.9984C99.3963 49.8873 102.249 50.9584 103.315 52.0629C106.469 55.3255 108.137 60.0119 112.77 61.4719C116.336 62.596 118.42 60.8821 119.978 57.7589C124.606 65.5341 137.534 59.9577 142.761 55.4871C151.147 48.3176 157.467 32.4618 148.497 23.4695C145.249 20.2138 145.562 25.0217 145.108 26.929C143.631 33.1885 140.507 39.0631 134.698 42.3083C132.443 43.567 126.583 45.4479 124.73 42.9766C123.046 40.7332 124.844 35.24 123.499 33.7664C121.421 31.4964 120.536 37.1697 119.919 38.4486C118.477 41.4423 115.459 44.4268 111.997 44.649C106.348 45.0078 113.604 36.3295 109.622 35.9617C108.673 35.8753 104.167 39.136 102.849 39.853C93.1426 45.1305 82.2575 41.3026 71.8486 40.8795C56.0061 40.2422 40.8785 44.9482 25.0952 40.6699C12.7712 37.3277 -2.42762 27.6746 3.72178 12.7925C5.31216 8.94051 10.7466 4.26493 15.0885 4.15407C19.8887 4.03401 25.5999 6.33501 26.0758 11.8219C26.3884 15.4534 21.985 18.2886 19.267 15.6987C21.978 13.5143 21.8598 11.3197 18.696 9.78923C14.096 7.55713 9.55298 15.5847 12.9301 19.7468C21.0575 29.7753 34.6818 16.681 28.6423 6.2917C24.3405 -1.10337 13.5871 -1.88139 7.30471 3.44074C0.126906 9.52833 -2.51579 21.2147 2.82553 29.2378C9.85656 39.8074 24.1281 44.0262 36.1584 44.9242C41.8291 45.3485 49.1627 43.859 54.5042 46.4474C58.0064 48.1451 60.3216 51.8233 57.0673 55.0488C56.0225 56.0844 54.9658 55.9543 54.2702 56.4787C53.6361 56.9564 53.1825 58.1023 52.183 58.7483C51.9332 58.9098 49.7999 59.689 49.841 59.4257C51.0409 58.4087 54.5341 55.0325 52.0368 53.6957C50.7054 52.9836 49.785 55.0445 49.0959 55.6916C45.3238 59.2364 40.5093 57.9851 37.3165 54.4444C36.5846 53.6335 34.666 50.0216 33.405 52.3483C32.5303 53.9619 37.9767 59.203 33.8115 61.3643C29.2989 63.7047 23.9245 59.1747 21.2027 55.9497C20.3134 54.8928 18.5562 51.4655 17.5874 51.0976C16.95 50.8535 16.3023 51.1724 16.0032 51.7704C15.5145 52.7358 17.2646 56.1414 17.8113 57.1501C20.5129 62.1325 23.4768 65.2826 28.752 67.463C31.9314 68.777 35.8495 68.957 37.9952 71.9346C38.7331 72.962 40.0962 77.8783 41.8713 76.6144C43.2949 75.5982 41.7556 73.2687 41.7573 71.6015C41.7605 64.247 50.2426 63.9452 55.2553 66.6154C56.2988 67.1748 58.8066 69.2479 59.5681 69.247C60.4775 69.2503 61.1587 68.0438 60.7926 67.6744C59.9491 66.8234 58.7349 65.7942 58.0396 64.8967L58.0251 64.9111ZM133.856 51.9081C129.268 54.1219 125.6 50.4136 121.667 48.9561C116.092 46.8865 109.581 51.035 103.924 48.1785C106.129 48.0095 108.384 48.1294 110.59 47.946C113.381 47.7141 116.674 46.7623 119.429 47.1113C124.503 47.7537 128.412 52.3578 133.856 51.9081Z" fill="var(--fill-0, #BAE8E5)"/>
<path d="M81.1432 125.503C81.6825 130.611 86.2151 133.297 89.7806 128.557C93.3461 123.817 93.0691 108.793 93.4785 102.422C93.6753 99.3698 94.0201 96.2855 94.4261 93.2485C93.6777 91.4848 92.7851 91.7162 91.7205 93.0656C89.7368 95.5774 87.7198 99.5723 85.8678 102.399C82.3568 107.752 76.1706 115.348 75.5409 121.759C75.1401 125.853 77.443 128.445 81.1432 125.503Z" fill="var(--fill-0, #BAE8E5)"/>
<path d="M100.876 127.54C102.434 127.683 103.674 125.255 104.182 124.019C105.698 126.652 109.388 129.097 111.205 125.336C114.281 118.971 105.348 101.09 103.413 94.4795C102.885 93.2145 100.498 93.4984 100.081 94.6444C99.6304 95.8878 99.3486 100.008 99.1959 101.574C98.7147 106.523 97.1294 120.909 98.4863 124.948C98.8593 126.065 99.5557 127.42 100.872 127.537L100.876 127.54Z" fill="var(--fill-0, #BAE8E5)"/>
<path d="M85.1751 86.8325C83.3914 87.0138 76.2176 89.6659 74.1599 90.4633C70.8113 91.765 67.1145 93.3902 64.8148 96.2726C62.0101 99.7919 64.0492 103.134 68.3812 102.171C67.8553 104.013 66.8472 105.594 67.6632 107.535C68.5291 109.605 70.3488 110.106 72.3277 109.179C77.0598 106.958 81.2873 97.8576 84.126 93.3857C84.7775 92.3596 87.6619 88.79 87.536 88.0317C87.3789 87.046 86.0164 86.7452 85.1823 86.8325L85.1751 86.8325Z" fill="var(--fill-0, #BAE8E5)"/>
<path d="M108.876 90.5228C107.256 90.5206 107.746 92.6479 107.398 93.639C109.638 98.5909 110.611 104.231 113.082 109.068C114.918 112.655 119.212 118.032 119.837 110.565C125.73 115.93 129.059 110.857 124.937 104.95C122.355 101.249 118.531 98.9437 115.158 96.0844C114.159 95.2365 109.428 90.5211 108.869 90.5227L108.876 90.5228Z" fill="var(--fill-0, #BAE8E5)"/>
<path d="M64.0641 84.239C61.2899 86.7733 61.9928 90.9799 66.3745 89.4871C69.9139 88.2763 73.2945 84.3801 76.1115 81.9471C77.2861 80.9336 80.8919 79.456 78.3845 77.9784C73.7971 77.4424 67.7123 76.1866 63.3173 78.1377C60.8358 79.2403 59.2288 81.4648 61.9032 83.4302C62.6042 83.9488 63.399 83.7784 64.0605 84.2354L64.0641 84.239Z" fill="var(--fill-0, #BAE8E5)"/>
<path d="M135.589 98.3237C138.106 96.6402 136.378 94.4905 134.399 93.3936C132.308 92.235 122.469 89.8472 119.876 89.5456C118.391 89.3743 117.53 90.3348 118.143 91.766C119.444 94.8056 125.261 100.21 128.293 101.585C130.903 102.767 133.021 102.14 132.291 98.9146C133.265 98.9614 134.763 98.8765 135.589 98.3237Z" fill="var(--fill-0, #BAE8E5)"/>
</g>
</svg>
