<svg preserveAspectRatio="xMidYMid meet" width="152.864" height="131.023" overflow="visible" style="display: block;" viewBox="0 0 152.864 131.023" fill="none" xmlns="http://www.w3.org/2000/svg">
<g id="Vector">
<path d="M58.0251 66.1118C56.656 67.8849 56.0625 70.9436 57.4513 72.8657C58.6001 74.4494 59.5417 74.3919 60.4308 76.6658C62.4065 81.7254 59.7048 83.9796 55.8865 86.6348C55.6169 86.8198 55.219 86.648 55.7156 87.0684C65.8375 87.6315 78.5067 88.7953 88.0848 84.8422C90.3461 83.9103 91.8451 83.5081 92.6224 81.0694C94.4148 75.4588 92.1915 72.0204 91.1283 66.8745C90.5096 63.8779 90.5555 58.9483 95.0434 60.0582C99.7988 61.2322 100.68 66.7143 100.099 70.8266L99.1997 75.4129C100.909 73.1802 104.32 65.8641 103.357 63.1935C103.181 62.7033 101.778 59.5543 101.535 59.2196C98.4332 54.8822 90.1541 54.0636 85.6702 56.4252C84.7814 56.8938 83.4639 58.194 82.7361 58.4132C82.3542 58.53 81.9952 58.2029 81.7826 58.2505C81.3572 58.3459 81.0509 59.0904 80.3126 58.7033C78.2354 57.6136 80.4166 53.1708 81.4921 51.8389C83.6359 49.1897 86.5537 47.5302 89.9184 47.1032C89.5251 43.0737 92.0163 40.5893 95.7902 39.7639C100.126 38.8139 103.6 41.1147 105.684 44.8531C108.967 42.0483 121.041 42.6585 123.351 45.9811C124.74 47.9754 121.292 47.6448 120.426 47.7345C114.555 48.3472 108.804 50.6159 106.091 56.2551C105.845 56.772 105.315 58.1632 105.267 58.6831C105.154 59.914 106.24 62.4904 106.064 63.9597C108.274 60.2782 109.382 56.1423 112.845 53.2936C114.922 51.5829 119.687 49.8518 120.58 53.6089C121.928 59.2661 110.568 66.7224 107.039 70.2607C103.744 73.5635 101.019 78.1634 97.7666 81.4012C96.8154 82.3464 95.2834 83.3479 94.2381 84.2574L100.983 83.0245C99.3963 81.1356 102.249 80.0645 103.315 78.96C106.469 75.6974 108.137 71.011 112.77 69.551C116.336 68.4268 118.42 70.1408 119.978 73.264C124.606 65.4888 137.534 71.0652 142.761 75.5358C151.147 82.7053 157.467 98.5611 148.497 107.553C145.249 110.809 145.562 106.001 145.108 104.094C143.631 97.8344 140.507 91.9597 134.698 88.7145C132.443 87.4559 126.583 85.575 124.73 88.0463C123.046 90.2897 124.844 95.7829 123.499 97.2565C121.421 99.5265 120.536 93.8532 119.919 92.5743C118.477 89.5806 115.459 86.5961 111.997 86.3739C106.348 86.015 113.604 94.6934 109.622 95.0612C108.673 95.1476 104.167 91.8869 102.849 91.1699C93.1426 85.8924 82.2575 89.7202 71.8486 90.1434C56.0061 90.7807 40.8785 86.0747 25.0952 90.353C12.7712 93.6952 -2.42762 103.348 3.72178 118.23C5.31216 122.082 10.7466 126.758 15.0885 126.869C19.8887 126.989 25.5999 124.688 26.0758 119.201C26.3884 115.57 21.985 112.734 19.267 115.324C21.978 117.509 21.8598 119.703 18.696 121.234C14.096 123.466 9.55298 115.438 12.9301 111.276C21.0575 101.248 34.6818 114.342 28.6423 124.731C24.3405 132.126 13.5871 132.904 7.30471 127.582C0.126906 121.495 -2.51579 109.808 2.82553 101.785C9.85656 91.2155 24.1281 86.9967 36.1584 86.0987C41.8291 85.6743 49.1627 87.1639 54.5042 84.5755C58.0064 82.8778 60.3216 79.1995 57.0673 75.9741C56.0225 74.9385 54.9658 75.0686 54.2702 74.5442C53.6361 74.0665 53.1825 72.9205 52.183 72.2745C51.9332 72.113 49.7999 71.3339 49.841 71.5972C51.0409 72.6142 54.5341 75.9903 52.0368 77.3272C50.7054 78.0393 49.785 75.9784 49.0959 75.3313C45.3238 71.7865 40.5093 73.0378 37.3165 76.5785C36.5846 77.3894 34.666 81.0013 33.405 78.6746C32.5303 77.061 37.9767 71.8198 33.8115 69.6586C29.2989 67.3182 23.9245 71.8482 21.2027 75.0732C20.3134 76.1301 18.5562 79.5574 17.5874 79.9253C16.95 80.1694 16.3023 79.8505 16.0032 79.2525C15.5145 78.2871 17.2646 74.8815 17.8113 73.8727C20.5129 68.8904 23.4768 65.7403 28.752 63.5599C31.9314 62.2458 35.8495 62.0659 37.9952 59.0883C38.7331 58.0608 40.0962 53.1446 41.8713 54.4085C43.2949 55.4247 41.7556 57.7542 41.7573 59.4214C41.7605 66.7759 50.2426 67.0777 55.2553 64.4075C56.2988 63.848 58.8066 61.775 59.5681 61.7759C60.4775 61.7726 61.1587 62.9791 60.7926 63.3485C59.9491 64.1995 58.7349 65.2287 58.0396 66.1262L58.0251 66.1118ZM133.856 79.1148C129.268 76.901 125.6 80.6093 121.667 82.0668C116.092 84.1363 109.581 79.9879 103.924 82.8444C106.129 83.0134 108.384 82.8935 110.59 83.0769C113.381 83.3088 116.674 84.2606 119.429 83.9116C124.503 83.2692 128.412 78.665 133.856 79.1148Z" fill="var(--fill-0, #BAE8E5)"/>
<path d="M81.1432 5.52027C81.6825 0.412056 86.2151 -2.2745 89.7806 2.46547C93.3461 7.20543 93.0691 22.2294 93.4785 28.6009C93.6753 31.6531 94.0201 34.7373 94.4261 37.7744C93.6777 39.5381 92.7851 39.3067 91.7205 37.9572C89.7368 35.4454 87.7198 31.4506 85.8678 28.6243C82.3568 23.2707 76.1706 15.6748 75.5409 9.26436C75.1401 5.16993 77.443 2.57791 81.1432 5.52027Z" fill="var(--fill-0, #BAE8E5)"/>
<path d="M100.876 3.48241C102.434 3.33974 103.674 5.76759 104.182 7.00356C105.698 4.37104 109.388 1.92566 111.205 5.68667C114.281 12.0523 105.348 29.9326 103.413 36.5434C102.885 37.8083 100.498 37.5245 100.081 36.3784C99.6304 35.135 99.3486 31.0149 99.1959 29.4493C98.7147 24.4999 97.1294 10.1141 98.4863 6.07473C98.8593 4.95832 99.5557 3.60258 100.872 3.48603L100.876 3.48241Z" fill="var(--fill-0, #BAE8E5)"/>
<path d="M85.1751 44.1904C83.3914 44.0091 76.2176 41.357 74.1599 40.5596C70.8113 39.2579 67.1145 37.6327 64.8148 34.7503C62.0101 31.231 64.0492 27.8893 68.3812 28.8519C67.8553 27.0097 66.8472 25.4291 67.6632 23.4883C68.5291 21.4174 70.3488 20.9166 72.3277 21.8442C77.0598 24.0647 81.2873 33.1653 84.126 37.6372C84.7775 38.6633 87.6619 42.2329 87.536 42.9911C87.3789 43.9769 86.0164 44.2776 85.1823 44.1904L85.1751 44.1904Z" fill="var(--fill-0, #BAE8E5)"/>
<path d="M108.876 40.5001C107.256 40.5023 107.746 38.375 107.398 37.3839C109.638 32.432 110.611 26.7918 113.082 21.9545C114.918 18.3682 119.212 12.9904 119.837 20.4582C125.73 15.0927 129.059 20.1655 124.937 26.0732C122.355 29.7741 118.531 32.0792 115.158 34.9384C114.159 35.7864 109.428 40.5018 108.869 40.5002L108.876 40.5001Z" fill="var(--fill-0, #BAE8E5)"/>
<path d="M64.0641 46.7838C61.2899 44.2496 61.9928 40.043 66.3745 41.5358C69.9139 42.7466 73.2945 46.6428 76.1115 49.0758C77.2861 50.0893 80.8919 51.5669 78.3845 53.0445C73.7971 53.5805 67.7123 54.8363 63.3173 52.8852C60.8358 51.7825 59.2288 49.5581 61.9032 47.5927C62.6042 47.0741 63.399 47.2445 64.0605 46.7875L64.0641 46.7838Z" fill="var(--fill-0, #BAE8E5)"/>
<path d="M135.589 32.6992C138.106 34.3827 136.378 36.5324 134.399 37.6293C132.308 38.7879 122.469 41.1757 119.876 41.4773C118.391 41.6485 117.53 40.6881 118.143 39.2569C119.444 36.2173 125.261 30.8125 128.293 29.4376C130.903 28.2555 133.021 28.8831 132.291 32.1082C133.265 32.0615 134.763 32.1464 135.589 32.6992Z" fill="var(--fill-0, #BAE8E5)"/>
</g>
</svg>
