<svg preserveAspectRatio="xMidYMid meet" width="22.9521" height="23.114" overflow="visible" style="display: block;" viewBox="0 0 22.9521 23.114" fill="none" xmlns="http://www.w3.org/2000/svg">
<g id="Frame 1171276752">
<path id="&#226;&#128;&#156;" d="M22.9521 3.1023C22.2987 5.06262 21.6453 7.24076 20.9918 9.63672C20.3928 12.0327 19.8483 14.4014 19.3582 16.7429C18.9226 19.0299 18.5686 21.1536 18.2964 23.114H13.6406L13.0688 22.2972C13.5045 20.2279 14.049 18.077 14.7024 15.8444C15.4103 13.6118 16.1727 11.4065 16.9895 9.22831C17.8607 7.05018 18.732 5.00817 19.6033 3.1023H22.9521ZM9.71995 3.1023C9.06651 5.06262 8.41306 7.24076 7.75962 9.63672C7.16063 12.0327 6.6161 14.4014 6.12602 16.7429C5.69039 19.0299 5.36367 21.1536 5.14586 23.114H0.490081L0 22.2972C0.435628 20.2279 0.980163 18.077 1.6336 15.8444C2.3415 13.6118 3.10385 11.4065 3.92065 9.22831C4.73745 7.05018 5.58148 5.00817 6.45274 3.1023H9.71995Z" fill="var(--fill-0, #272727)"/>
</g>
</svg>
