<svg preserveAspectRatio="xMidYMid meet" overflow="hidden" style="display: block;" viewBox="0 0 894.462 124.84" fill="none" xmlns="http://www.w3.org/2000/svg">
<g id="GARDENS">
<path id="Vector" d="M762.663 8.24741H744.807C742.505 8.24741 740.663 10.0892 740.663 12.3915V75.7295C687.865 62.7345 678.144 15.41 677.07 8.96367C677.018 8.55438 676.609 8.24741 676.2 8.24741H653.075C650.773 8.24741 648.931 10.0892 648.931 12.3915V118.756C648.931 121.059 650.773 122.9 653.075 122.9H670.93C673.232 122.9 675.074 121.059 675.074 118.756V64.1158C688.837 80.8968 709.659 97.115 740.663 103.971V121.263C740.663 122.184 741.38 122.9 742.301 122.9H762.663C764.965 122.9 766.807 121.059 766.807 118.756V12.3915C766.807 10.0892 764.965 8.24741 762.663 8.24741Z" fill="var(--fill-0, #272727)"/>
<path id="Vector_2" d="M123.709 71.3246C123.709 100.742 102.886 124.84 63.2868 124.84C28.7016 124.84 0 101.919 0 65.5945C0 29.2698 27.5249 6.3494 63.2868 6.3494C102.835 6.3494 119.462 30.6 119.871 47.6368C119.871 48.7623 119.104 50.1437 116.802 50.1437H97.1046C95.9791 50.1437 94.5977 49.7856 94.2396 48.2507C92.142 39.0928 83.1375 28.1954 63.2868 28.1954C43.4361 28.1954 25.99 43.6973 25.99 65.6456C25.99 89.8962 43.5896 103.096 63.2868 103.096C82.984 103.096 94.8534 93.938 96.8487 83.6545C97.0534 82.6313 96.2349 81.7104 95.2117 81.7104H56.4824C54.1289 81.7104 52.1336 79.7662 52.1336 77.3616V66.1572C52.1336 63.8038 54.0778 61.8085 56.4824 61.8085H122.02C122.941 61.8085 123.657 62.5248 123.657 63.4457V71.3757L123.709 71.3246Z" fill="var(--fill-0, #272727)"/>
<path id="Vector_3" d="M349.644 82.7898C364.89 77.4178 375.43 65.8042 375.43 48.4092C375.43 23.3401 355.528 8.24741 327.645 8.24741H276.125C273.976 8.24741 272.186 10.0381 272.186 12.1869V119.012C272.186 121.161 273.976 122.952 276.125 122.952H294.236C296.436 122.952 298.176 121.212 298.176 119.012V88.6734C298.176 87.7525 298.943 86.9851 299.864 86.9851H312.808C329.333 105.147 350.105 117.017 374.611 122.287C376.76 122.747 378.909 121.314 379.318 119.115L382.899 99.9289C383.309 97.8313 381.927 95.836 379.83 95.3755C368.677 92.9198 358.598 88.6734 349.644 82.7898ZM298.176 64.6786V31.6794C298.176 30.7585 298.892 30.0422 299.813 30.0422H325.905C340.23 30.0422 349.44 37.1025 349.44 48.4092C349.44 59.7159 340.23 66.367 325.905 66.367H299.864C298.943 66.367 298.176 65.5995 298.176 64.6786Z" fill="var(--fill-0, #272727)"/>
<path id="Vector_4" d="M400.801 122.932C398.652 122.932 396.862 121.141 396.862 118.992V12.2182C396.862 10.0695 398.652 8.2788 400.801 8.2788H447.512C483.836 8.2788 510.952 30.6364 510.952 65.6309C510.952 100.625 488.032 122.983 447.87 122.983H400.801V122.932ZM422.852 31.6596V99.4487C422.852 100.37 423.568 101.086 424.489 101.086H447.87C467.209 101.086 479.283 92.3373 483.376 77.7562C490.129 53.7103 471.302 29.9713 446.284 29.9713H424.489C423.568 29.9713 422.852 30.6876 422.852 31.6085V31.6596Z" fill="var(--fill-0, #272727)"/>
<path id="Vector_5" d="M558.175 76.7916V99.5073C558.175 100.428 558.891 101.144 559.812 101.144H623.815C626.169 101.144 628.164 103.089 628.164 105.493V118.642C628.164 120.995 626.22 122.99 623.815 122.99H536.124C533.976 122.99 532.185 121.2 532.185 119.051V12.2768C532.185 10.1281 533.976 8.3374 536.124 8.3374H622.638C624.992 8.3374 626.987 10.2815 626.987 12.6861V25.8346C626.987 28.1881 625.043 30.1834 622.638 30.1834H559.812C558.891 30.1834 558.175 30.8996 558.175 31.8206V51.8247C558.175 52.7456 558.891 53.4619 559.812 53.4619H616.908C619.262 53.4619 621.257 55.406 621.257 57.8106V70.9591C621.257 73.3126 619.313 75.3079 616.908 75.3079H559.812C558.891 75.3079 558.175 76.0241 558.175 76.9451V76.7916Z" fill="var(--fill-0, #272727)"/>
<path id="Vector_6" d="M809.738 84.3226C812.04 84.3226 813.166 85.2947 813.575 87.1877C815.468 96.9595 823.705 103.048 841.868 103.048C860.03 103.048 868.421 96.1921 868.421 87.9551C868.421 82.5831 864.584 77.8251 853.123 76.8531L823.296 74.3461C799.966 72.4532 787.534 61.7092 787.534 44.519C787.534 24.6171 804.929 6.30127 838.747 6.30127C872.565 6.30127 889.039 22.5707 889.039 40.8865C889.039 42.626 887.709 44.1608 885.406 44.1608H866.477C864.584 44.1608 863.407 43.598 863.048 41.2958C861.923 34.5936 855.426 28.0961 838.593 28.0961C821.761 28.0961 813.575 34.5936 813.575 42.9841C813.575 48.1514 817.003 51.9885 827.543 52.756L857.165 55.2629C883.923 57.5651 894.462 70.9183 894.462 86.7784C894.462 104.736 878.96 124.791 841.919 124.791C806.925 124.791 787.636 108.164 787.636 89.2341V87.6993C787.636 85.8063 789.171 84.2715 791.269 84.2715H809.789L809.738 84.3226Z" fill="var(--fill-0, #272727)"/>
<path id="Vector_7" d="M197.225 0.153831C190.881 2.60959 145.449 20.9254 139.054 45.9946C139.054 46.1481 139.003 46.3527 139.003 46.5574V120.844C139.003 121.97 139.924 122.89 141.05 122.89H160.44C161.565 122.89 162.486 121.97 162.486 120.844V82.1658C162.486 81.0403 163.407 80.1194 164.533 80.1194H230.326C231.452 80.1194 232.373 81.0403 232.373 82.1658V120.844C232.373 121.97 233.294 122.89 234.419 122.89H254.731C255.856 122.89 256.777 121.97 256.777 120.844V46.5574C256.777 46.5574 256.777 46.1992 256.726 45.9946C250.382 20.9254 204.95 2.60959 198.555 0.153831C198.095 -0.0508151 197.532 -0.0508151 197.071 0.153831H197.225ZM163.049 54.5386C168.574 37.9111 197.532 26.2462 197.532 26.2462C197.532 26.2462 226.489 37.8599 231.964 54.5386H163.049Z" fill="var(--fill-0, #272727)"/>
</g>
</svg>
