<svg preserveAspectRatio="xMidYMid meet" overflow="hidden" style="display: block;" viewBox="0 0 497.235 122.901" fill="none" xmlns="http://www.w3.org/2000/svg">
<g id="NAVA">
<path id="Vector" d="M113.732 8.24844H95.8772C93.5749 8.24844 91.7331 10.0903 91.7331 12.3925V75.7305C38.9344 62.7355 29.2136 15.4111 28.1392 8.96471C28.088 8.55541 27.6787 8.24844 27.2694 8.24844H4.1444C1.84213 8.24844 0.000328107 10.0903 0.000328107 12.3925V118.757C0.000328107 121.06 1.84213 122.901 4.1444 122.901H21.9997C24.302 122.901 26.144 121.06 26.144 118.757V64.1169C39.9064 80.8978 60.7292 97.1161 91.7331 103.972V121.264C91.7331 122.185 92.4494 122.901 93.3703 122.901H113.732C116.035 122.901 117.877 121.06 117.877 118.757V12.3925C117.877 10.0903 116.035 8.24844 113.732 8.24844Z" fill="var(--fill-0, #272727)"/>
<path id="Vector_2" d="M308.409 65.9345C312.4 74.1715 315.879 84.8643 315.879 84.8643H317.005C317.005 84.8643 320.433 74.1715 324.474 65.9345L351.027 10.68C352.153 8.37775 352.766 8.1731 355.018 8.1731H377.938C379.064 8.1731 379.473 8.73588 379.473 9.29865C379.473 9.86143 378.91 11.0381 378.347 12.1637L325.855 121.905C325.6 122.468 324.986 122.826 324.372 122.826H308.461C307.847 122.826 307.233 122.468 306.977 121.905L254.485 12.1637C253.923 11.0381 253.36 9.86143 253.36 9.29865C253.36 8.73588 253.718 8.1731 254.894 8.1731H277.815C280.117 8.1731 280.68 8.37775 281.805 10.68L308.358 65.9345H308.409Z" fill="var(--fill-0, #272727)"/>
<path id="Vector_3" d="M193.649 0.153808C187.305 2.60956 141.874 20.9254 135.478 45.9946C135.478 46.1481 135.427 46.3527 135.427 46.5573V120.844C135.427 121.969 136.348 122.89 137.474 122.89H156.864C157.989 122.89 158.91 121.969 158.91 120.844V82.1658C158.91 81.0402 159.831 80.1193 160.957 80.1193H226.75C227.876 80.1193 228.797 81.0402 228.797 82.1658V120.844C228.797 121.969 229.718 122.89 230.844 122.89H251.155C252.28 122.89 253.201 121.969 253.201 120.844V46.5573C253.201 46.5573 253.201 46.1992 253.15 45.9946C246.806 20.9254 201.374 2.60956 194.979 0.153808C194.519 -0.0508384 193.956 -0.0508384 193.495 0.153808H193.649ZM159.473 54.5385C164.999 37.911 193.956 26.2462 193.956 26.2462C193.956 26.2462 222.913 37.8599 228.388 54.5385H159.473Z" fill="var(--fill-0, #272727)"/>
<path id="Vector_4" d="M437.683 0.153808C431.338 2.60956 385.907 20.9254 379.512 45.9946C379.512 46.1481 379.461 46.3527 379.461 46.5573V120.844C379.461 121.969 380.381 122.89 381.507 122.89H400.897C402.023 122.89 402.944 121.969 402.944 120.844V82.1658C402.944 81.0402 403.865 80.1193 404.99 80.1193H470.784C471.909 80.1193 472.83 81.0402 472.83 82.1658V120.844C472.83 121.969 473.751 122.89 474.877 122.89H495.188C496.314 122.89 497.234 121.969 497.234 120.844V46.5573C497.234 46.5573 497.235 46.1992 497.183 45.9946C490.839 20.9254 445.408 2.60956 439.013 0.153808C438.552 -0.0508384 437.989 -0.0508384 437.529 0.153808H437.683ZM403.558 54.5385C409.083 37.911 438.041 26.2462 438.041 26.2462C438.041 26.2462 466.998 37.8599 472.472 54.5385H403.558Z" fill="var(--fill-0, #272727)"/>
</g>
</svg>
